<?xml version="1.0" encoding="UTF-8"?>
<svg width="16px" height="16px" viewBox="0 0 16 16" version="1.1" xmlns="http://www.w3.org/2000/svg" xmlns:xlink="http://www.w3.org/1999/xlink">
    <g id="Page-1" stroke="none" stroke-width="1" fill="none" fill-rule="evenodd">
        <g id="Icon-/-2-/-Black" transform="translate(-4.000000, -4.000000)" fill="#333333">
            <path d="M19.7324219,18.9941406 C19.7675783,19.1582039 19.7353521,19.3134758 19.6357422,19.4599609 C19.5361323,19.606446 19.3984384,19.6972654 19.2226562,19.7324219 C19.1874998,19.7441407 19.1464846,19.75 19.0996094,19.75 C18.9589837,19.75 18.8300787,19.7001958 18.7128906,19.6005859 C18.5957025,19.5009761 18.5195314,19.3750008 18.484375,19.2226562 C18.3906245,18.7187475 18.1445332,18.302736 17.7460938,17.9746094 C17.3476543,17.6464827 16.8876979,17.4824219 16.3662109,17.4824219 C15.844724,17.4824219 15.3847676,17.6464827 14.9863281,17.9746094 C14.5878886,18.302736 14.3417973,18.7187475 14.2480469,19.2226562 C14.2128904,19.3984384 14.1250007,19.5361323 13.984375,19.6357422 C13.8437493,19.7353521 13.6855478,19.7675783 13.5097656,19.7324219 C13.3339835,19.6972654 13.1962896,19.606446 13.0966797,19.4599609 C12.9970698,19.3134758 12.9648436,19.1582039 13,18.9941406 C13.1171881,18.4082002 13.3603497,17.8925804 13.7294922,17.4472656 C14.0986347,17.0019509 14.5527317,16.6738292 15.0917969,16.4628906 C14.7636702,16.2519521 14.5058603,15.9736345 14.3183594,15.6279297 C14.1308584,15.2822248 14.0371094,14.9160176 14.0371094,14.5292969 C14.0371094,13.8847624 14.2656227,13.3369163 14.7226563,12.8857422 C15.1796898,12.4345681 15.7275359,12.2089844 16.3662109,12.2089844 C17.004886,12.2089844 17.5498024,12.4345681 18.0009766,12.8857422 C18.4521507,13.3369163 18.6777344,13.8847624 18.6777344,14.5292969 C18.6777344,14.9277364 18.586915,15.2968733 18.4052734,15.6367188 C18.2236319,15.9765642 17.9687516,16.2519521 17.640625,16.4628906 C18.1796902,16.6738292 18.6337872,17.0019509 19.0029297,17.4472656 C19.3720722,17.8925804 19.6152338,18.4082002 19.7324219,18.9941406 Z M15.6191406,13.7910156 C15.4199209,13.9902354 15.3203125,14.2363267 15.3203125,14.5292969 C15.3203125,14.8222671 15.4228505,15.071288 15.6279297,15.2763672 C15.8330088,15.4814463 16.0791001,15.5839844 16.3662109,15.5839844 C16.6533217,15.5839844 16.9023427,15.4814463 17.1132812,15.2763672 C17.3242198,15.071288 17.4296875,14.8222671 17.4296875,14.5292969 C17.4296875,14.2363267 17.3242198,13.9873057 17.1132812,13.7822266 C16.9023427,13.5771474 16.6533217,13.4746094 16.3662109,13.4746094 C16.0791001,13.4746094 15.8300792,13.5800771 15.6191406,13.7910156 Z M18.484375,4 C18.8359393,4 19.1347644,4.12304564 19.3808594,4.36914062 C19.6269544,4.61523561 19.75,4.91406074 19.75,5.265625 L19.75,11.2421875 C19.75,11.4179696 19.6884772,11.5673822 19.5654297,11.6904297 C19.4423822,11.8134772 19.2958993,11.875 19.1259766,11.875 C18.9560538,11.875 18.8066413,11.8134772 18.6777344,11.6904297 C18.5488275,11.5673822 18.484375,11.4179696 18.484375,11.2421875 L18.484375,5.265625 L5.265625,5.265625 L5.265625,18.484375 L10.1171875,18.484375 C10.2929696,18.484375 10.4423822,18.5458978 10.5654297,18.6689453 C10.6884772,18.7919928 10.75,18.9414054 10.75,19.1171875 C10.75,19.2929696 10.6884772,19.4423822 10.5654297,19.5654297 C10.4423822,19.6884772 10.2929696,19.75 10.1171875,19.75 L5.265625,19.75 C4.91406074,19.75 4.61523561,19.6269544 4.36914062,19.3808594 C4.12304564,19.1347644 4,18.8359393 4,18.484375 L4,5.265625 C4,4.91406074 4.12304564,4.61523561 4.36914062,4.36914062 C4.61523561,4.12304564 4.91406074,4 5.265625,4 L18.484375,4 Z M6.8828125,8.640625 C6.71874918,8.640625 6.57226627,8.57910218 6.44335938,8.45605469 C6.31445248,8.3330072 6.25,8.18359463 6.25,8.0078125 C6.25,7.83203037 6.31445248,7.6826178 6.44335938,7.55957031 C6.57226627,7.43652282 6.71874918,7.375 6.8828125,7.375 L12.3671875,7.375 C12.5429696,7.375 12.6923822,7.43652282 12.8154297,7.55957031 C12.9384772,7.6826178 13,7.83203037 13,8.0078125 C13,8.18359463 12.9384772,8.3330072 12.8154297,8.45605469 C12.6923822,8.57910218 12.5429696,8.640625 12.3671875,8.640625 L6.8828125,8.640625 Z M10.1171875,10.75 C10.2929696,10.75 10.4423822,10.8115228 10.5654297,10.9345703 C10.6884772,11.0576178 10.75,11.2070304 10.75,11.3828125 C10.75,11.5585946 10.6884772,11.7080072 10.5654297,11.8310547 C10.4423822,11.9541022 10.2929696,12.015625 10.1171875,12.015625 L6.8828125,12.015625 C6.71874918,12.015625 6.57226627,11.9541022 6.44335938,11.8310547 C6.31445248,11.7080072 6.25,11.5585946 6.25,11.3828125 C6.25,11.2070304 6.31445248,11.0576178 6.44335938,10.9345703 C6.57226627,10.8115228 6.71874918,10.75 6.8828125,10.75 L10.1171875,10.75 Z M10.1171875,14.125 C10.2929696,14.125 10.4423822,14.1865228 10.5654297,14.3095703 C10.6884772,14.4326178 10.75,14.5820304 10.75,14.7578125 C10.75,14.9335946 10.6884772,15.0830072 10.5654297,15.2060547 C10.4423822,15.3291022 10.2929696,15.390625 10.1171875,15.390625 L6.8828125,15.390625 C6.71874918,15.390625 6.57226627,15.3291022 6.44335938,15.2060547 C6.31445248,15.0830072 6.25,14.9335946 6.25,14.7578125 C6.25,14.5820304 6.31445248,14.4326178 6.44335938,14.3095703 C6.57226627,14.1865228 6.71874918,14.125 6.8828125,14.125 L10.1171875,14.125 Z" id="account"></path>
        </g>
    </g>
</svg>