<?xml version="1.0" encoding="UTF-8"?>
<svg width="16px" height="14px" viewBox="0 0 16 14" version="1.1" xmlns="http://www.w3.org/2000/svg" xmlns:xlink="http://www.w3.org/1999/xlink">
    <!-- Generator: Sketch 51.3 (57544) - http://www.bohemiancoding.com/sketch -->
    <title>arrow-view</title>
    <desc>Created with Sketch.</desc>
    <defs></defs>
    <g id="Pages" stroke="none" stroke-width="1" fill="none" fill-rule="evenodd">
        <g id="Notes-/-Flash-card-/-1" transform="translate(-1300.000000, -513.000000)" fill="#333333">
            <g id="M-panel" transform="translate(400.000000, 284.000000)">
                <g id="Icon-/-Arrow-/-Circ;e-/-Dark-Copy" transform="translate(893.000000, 221.000000)">
                    <g id="Group-3" transform="translate(2.000000, 2.000000)">
                        <path d="M6.38141304,12.3041833 L17.6071215,12.3041833 L13.3828131,8.23633074 C13.2002804,8.06683604 13.1090153,7.86474923 13.1090153,7.63006426 C13.1090153,7.39537928 13.190502,7.19003301 13.3534776,7.01401928 C13.5164533,6.83800555 13.7152807,6.75 13.9499656,6.75 C14.1846506,6.75 14.3932563,6.82822715 14.5757891,6.9846838 L20.3255422,12.5388671 C20.508075,12.7083618 20.59934,12.9137081 20.59934,13.1549121 C20.59934,13.3961161 20.508075,13.6014624 20.3255422,13.7709571 L14.5366751,19.3446973 C14.3671804,19.501154 14.1716125,19.5793811 13.9499656,19.5793811 C13.7022426,19.5793811 13.4936369,19.4881161 13.3241422,19.3055834 C13.1546475,19.1360887 13.0731608,18.9340019 13.0796799,18.6993169 C13.0861989,18.4646319 13.1742044,18.2625451 13.3436991,18.0930504 L17.5680076,14.0251978 L6.36185605,14.0251978 C6.14020913,14.0251978 5.94464125,13.9469707 5.77514655,13.790514 C5.60565185,13.6340574 5.51438684,13.4450084 5.50134878,13.2233615 C5.48831073,12.9756385 5.56979734,12.7605138 5.74581107,12.5779811 C5.9218248,12.3954483 6.13369001,12.3041833 6.38141304,12.3041833 Z" id="arrow-view"></path>
                    </g>
                </g>
            </g>
        </g>
    </g>
</svg>