<?xml version="1.0" encoding="UTF-8"?>
<svg width="18px" height="14px" viewBox="0 0 18 14" version="1.1" xmlns="http://www.w3.org/2000/svg" xmlns:xlink="http://www.w3.org/1999/xlink">
    <g id="Page-1" stroke="none" stroke-width="1" fill="none" fill-rule="evenodd">
        <g id="Icon-/-5-/-Black" transform="translate(-3.000000, -6.000000)" fill="#333333">
            <path d="M19.734375,6 C20.0859393,6 20.3847644,6.12304564 20.6308594,6.36914062 C20.8769544,6.61523561 21,6.91406074 21,7.265625 L21,18.1816406 C21,18.5214861 20.8769544,18.8173816 20.6308594,19.0693359 C20.3847644,19.3212903 20.0859393,19.4472656 19.734375,19.4472656 L4.265625,19.4472656 C3.91406074,19.4472656 3.61523561,19.3212903 3.36914062,19.0693359 C3.12304564,18.8173816 3,18.5214861 3,18.1816406 L3,7.265625 C3,6.91406074 3.12304564,6.61523561 3.36914062,6.36914062 C3.61523561,6.12304564 3.91406074,6 4.265625,6 L19.734375,6 Z M19.734375,18.1816406 L19.734375,11.0625 L4.265625,11.0625 L4.265625,18.1816406 L19.734375,18.1816406 Z M4.265625,9.375 L19.734375,9.375 L19.734375,7.265625 L4.265625,7.265625 L4.265625,9.375 Z M7.16601562,16.0898438 C6.95507707,16.0898438 6.77343826,16.0136726 6.62109375,15.8613281 C6.46874924,15.7089836 6.39257812,15.5273448 6.39257812,15.3164062 C6.39257812,15.1054677 6.46874924,14.9238289 6.62109375,14.7714844 C6.77343826,14.6191399 6.95507707,14.5429688 7.16601562,14.5429688 C7.37695418,14.5429688 7.55859299,14.6191399 7.7109375,14.7714844 C7.86328201,14.9238289 7.93945312,15.1054677 7.93945312,15.3164062 C7.93945312,15.5273448 7.86328201,15.7089836 7.7109375,15.8613281 C7.55859299,16.0136726 7.37695418,16.0898438 7.16601562,16.0898438 Z M10.1015625,16.0898438 C9.87890514,16.0898438 9.69433667,16.0136726 9.54785156,15.8613281 C9.40136646,15.7089836 9.328125,15.5273448 9.328125,15.3164062 C9.328125,15.1054677 9.40136646,14.9238289 9.54785156,14.7714844 C9.69433667,14.6191399 9.87890514,14.5429688 10.1015625,14.5429688 C10.3125011,14.5429688 10.4941399,14.6191399 10.6464844,14.7714844 C10.7988289,14.9238289 10.875,15.1054677 10.875,15.3164062 C10.875,15.5273448 10.7988289,15.7089836 10.6464844,15.8613281 C10.4941399,16.0136726 10.3125011,16.0898438 10.1015625,16.0898438 Z" id="billing"></path>
        </g>
    </g>
</svg>