<?xml version="1.0" encoding="UTF-8"?>
<svg width="24px" height="25px" viewBox="0 0 24 25" version="1.1" xmlns="http://www.w3.org/2000/svg" xmlns:xlink="http://www.w3.org/1999/xlink">
    <!-- Generator: Sketch 51.3 (57544) - http://www.bohemiancoding.com/sketch -->
    <title>bill</title>
    <desc>Created with Sketch.</desc>
    <defs></defs>
    <g id="Pages" stroke="none" stroke-width="1" fill="none" fill-rule="evenodd">
        <g id="Notes-/-Flash-card-/-1" transform="translate(-453.000000, -115.000000)" fill="#333333">
            <g id="Page-title" transform="translate(450.000000, 105.000000)">
                <g id="Icon-/-Nav-/-Settings-/-Active" transform="translate(0.000000, 7.000000)">
                    <g id="bill" transform="translate(3.000000, 3.000000)">
                        <path d="M16.0761719,10.1005859 C15.0182239,11.1748101 13.7324294,11.7119141 12.21875,11.7119141 C10.7050706,11.7119141 9.41520715,11.1748101 8.34912109,10.1005859 C7.28303503,9.02636182 6.75,7.73649841 6.75,6.23095703 C6.75,4.72541565 7.28303503,3.43555225 8.34912109,2.36132812 C9.41520715,1.287104 10.7050706,0.75 12.21875,0.75 C13.7324294,0.75 15.0222928,1.287104 16.0883789,2.36132812 C17.154465,3.43555225 17.6875,4.72541565 17.6875,6.23095703 C17.6875,7.73649841 17.150396,9.02636182 16.0761719,10.1005859 Z M14.8232422,8.87988281 C15.5556677,8.14745728 15.921875,7.26449084 15.921875,6.23095703 C15.921875,5.19742322 15.5597367,4.31852576 14.8354492,3.59423828 C14.1111617,2.86995081 13.2363333,2.5078125 12.2109375,2.5078125 C11.1855417,2.5078125 10.3107133,2.86995081 9.58642578,3.59423828 C8.86213831,4.31852576 8.5,5.19742322 8.5,6.23095703 C8.5,7.26449084 8.86213831,8.14338831 9.58642578,8.86767578 C10.3107133,9.59196326 11.1855417,9.95410156 12.2109375,9.95410156 C13.2363333,9.95410156 14.1070928,9.59603223 14.8232422,8.87988281 Z" id="user-add---anticon"></path>
                        <path d="M21.7159091,20.2038601 L21.7159091,12.6451393 L12.2850809,15.3493858 C12.2035967,15.372751 12.1214963,15.3837531 12.0407842,15.3835033 C11.9600721,15.3837531 11.8779717,15.372751 11.7964875,15.3493858 L2.25,12.6119745 L2.25,20.1706953 L12.0407842,22.9781575 L21.7159091,20.2038601 Z M23.1278376,21.1029482 C23.0731463,21.4242324 22.8403508,21.7019556 22.5061256,21.7977931 L12.2850809,24.7286305 C12.2035967,24.7519958 12.1214963,24.7629979 12.0407842,24.7627481 C11.9600721,24.7629979 11.8779717,24.7519958 11.7964875,24.7286305 L1.57544277,21.7977931 C1.32380132,21.7256361 1.12965763,21.5503729 1.0257368,21.3310412 C0.857438396,21.1935066 0.75,20.9843001 0.75,20.75 L0.75,11.5 C0.75,11.0857864 1.08578644,10.75 1.5,10.75 C1.51009522,10.75 1.52014385,10.7501995 1.53014218,10.7505946 C1.69461402,10.6934498 1.87771615,10.6846999 2.05780814,10.7363404 L12.0407842,13.5989127 L22.0237603,10.7363404 C22.2104755,10.6828007 22.4004264,10.694175 22.569496,10.7570953 C22.9346881,10.8075476 23.2159091,11.1209324 23.2159091,11.5 L23.2159091,20.75 C23.2159091,20.8775997 23.1840441,20.9977569 23.1278376,21.1029482 Z" id="Combined-Shape" fill-rule="nonzero"></path>
                    </g>
                </g>
            </g>
        </g>
    </g>
</svg>