<?xml version="1.0" encoding="UTF-8"?>
<svg width="12px" height="14px" viewBox="0 0 12 14" version="1.1" xmlns="http://www.w3.org/2000/svg" xmlns:xlink="http://www.w3.org/1999/xlink">
    <!-- Generator: Sketch 51.3 (57544) - http://www.bohemiancoding.com/sketch -->
    <title>book</title>
    <desc>Created with Sketch.</desc>
    <defs></defs>
    <g id="Symbols" stroke="none" stroke-width="1" fill="none" fill-rule="evenodd">
        <g id="Forum" transform="translate(-356.000000, -88.000000)" fill="#333333">
            <g id="Group" transform="translate(30.000000, 30.000000)">
                <g id="Stacked-Group" transform="translate(4.000000, 56.000000)">
                    <g id="Topic" transform="translate(319.000000, 0.000000)">
                        <g id="calendar">
                            <path d="M13.5410156,2.8125 C13.8339858,2.8125 14.0854482,2.91503804 14.2954102,3.12011719 C14.5053721,3.32519634 14.6103516,3.57421729 14.6103516,3.8671875 L14.6103516,14.8974609 C14.6103516,15.1806655 14.5053721,15.427245 14.2954102,15.637207 C14.0854482,15.847169 13.8388686,15.9521484 13.5556641,15.9521484 L4.48828125,15.9521484 C4.20507671,15.9521484 3.95849714,15.847169 3.74853516,15.637207 C3.53857317,15.427245 3.43359375,15.1806655 3.43359375,14.8974609 L3.43359375,3.8671875 C3.43359375,3.57421729 3.53857317,3.32519634 3.74853516,3.12011719 C3.95849714,2.91503804 4.20507671,2.8125 4.48828125,2.8125 L13.5410156,2.8125 Z M8.69238281,3.8671875 L6.91992188,3.8671875 L6.91992188,6.95800781 L7.56445312,6.31347656 C7.63281284,6.24511685 7.71581982,6.2109375 7.81347656,6.2109375 C7.9111333,6.2109375 7.99902305,6.24511685 8.07714844,6.31347656 L8.56054688,6.81152344 L8.69238281,6.92871094 L8.69238281,3.8671875 Z M5.86523438,3.8671875 L4.50292969,3.8671875 L4.50292969,13.0078125 L13.5556641,13.0078125 L13.5556641,3.8671875 L9.74707031,3.8671875 L9.74707031,7.92480469 C9.74707031,8.07128979 9.69580129,8.19335889 9.59326172,8.29101562 C9.49072214,8.38867236 9.36621167,8.4375 9.21972656,8.4375 L9.20507812,8.4375 C8.86327954,8.42773433 8.57031372,8.30078247 8.32617188,8.05664062 L7.81347656,7.55859375 L7.30078125,8.07128906 C7.04687373,8.31543091 6.73925962,8.4375 6.37792969,8.4375 C6.23144458,8.4375 6.10937549,8.38867236 6.01171875,8.29101562 C5.91406201,8.19335889 5.86523438,8.07128979 5.86523438,7.92480469 L5.86523438,3.8671875 Z M4.48828125,14.8974609 L13.5410156,14.8974609 L13.5410156,14.0625 L4.48828125,14.0625 L4.48828125,14.8974609 Z" id="book"></path>
                        </g>
                    </g>
                </g>
            </g>
        </g>
    </g>
</svg>