<?xml version="1.0" encoding="UTF-8"?>
<svg width="20px" height="20px" viewBox="0 0 20 20" version="1.1" xmlns="http://www.w3.org/2000/svg" xmlns:xlink="http://www.w3.org/1999/xlink">
    <!-- Generator: Sketch 52.3 (67297) - http://www.bohemiancoding.com/sketch -->
    <title>browse</title>
    <desc>Created with Sketch.</desc>
    <g id="Symbols" stroke="none" stroke-width="1" fill="none" fill-rule="evenodd">
        <g id="Left-Navigation-/-Main" transform="translate(-22.000000, -127.000000)" fill="#333333">
            <g id="Browse" transform="translate(0.000000, 110.000000)">
                <g id="Icon" transform="translate(20.000000, 15.000000)">
                    <path d="M12.1757812,9.5 L16.4140625,7.5859375 L14.5,11.8242188 C14.5520836,12.5794309 14.3079454,13.2272108 13.7675781,13.7675781 C13.2272108,14.3079454 12.5794309,14.5520836 11.8242188,14.5 L7.5859375,16.4140625 L9.5,12.1757812 C9.44791641,11.4205691 9.69205459,10.7727892 10.2324219,10.2324219 C10.7727892,9.69205459 11.4205691,9.44791641 12.1757812,9.5 Z M13.09375,12 C13.09375,11.7005193 12.9863292,11.4433604 12.7714844,11.2285156 C12.5566396,11.0136708 12.2994807,10.90625 12,10.90625 C11.7005193,10.90625 11.4433604,11.0136708 11.2285156,11.2285156 C11.0136708,11.4433604 10.90625,11.7005193 10.90625,12 C10.90625,12.2994807 11.0136708,12.5566396 11.2285156,12.7714844 C11.4433604,12.9863292 11.7005193,13.09375 12,13.09375 C12.2994807,13.09375 12.5566396,12.9863292 12.7714844,12.7714844 C12.9863292,12.5566396 13.09375,12.2994807 13.09375,12 Z M17.0195312,3.34765625 C18.5559973,4.23307734 19.7701778,5.44400273 20.6621094,6.98046875 C21.5540409,8.51693477 22,10.1900951 22,12 C22,13.8099049 21.5540409,15.4830652 20.6621094,17.0195312 C19.7701778,18.5559973 18.5559973,19.7701778 17.0195312,20.6621094 C15.4830652,21.5540409 13.8099049,22 12,22 C10.1900951,22 8.51693477,21.5540409 6.98046875,20.6621094 C5.44400273,19.7701778 4.22982217,18.5559973 3.33789062,17.0195312 C2.44595908,15.4830652 2,13.8099049 2,12 C2,10.1900951 2.44595908,8.51693477 3.33789062,6.98046875 C4.22982217,5.44400273 5.44400273,4.22982217 6.98046875,3.33789062 C8.51693477,2.44595908 10.1900951,2 12,2 C13.8099049,2 15.4830652,2.44921426 17.0195312,3.34765625 Z M18.0742188,18.0742188 C19.7539146,16.3945229 20.59375,14.3698035 20.59375,12 C20.59375,9.63019648 19.7539146,7.60547715 18.0742188,5.92578125 C16.3945229,4.24608535 14.3698035,3.40625 12,3.40625 C9.63019648,3.40625 7.60547715,4.24608535 5.92578125,5.92578125 C4.24608535,7.60547715 3.40625,9.63019648 3.40625,12 C3.40625,14.3698035 4.24608535,16.3945229 5.92578125,18.0742188 C7.60547715,19.7539146 9.63019648,20.59375 12,20.59375 C14.3698035,20.59375 16.3945229,19.7539146 18.0742188,18.0742188 Z" id="browse"></path>
                </g>
            </g>
        </g>
    </g>
</svg>