<?xml version="1.0" encoding="UTF-8"?>
<svg width="18px" height="19px" viewBox="0 0 18 19" version="1.1" xmlns="http://www.w3.org/2000/svg" xmlns:xlink="http://www.w3.org/1999/xlink">
    <!-- Generator: Sketch 51.3 (57544) - http://www.bohemiancoding.com/sketch -->
    <title>calendar</title>
    <desc>Created with Sketch.</desc>
    <defs></defs>
    <g id="Pages" stroke="none" stroke-width="1" fill="none" fill-rule="evenodd">
        <g id="Schedule-/-1" transform="translate(-1046.000000, -123.000000)" fill="#000000">
            <g id="Page-title" transform="translate(450.000000, 110.000000)">
                <g id="Icon-/-Calendar" transform="translate(593.000000, 10.000000)">
                    <path d="M19.34375,5 C19.734377,5 20.0664049,5.13671738 20.3398438,5.41015625 C20.6132826,5.68359512 20.75,6.01562305 20.75,6.40625 L20.75,19.84375 C20.75,20.234377 20.6132826,20.5664049 20.3398438,20.8398438 C20.0664049,21.1132826 19.734377,21.25 19.34375,21.25 L4.65625,21.25 C4.26562305,21.25 3.93359512,21.1132826 3.66015625,20.8398438 C3.38671738,20.5664049 3.25,20.234377 3.25,19.84375 L3.25,6.40625 C3.25,6.01562305 3.38671738,5.68359512 3.66015625,5.41015625 C3.93359512,5.13671738 4.26562305,5 4.65625,5 L7,5 L7,4.453125 C7,4.25781152 7.06835869,4.09179756 7.20507812,3.95507812 C7.34179756,3.81835869 7.50781152,3.75 7.703125,3.75 C7.89843848,3.75 8.06445244,3.81835869 8.20117188,3.95507812 C8.33789131,4.09179756 8.40625,4.25781152 8.40625,4.453125 L8.40625,5 L15.59375,5 L15.59375,4.453125 C15.59375,4.25781152 15.6621087,4.09179756 15.7988281,3.95507812 C15.9355476,3.81835869 16.1015615,3.75 16.296875,3.75 C16.4921885,3.75 16.6582024,3.81835869 16.7949219,3.95507812 C16.9316413,4.09179756 17,4.25781152 17,4.453125 L17,5 L19.34375,5 Z M4.65625,6.40625 L4.65625,8.59375 L19.34375,8.59375 L19.34375,6.40625 L17,6.40625 L17,6.796875 C17,6.99218848 16.9316413,7.15820244 16.7949219,7.29492188 C16.6582024,7.43164131 16.4921885,7.5 16.296875,7.5 C16.1015615,7.5 15.9355476,7.43164131 15.7988281,7.29492188 C15.6621087,7.15820244 15.59375,6.99218848 15.59375,6.796875 L15.59375,6.40625 L8.40625,6.40625 L8.40625,6.796875 C8.40625,6.99218848 8.33789131,7.15820244 8.20117188,7.29492188 C8.06445244,7.43164131 7.89843848,7.5 7.703125,7.5 C7.50781152,7.5 7.34179756,7.43164131 7.20507812,7.29492188 C7.06835869,7.15820244 7,6.99218848 7,6.796875 L7,6.40625 L4.65625,6.40625 Z M19.34375,19.84375 L19.34375,10 L4.65625,10 L4.65625,19.84375 L19.34375,19.84375 Z M7.625,12.5 L8.875,12.5 C9.04427168,12.5 9.19075459,12.5618483 9.31445312,12.6855469 C9.43815166,12.8092454 9.5,12.9557283 9.5,13.125 C9.5,13.2942717 9.43815166,13.4407546 9.31445312,13.5644531 C9.19075459,13.6881517 9.04427168,13.75 8.875,13.75 L7.625,13.75 C7.45572832,13.75 7.30924541,13.6881517 7.18554688,13.5644531 C7.06184834,13.4407546 7,13.2942717 7,13.125 C7,12.9557283 7.06184834,12.8092454 7.18554688,12.6855469 C7.30924541,12.5618483 7.45572832,12.5 7.625,12.5 Z M11.375,12.5 L12.625,12.5 C12.7942717,12.5 12.9407546,12.5618483 13.0644531,12.6855469 C13.1881517,12.8092454 13.25,12.9557283 13.25,13.125 C13.25,13.2942717 13.1881517,13.4407546 13.0644531,13.5644531 C12.9407546,13.6881517 12.7942717,13.75 12.625,13.75 L11.375,13.75 C11.2057283,13.75 11.0592454,13.6881517 10.9355469,13.5644531 C10.8118483,13.4407546 10.75,13.2942717 10.75,13.125 C10.75,12.9557283 10.8118483,12.8092454 10.9355469,12.6855469 C11.0592454,12.5618483 11.2057283,12.5 11.375,12.5 Z M15.125,12.5 L16.375,12.5 C16.5442717,12.5 16.6907546,12.5618483 16.8144531,12.6855469 C16.9381517,12.8092454 17,12.9557283 17,13.125 C17,13.2942717 16.9381517,13.4407546 16.8144531,13.5644531 C16.6907546,13.6881517 16.5442717,13.75 16.375,13.75 L15.125,13.75 C14.9557283,13.75 14.8092454,13.6881517 14.6855469,13.5644531 C14.5618483,13.4407546 14.5,13.2942717 14.5,13.125 C14.5,12.9557283 14.5618483,12.8092454 14.6855469,12.6855469 C14.8092454,12.5618483 14.9557283,12.5 15.125,12.5 Z M7.625,16.2890625 L8.875,16.2890625 C9.04427168,16.2890625 9.19075459,16.3509108 9.31445312,16.4746094 C9.43815166,16.5983079 9.5,16.7447908 9.5,16.9140625 C9.5,17.0833342 9.43815166,17.2298171 9.31445312,17.3535156 C9.19075459,17.4772142 9.04427168,17.5390625 8.875,17.5390625 L7.625,17.5390625 C7.45572832,17.5390625 7.30924541,17.4772142 7.18554688,17.3535156 C7.06184834,17.2298171 7,17.0833342 7,16.9140625 C7,16.7447908 7.06184834,16.5983079 7.18554688,16.4746094 C7.30924541,16.3509108 7.45572832,16.2890625 7.625,16.2890625 Z M11.375,16.2890625 L12.625,16.2890625 C12.7942717,16.2890625 12.9407546,16.3509108 13.0644531,16.4746094 C13.1881517,16.5983079 13.25,16.7447908 13.25,16.9140625 C13.25,17.0833342 13.1881517,17.2298171 13.0644531,17.3535156 C12.9407546,17.4772142 12.7942717,17.5390625 12.625,17.5390625 L11.375,17.5390625 C11.2057283,17.5390625 11.0592454,17.4772142 10.9355469,17.3535156 C10.8118483,17.2298171 10.75,17.0833342 10.75,16.9140625 C10.75,16.7447908 10.8118483,16.5983079 10.9355469,16.4746094 C11.0592454,16.3509108 11.2057283,16.2890625 11.375,16.2890625 Z" id="calendar"></path>
                </g>
            </g>
        </g>
    </g>
</svg>