<?xml version="1.0" encoding="UTF-8"?>
<svg width="20px" height="17px" viewBox="0 0 20 17" version="1.1" xmlns="http://www.w3.org/2000/svg" xmlns:xlink="http://www.w3.org/1999/xlink">
    <!-- Generator: Sketch 52.3 (67297) - http://www.bohemiancoding.com/sketch -->
    <title>courses</title>
    <desc>Created with Sketch.</desc>
    <g id="Symbols" stroke="none" stroke-width="1" fill="none" fill-rule="evenodd">
        <g id="Left-Navigation-/-Classes" transform="translate(-22.000000, -310.000000)" fill="#333333">
            <g id="Class-1" transform="translate(0.000000, 292.000000)">
                <g id="Icon" transform="translate(20.000000, 15.000000)">
                    <path d="M20.7695313,10 C21.1862,10.0520836 21.5182279,10.2539045 21.765625,10.6054688 C22.0130221,10.957033 22.0846359,11.3346334 21.9804688,11.7382812 L20.1835938,18.9257812 C20.1054684,19.2382828 19.9394544,19.4954417 19.6855469,19.6972656 C19.4316394,19.8990896 19.1419287,20 18.8164063,20 L3.2890625,20 L3.26953125,19.9804688 C3.04817598,19.9674479 2.83984473,19.895834 2.64453125,19.765625 L2.61523438,19.7363281 C2.60872393,19.7298177 2.5989584,19.7265625 2.5859375,19.7265625 L2.5859375,19.7070312 C2.5729166,19.7070312 2.56315107,19.7037761 2.55664062,19.6972656 C2.55013018,19.6907552 2.54361982,19.6875 2.53710938,19.6875 C2.53059893,19.6875 2.52734375,19.6842448 2.52734375,19.6777344 C2.52734375,19.6712239 2.5208334,19.6679688 2.5078125,19.6679688 C2.5078125,19.6549479 2.50455732,19.6451823 2.49804688,19.6386719 L2.47851562,19.6191406 C2.47200518,19.6126302 2.46223965,19.609375 2.44921875,19.609375 C2.27994707,19.4531242 2.16276074,19.264324 2.09765625,19.0429688 C2.08463535,19.0299479 2.078125,19.0104168 2.078125,18.984375 L2.078125,18.9648438 L2.06835938,18.9550781 C2.06184893,18.9485677 2.05859375,18.9420573 2.05859375,18.9355469 L2.05859375,18.8867188 L2.0390625,18.8671875 L2.0390625,18.8085938 C2.0260416,18.7304684 2.01953125,18.6588545 2.01953125,18.59375 L2.01953125,5.15625 C2.01953125,4.76562305 2.15624863,4.43359512 2.4296875,4.16015625 C2.70312637,3.88671738 3.0351543,3.75 3.42578125,3.75 L9.734375,3.75 C10.0468766,3.75 10.3268217,3.84114492 10.5742188,4.0234375 C10.8216158,4.20573008 10.990885,4.44010273 11.0820313,4.7265625 L11.5703125,6.25 L19.3632813,6.25 C19.7539082,6.25 20.0859361,6.38671738 20.359375,6.66015625 C20.6328139,6.93359512 20.7695313,7.26562305 20.7695313,7.65625 L20.7695313,10 Z M3.42578125,5.15625 L3.42578125,12.7929688 L3.85546875,11.0546875 C3.93359414,10.7421859 4.09960811,10.4882822 4.35351562,10.2929688 C4.60742314,10.0976553 4.89713379,10 5.22265625,10 L19.3632812,10 L19.3632812,7.65625 L10.5351562,7.65625 L9.734375,5.15625 L3.42578125,5.15625 Z M18.8164062,18.59375 L20.6132812,11.40625 L5.22265625,11.40625 L3.42578125,18.59375 L18.8164062,18.59375 Z" id="courses"></path>
                </g>
            </g>
        </g>
    </g>
</svg>