<?xml version="1.0" encoding="UTF-8"?>
<svg width="8px" height="16px" viewBox="0 0 8 16" version="1.1" xmlns="http://www.w3.org/2000/svg" xmlns:xlink="http://www.w3.org/1999/xlink">
    <!-- Generator: Sketch 52.3 (67297) - http://www.bohemiancoding.com/sketch -->
    <title>drag</title>
    <desc>Created with Sketch.</desc>
    <g id="Pages" stroke="none" stroke-width="1" fill="none" fill-rule="evenodd">
        <g id="Notes-/-Main-/-Sort-by-/-Custom" transform="translate(-414.000000, -352.000000)" fill="#333333">
            <g id="Icon-/-Drag-/-Active" transform="translate(406.000000, 348.000000)">
                <g id="Group" transform="translate(12.000000, 12.000000) rotate(90.000000) translate(-12.000000, -12.000000) translate(4.000000, 8.000000)">
                    <path d="M0.421875,0.4453125 C0.718751484,0.148436016 1.07812289,0 1.5,0 C1.92187711,0 2.2773423,0.144529805 2.56640625,0.43359375 C2.8554702,0.722657695 3,1.07812289 3,1.5 C3,1.92187711 2.8554702,2.2773423 2.56640625,2.56640625 C2.2773423,2.8554702 1.92187711,3 1.5,3 C1.07812289,3 0.722657695,2.8554702 0.43359375,2.56640625 C0.144529805,2.2773423 0,1.92187711 0,1.5 C0,1.07812289 0.140623594,0.726563906 0.421875,0.4453125 Z M6.671875,0.4453125 C6.96875148,0.148436016 7.32812289,0 7.75,0 C8.17187711,0 8.5273423,0.144529805 8.81640625,0.43359375 C9.1054702,0.722657695 9.25,1.07812289 9.25,1.5 C9.25,1.92187711 9.1054702,2.2773423 8.81640625,2.56640625 C8.5273423,2.8554702 8.17187711,3 7.75,3 C7.32812289,3 6.9726577,2.8554702 6.68359375,2.56640625 C6.3945298,2.2773423 6.25,1.92187711 6.25,1.5 C6.25,1.07812289 6.39062359,0.726563906 6.671875,0.4453125 Z M12.921875,0.4453125 C13.2187515,0.148436016 13.5781229,0 14,0 C14.4218771,0 14.7773423,0.144529805 15.0664062,0.43359375 C15.3554702,0.722657695 15.5,1.07812289 15.5,1.5 C15.5,1.92187711 15.3554702,2.2773423 15.0664062,2.56640625 C14.7773423,2.8554702 14.4218771,3 14,3 C13.5781229,3 13.2226577,2.8554702 12.9335938,2.56640625 C12.6445298,2.2773423 12.5,1.92187711 12.5,1.5 C12.5,1.07812289 12.6406236,0.726563906 12.921875,0.4453125 Z M0.421875,5.4453125 C0.718751484,5.14843602 1.07812289,5 1.5,5 C1.92187711,5 2.2773423,5.1445298 2.56640625,5.43359375 C2.8554702,5.7226577 3,6.07812289 3,6.5 C3,6.92187711 2.8554702,7.2773423 2.56640625,7.56640625 C2.2773423,7.8554702 1.92187711,8 1.5,8 C1.07812289,8 0.722657695,7.8554702 0.43359375,7.56640625 C0.144529805,7.2773423 0,6.92187711 0,6.5 C0,6.07812289 0.140623594,5.72656391 0.421875,5.4453125 Z M6.671875,5.4453125 C6.96875148,5.14843602 7.32812289,5 7.75,5 C8.17187711,5 8.5273423,5.1445298 8.81640625,5.43359375 C9.1054702,5.7226577 9.25,6.07812289 9.25,6.5 C9.25,6.92187711 9.1054702,7.2773423 8.81640625,7.56640625 C8.5273423,7.8554702 8.17187711,8 7.75,8 C7.32812289,8 6.9726577,7.8554702 6.68359375,7.56640625 C6.3945298,7.2773423 6.25,6.92187711 6.25,6.5 C6.25,6.07812289 6.39062359,5.72656391 6.671875,5.4453125 Z M12.921875,5.4453125 C13.2187515,5.14843602 13.5781229,5 14,5 C14.4218771,5 14.7773423,5.1445298 15.0664062,5.43359375 C15.3554702,5.7226577 15.5,6.07812289 15.5,6.5 C15.5,6.92187711 15.3554702,7.2773423 15.0664062,7.56640625 C14.7773423,7.8554702 14.4218771,8 14,8 C13.5781229,8 13.2226577,7.8554702 12.9335938,7.56640625 C12.6445298,7.2773423 12.5,6.92187711 12.5,6.5 C12.5,6.07812289 12.6406236,5.72656391 12.921875,5.4453125 Z" id="drag"></path>
                </g>
            </g>
        </g>
    </g>
</svg>