<?xml version="1.0" encoding="UTF-8"?>
<svg width="14px" height="13px" viewBox="0 0 14 13" version="1.1" xmlns="http://www.w3.org/2000/svg" xmlns:xlink="http://www.w3.org/1999/xlink">
    <!-- Generator: Sketch 51.3 (57544) - http://www.bohemiancoding.com/sketch -->
    <title>export</title>
    <desc>Created with Sketch.</desc>
    <defs></defs>
    <g id="Pages" stroke="none" stroke-width="1" fill="none" fill-rule="evenodd">
        <g id="Forum-/-Topic-name-2-/-4" transform="translate(-734.000000, -835.000000)" fill="#333333">
            <g id="2" transform="translate(450.000000, 727.000000)">
                <g id="Group-Copy" transform="translate(30.000000, 30.000000)">
                    <g id="Stacked-Group" transform="translate(58.000000, 73.000000)">
                        <g id="Day-Copy" transform="translate(194.000000, 0.000000)">
                            <g id="Icon-/-Calendar" transform="translate(0.000000, 3.000000)">
                                <path d="M14.0542665,10.012958 C14.1682915,10.1166171 14.2253032,10.2461892 14.2253032,10.4016779 L14.2253032,13.5736326 C14.2253032,13.9571715 14.0879569,14.2862844 13.8132601,14.5609812 C13.5385633,14.835678 13.2094504,14.9730243 12.8259115,14.9730243 L4.00974333,14.9730243 C3.62620441,14.9730243 3.29709149,14.835678 3.02239469,14.5609812 C2.7476979,14.2862844 2.61035156,13.9571715 2.61035156,13.5736326 L2.61035156,4.4464885 C2.61035156,4.05258366 2.7476979,3.7208793 3.02239469,3.45136546 C3.29709149,3.18185162 3.62620441,3.04709673 4.00974333,3.04709673 L7.95913787,3.04709673 C8.11462663,3.04709673 8.24679008,3.10151697 8.35563221,3.2103591 C8.46447433,3.31920123 8.51889458,3.44877324 8.51889458,3.59907904 C8.51889458,3.74938483 8.46447433,3.87895685 8.35563221,3.98779897 C8.24679008,4.0966411 8.11462663,4.15106134 7.95913787,4.15106134 L4.00974333,4.15106134 C3.926816,4.15106134 3.85684711,4.17956719 3.79983457,4.23657973 C3.74282202,4.29359227 3.71431618,4.36356116 3.71431618,4.4464885 L3.71431618,13.5736326 C3.71431618,13.6565599 3.74282202,13.7239374 3.79983457,13.7757669 C3.85684711,13.8275965 3.926816,13.8535109 4.00974333,13.8535109 L12.8259115,13.8535109 C12.8984729,13.8535109 12.9632589,13.8275965 13.0202714,13.7757669 C13.077284,13.7239374 13.1057898,13.6565599 13.1057898,13.5736326 L13.1057898,10.4016779 C13.1057898,10.2461892 13.1602101,10.1140257 13.2690522,10.0051836 C13.3778943,9.89634145 13.5100578,9.8419212 13.6655465,9.8419212 C13.8210353,9.8419212 13.9506073,9.89893289 14.0542665,10.012958 Z M7.85029629,6.57667374 C8.70030147,5.30166598 9.91309554,4.59679421 11.4887149,4.46203729 L11.4887149,3.04709673 C11.4887149,2.80868064 11.6027383,2.64023702 11.8307884,2.54176081 C12.0588386,2.4432846 12.2609709,2.47697333 12.4371915,2.642828 L15.391463,5.45716033 C15.5054881,5.57118541 15.5624998,5.71630607 15.5624998,5.89252666 C15.5521339,6.04801541 15.4847564,6.1827703 15.3603654,6.29679539 L12.4060939,8.75350538 C12.3024348,8.83643271 12.1832285,8.87789576 12.0484716,8.87789576 C11.9655443,8.87789576 11.8878011,8.86234712 11.8152396,8.83124937 C11.5975554,8.7275902 11.4887149,8.56173802 11.4887149,8.33368785 L11.4887149,6.60777134 C11.4887149,6.45228259 11.5431351,6.32011913 11.6519773,6.211277 C11.7608194,6.10243488 11.8929828,6.04801463 12.0484716,6.04801463 C12.2039603,6.04801463 12.3361238,6.10243488 12.4449659,6.211277 C12.5538081,6.32011913 12.6082283,6.45228259 12.6082283,6.60777134 L12.6082283,7.13643045 L14.1786568,5.83033147 L12.6082283,4.35319571 L12.6082283,5.0062452 C12.6082283,5.16173395 12.5538081,5.29389741 12.4449659,5.40273954 C12.3361238,5.51158166 12.2039603,5.56600191 12.0484716,5.56600191 C12.0484716,5.56600191 12.032923,5.56081903 12.0018252,5.55045311 C10.5920605,5.56081903 9.52438711,6.09983862 8.79877294,7.16752804 C8.63291827,7.40594413 8.49298049,7.6676796 8.3789554,7.95274231 C8.26493032,8.23780502 8.19236999,8.44512025 8.16127224,8.57469421 C8.13017449,8.70426817 8.11462585,8.79496858 8.11462585,8.84679817 C8.09389402,8.98155508 8.02910801,9.09557846 7.92026588,9.18887171 C7.81142375,9.28216496 7.68962606,9.32881089 7.55486914,9.32881089 C7.52377139,9.32881089 7.49785699,9.323628 7.47712515,9.31326209 C7.33200232,9.29253025 7.21279606,9.22256137 7.11950281,9.10335332 C7.02620956,8.98414528 6.9899294,8.84679894 7.01066123,8.69131019 C7.10395448,7.98642785 7.38383004,7.28155608 7.85029629,6.57667374 Z" id="export"></path>
                            </g>
                        </g>
                    </g>
                </g>
            </g>
        </g>
    </g>
</svg>