<?xml version="1.0" encoding="UTF-8"?>
<svg width="18px" height="18px" viewBox="0 0 18 18" version="1.1" xmlns="http://www.w3.org/2000/svg" xmlns:xlink="http://www.w3.org/1999/xlink">
    <!-- Generator: Sketch 52.3 (67297) - http://www.bohemiancoding.com/sketch -->
    <title>export-2</title>
    <desc>Created with Sketch.</desc>
    <g id="Pages" stroke="none" stroke-width="1" fill="none" fill-rule="evenodd">
        <g id="Search" transform="translate(-1108.000000, -621.000000)" fill="#333333">
            <g id="NAv-Copy-3" transform="translate(1085.000000, 603.000000)">
                <g id="Icon" transform="translate(20.000000, 15.000000)">
                    <path d="M11.3007812,3.1953125 C11.4309902,3.06510352 11.5872387,3 11.7695312,3 C11.9518238,3 12.1080723,3.06510352 12.2382812,3.1953125 L15.2851562,6.2421875 C15.4153652,6.37239648 15.4804688,6.5319001 15.4804688,6.72070312 C15.4804688,6.90950615 15.4153652,7.06900977 15.2851562,7.19921875 C15.1549473,7.32942773 14.9986988,7.39453125 14.8164062,7.39453125 C14.6341137,7.39453125 14.4713549,7.32942773 14.328125,7.19921875 L12.453125,5.3046875 L12.453125,16.59375 C12.453125,16.7760426 12.3847663,16.932291 12.2480469,17.0625 C12.1113274,17.192709 11.9518238,17.2578125 11.7695312,17.2578125 C11.5872387,17.2578125 11.4277351,17.192709 11.2910156,17.0625 C11.1542962,16.932291 11.0859375,16.7760426 11.0859375,16.59375 L11.0859375,5.3046875 L9.19140625,7.19921875 C9.06119727,7.32942773 8.90494883,7.39453125 8.72265625,7.39453125 C8.54036367,7.39453125 8.38411523,7.32942773 8.25390625,7.19921875 C8.12369727,7.06900977 8.05859375,6.90950615 8.05859375,6.72070312 C8.05859375,6.5319001 8.12369727,6.37239648 8.25390625,6.2421875 L11.3007812,3.1953125 Z M20.3046875,14.4648438 C20.4348965,14.5950527 20.5,14.7513012 20.5,14.9335938 L20.5,19.2890625 C20.5,19.614585 20.3828137,19.8977853 20.1484375,20.1386719 C19.9140613,20.3795585 19.6276059,20.5 19.2890625,20.5 L4.2109375,20.5 C3.87239414,20.5 3.58593867,20.3828137 3.3515625,20.1484375 C3.11718633,19.9140613 3,19.6276059 3,19.2890625 L3,14.9335938 C3,14.7513012 3.06510352,14.5917976 3.1953125,14.4550781 C3.32552148,14.3183587 3.4850251,14.25 3.67382812,14.25 C3.86263115,14.25 4.02213477,14.3183587 4.15234375,14.4550781 C4.28255273,14.5917976 4.34765625,14.7513012 4.34765625,14.9335938 L4.34765625,18.7421875 C4.34765625,18.8593756 4.38671836,18.9570309 4.46484375,19.0351562 C4.54296914,19.1132816 4.64062441,19.1523438 4.7578125,19.1523438 L18.7421875,19.1523438 C18.8593756,19.1523438 18.9570309,19.1132816 19.0351562,19.0351562 C19.1132816,18.9570309 19.1523438,18.8593756 19.1523438,18.7421875 L19.1523438,14.9335938 C19.1523438,14.7513012 19.2174473,14.5917976 19.3476562,14.4550781 C19.4778652,14.3183587 19.6373688,14.25 19.8261719,14.25 C20.0149749,14.25 20.1744785,14.3216139 20.3046875,14.4648438 Z" id="export-2"></path>
                </g>
            </g>
        </g>
    </g>
</svg>