<?xml version="1.0" encoding="UTF-8"?>
<svg width="18px" height="13px" viewBox="0 0 18 13" version="1.1" xmlns="http://www.w3.org/2000/svg" xmlns:xlink="http://www.w3.org/1999/xlink">
    <!-- Generator: Sketch 51.3 (57544) - http://www.bohemiancoding.com/sketch -->
    <title>eye</title>
    <desc>Created with Sketch.</desc>
    <defs></defs>
    <g id="Pages" stroke="none" stroke-width="1" fill="none" fill-rule="evenodd">
        <g id="Forum-/-Topic-name-2-/-4" transform="translate(-1111.000000, -133.000000)" fill="#FFFFFF">
            <g id="Follow" transform="translate(1020.000000, 112.000000)">
                <g id="Icon-/-Notification-Copy-2" transform="translate(88.000000, 15.000000)">
                    <path d="M20.6171875,12.5039062 C20.6171875,12.6861988 20.4869805,13.0898406 20.2265625,13.7148438 C19.8749982,14.5612021 19.4713564,15.2708305 19.015625,15.84375 C18.2604129,16.7682338 17.355474,17.4973932 16.3007812,18.03125 C14.9986914,18.6822949 13.5013105,19.0078125 11.8085938,19.0078125 C10.115877,19.0078125 8.61849609,18.6822949 7.31640625,18.03125 C6.24869258,17.4973932 5.34375371,16.7682338 4.6015625,15.84375 C4.15885195,15.2838514 3.76172051,14.574223 3.41015625,13.7148438 C3.13671738,13.0898406 3,12.6861988 3,12.5039062 C3,12.3216137 3.13671738,11.9179719 3.41015625,11.2929688 C3.76172051,10.4335895 4.15885195,9.72396113 4.6015625,9.1640625 C5.35677461,8.23957871 6.25520312,7.51041934 7.296875,6.9765625 C8.59896484,6.32551758 10.1028561,6 11.8085938,6 C13.5143314,6 15.0117123,6.32551758 16.3007812,6.9765625 C17.3684949,7.51041934 18.2734338,8.23957871 19.015625,9.1640625 C19.4713564,9.73698203 19.8684879,10.4466104 20.2070312,11.2929688 C20.4804701,11.9179719 20.6171875,12.3216137 20.6171875,12.5039062 Z M19.171875,12.5039062 C18.8463525,11.5012971 18.4231797,10.6809928 17.9023438,10.0429688 C17.2903615,9.26171484 16.5481814,8.65625215 15.6757812,8.2265625 C14.5820258,7.66666387 13.2929762,7.38671875 11.8085938,7.38671875 C10.3242113,7.38671875 9.02865137,7.66666387 7.921875,8.2265625 C7.0494748,8.66927305 6.30729473,9.27473574 5.6953125,10.0429688 C5.17447656,10.6809928 4.75130371,11.5012971 4.42578125,12.5039062 C4.75130371,13.5065154 5.17447656,14.3268197 5.6953125,14.9648438 C6.30729473,15.7330768 7.0494748,16.3385395 7.921875,16.78125 C9.02865137,17.3281277 10.3209562,17.6015625 11.7988281,17.6015625 C13.2767001,17.6015625 14.5690049,17.3281277 15.6757812,16.78125 C16.5612023,16.3385395 17.3033824,15.7330768 17.9023438,14.9648438 L17.921875,14.9648438 C18.42969,14.3268197 18.8463525,13.5065154 19.171875,12.5039062 Z M14.1914062,10.1015625 C14.8554721,10.7526074 15.1875,11.5468703 15.1875,12.484375 C15.1875,13.4218797 14.8587272,14.2193978 14.2011719,14.8769531 C13.5436165,15.5345085 12.7460984,15.8632812 11.8085938,15.8632812 C10.8710891,15.8632812 10.073571,15.5345085 9.41601562,14.8769531 C8.75846025,14.2193978 8.4296875,13.4218797 8.4296875,12.484375 C8.4296875,11.5468703 8.75846025,10.7493522 9.41601562,10.0917969 C10.073571,9.4342415 10.8710891,9.10546875 11.8085938,9.10546875 C12.7460984,9.10546875 13.5403613,9.43749668 14.1914062,10.1015625 Z M13.2148438,11.078125 C12.8242168,10.687498 12.3554715,10.4921875 11.8085938,10.4921875 C11.261716,10.4921875 10.7929707,10.687498 10.4023438,11.078125 C10.0117168,11.468752 9.81640625,11.9374973 9.81640625,12.484375 C9.81640625,13.0312527 10.0117168,13.499998 10.4023438,13.890625 C10.7929707,14.281252 11.261716,14.4765625 11.8085938,14.4765625 C12.3554715,14.4765625 12.8242168,14.281252 13.2148438,13.890625 C13.6054707,13.499998 13.8007812,13.0312527 13.8007812,12.484375 C13.8007812,11.9374973 13.6054707,11.468752 13.2148438,11.078125 Z" id="eye"></path>
                </g>
            </g>
        </g>
    </g>
</svg>