<?xml version="1.0" encoding="UTF-8"?>
<svg width="20px" height="22px" viewBox="0 0 20 22" version="1.1" xmlns="http://www.w3.org/2000/svg" xmlns:xlink="http://www.w3.org/1999/xlink">
    <!-- Generator: Sketch 51.3 (57544) - http://www.bohemiancoding.com/sketch -->
    <title>filter</title>
    <desc>Created with Sketch.</desc>
    <defs></defs>
    <g id="Pages" stroke="none" stroke-width="1" fill="none" fill-rule="evenodd">
        <g id="Search" transform="translate(-1203.000000, -116.000000)" fill="#333333">
            <g id="Result" transform="translate(450.000000, 112.000000)">
                <g id="Icon-/-Filter" transform="translate(748.000000, 0.000000)">
                    <path d="M24.3505859,7.36816406 C24.2692053,7.75879102 24.0820327,8.10058447 23.7890625,8.39355469 L17.734375,14.765625 L17.734375,24.3603516 C17.734375,24.7672546 17.5472024,25.0439446 17.1728516,25.1904297 C17.0589187,25.2229819 16.9531255,25.2392578 16.8554687,25.2392578 C16.5950508,25.2392578 16.3834644,25.1497405 16.2207031,24.9707031 L13.1689453,21.8212891 C12.989908,21.6585278 12.9003906,21.4550793 12.9003906,21.2109375 L12.9003906,14.8144531 L6.23535156,8.39355469 C5.95865747,8.10058447 5.7796228,7.75472205 5.69824219,7.35595703 C5.61686157,6.95719202 5.6534823,6.56657092 5.80810547,6.18408203 C5.96272864,5.80159314 6.21093579,5.50048938 6.55273438,5.28076172 C6.89453296,5.06103406 7.26887817,4.95117188 7.67578125,4.95117188 L22.3730469,4.95117188 C22.77995,4.95117188 23.1542952,5.06103406 23.4960937,5.28076172 C23.8378923,5.50048938 24.0860995,5.80159314 24.2407227,6.18408203 C24.3953458,6.56657092 24.4319666,6.96126099 24.3505859,7.36816406 Z M22.5439453,7.1484375 C22.6253259,7.06705688 22.6456708,6.97347058 22.6049805,6.86767578 C22.5642902,6.76188098 22.4869797,6.70898438 22.3730469,6.70898438 L7.67578125,6.70898438 C7.56184839,6.70898438 7.48046899,6.76188098 7.43164062,6.86767578 C7.38281226,6.97347058 7.39908813,7.06705688 7.48046875,7.1484375 L14.4140625,13.8378906 C14.5768237,14.0006519 14.6582031,14.2041003 14.6582031,14.4482422 L14.6582031,20.8447266 L15.9765625,22.2607422 L15.9765625,14.3994141 C15.9765625,14.1552722 16.0579419,13.9518237 16.2207031,13.7890625 L22.5439453,7.1484375 Z" id="filter"></path>
                </g>
            </g>
        </g>
    </g>
</svg>