<?xml version="1.0" encoding="UTF-8"?>
<svg width="20px" height="17px" viewBox="0 0 20 17" version="1.1" xmlns="http://www.w3.org/2000/svg" xmlns:xlink="http://www.w3.org/1999/xlink">
    <!-- Generator: Sketch 51.3 (57544) - http://www.bohemiancoding.com/sketch -->
    <title>folder-add</title>
    <desc>Created with Sketch.</desc>
    <defs></defs>
    <g id="Pages" stroke="none" stroke-width="1" fill="none" fill-rule="evenodd">
        <g id="Notes-/-Copy-to-course-/-8" transform="translate(-641.000000, -460.000000)" fill="#FFFFFF">
            <g id="Pop-up" transform="translate(485.000000, 330.000000)">
                <g id="Icon-/-Notification-Copy" transform="translate(154.000000, 127.000000)">
                    <path d="M21.296875,15 C21.4921885,15 21.6582024,15.0683587 21.7949219,15.2050781 C21.9316413,15.3417976 22,15.5078115 22,15.703125 C22,15.8984385 21.9316413,16.0644524 21.7949219,16.2011719 C21.6582024,16.3378913 21.4921885,16.40625 21.296875,16.40625 L18.25,16.40625 L18.25,19.296875 C18.25,19.4921885 18.1816413,19.6582024 18.0449219,19.7949219 C17.9082024,19.9316413 17.7421885,20 17.546875,20 C17.3515615,20 17.1855476,19.9316413 17.0488281,19.7949219 C16.9121087,19.6582024 16.84375,19.4921885 16.84375,19.296875 L16.84375,16.40625 L13.953125,16.40625 C13.7578115,16.40625 13.5917976,16.3378913 13.4550781,16.2011719 C13.3183587,16.0644524 13.25,15.8984385 13.25,15.703125 C13.25,15.5078115 13.3183587,15.3417976 13.4550781,15.2050781 C13.5917976,15.0683587 13.7578115,15 13.953125,15 L16.84375,15 L16.84375,11.953125 C16.84375,11.7578115 16.9121087,11.5917976 17.0488281,11.4550781 C17.1855476,11.3183587 17.3515615,11.25 17.546875,11.25 C17.7421885,11.25 17.9082024,11.3183587 18.0449219,11.4550781 C18.1816413,11.5917976 18.25,11.7578115 18.25,11.953125 L18.25,15 L21.296875,15 Z M20.59375,6.25 C20.984377,6.25 21.3164049,6.38671738 21.5898438,6.66015625 C21.8632826,6.93359512 22,7.26562305 22,7.65625 L22,10.546875 C22,10.7421885 21.9316413,10.9082024 21.7949219,11.0449219 C21.6582024,11.1816413 21.4921885,11.25 21.296875,11.25 C21.1015615,11.25 20.9355476,11.1816413 20.7988281,11.0449219 C20.6621087,10.9082024 20.59375,10.7421885 20.59375,10.546875 L20.59375,7.65625 L3.40625,7.65625 L3.40625,18.59375 L12.546875,18.59375 C12.7421885,18.59375 12.9082024,18.6621087 13.0449219,18.7988281 C13.1816413,18.9355476 13.25,19.1015615 13.25,19.296875 C13.25,19.4921885 13.1816413,19.6582024 13.0449219,19.7949219 C12.9082024,19.9316413 12.7421885,20 12.546875,20 L3.40625,20 C3.01562305,20 2.68359512,19.8632826 2.41015625,19.5898438 C2.13671738,19.3164049 2,18.984377 2,18.59375 L2,5.15625 C2,4.76562305 2.13671738,4.43359512 2.41015625,4.16015625 C2.68359512,3.88671738 3.01562305,3.75 3.40625,3.75 L9.71484375,3.75 C10.0273453,3.75 10.3072904,3.84114492 10.5546875,4.0234375 C10.8020846,4.20573008 10.9713537,4.44010273 11.0625,4.7265625 L11.5507812,6.25 L20.59375,6.25 Z M3.40625,6.25 L10.0664062,6.25 L9.71484375,5.15625 L3.40625,5.15625 L3.40625,6.25 Z" id="folder-add"></path>
                </g>
            </g>
        </g>
    </g>
</svg>