<?xml version="1.0" encoding="UTF-8"?>
<svg width="21px" height="17px" viewBox="0 0 21 17" version="1.1" xmlns="http://www.w3.org/2000/svg" xmlns:xlink="http://www.w3.org/1999/xlink">
    <!-- Generator: Sketch 52.3 (67297) - http://www.bohemiancoding.com/sketch -->
    <title>folder</title>
    <desc>Created with Sketch.</desc>
    <g id="Symbols" stroke="none" stroke-width="1" fill="none" fill-rule="evenodd">
        <g id="Left-Navigation-/-Browse" transform="translate(-22.000000, -202.000000)" fill="#333333">
            <g id="Create" transform="translate(0.000000, 184.000000)">
                <g id="Icon" transform="translate(20.000000, 15.000000)">
                    <path d="M20.6132812,6.25 C21.0039082,6.25 21.3359361,6.38671738 21.609375,6.66015625 C21.8828139,6.93359512 22.0195312,7.26562305 22.0195312,7.65625 L22.0195312,18.59375 C22.0195312,18.984377 21.8828139,19.3164049 21.609375,19.5898438 C21.3359361,19.8632826 21.0039082,20 20.6132812,20 L3.42578125,20 C3.0351543,20 2.70312637,19.8632826 2.4296875,19.5898438 C2.15624863,19.3164049 2.01953125,18.984377 2.01953125,18.59375 L2.01953125,5.15625 C2.01953125,4.76562305 2.15624863,4.43359512 2.4296875,4.16015625 C2.70312637,3.88671738 3.0351543,3.75 3.42578125,3.75 L9.734375,3.75 C10.0468766,3.75 10.3268217,3.84114492 10.5742188,4.0234375 C10.8216158,4.20573008 10.990885,4.44010273 11.0820312,4.7265625 L11.5703125,6.25 L20.6132812,6.25 Z M3.42578125,5.15625 L3.42578125,6.25 L10.0859375,6.25 L9.734375,5.15625 L3.42578125,5.15625 Z M20.6132812,18.59375 L20.6132812,7.65625 L3.42578125,7.65625 L3.42578125,18.59375 L20.6132812,18.59375 Z" id="folder"></path>
                </g>
            </g>
        </g>
    </g>
</svg>