<?xml version="1.0" encoding="UTF-8"?>
<svg width="19px" height="17px" viewBox="0 0 19 17" version="1.1" xmlns="http://www.w3.org/2000/svg" xmlns:xlink="http://www.w3.org/1999/xlink">
    <g id="Page-1" stroke="none" stroke-width="1" fill="none" fill-rule="evenodd">
        <g id="Icon-/-6-/-Black" transform="translate(-3.000000, -5.000000)" fill="#333333" fill-rule="nonzero">
            <path d="M8.2700734,19.6464611 L9.63055805,18.3312938 L17.8020071,18.3312938 C19.0343846,18.3312938 20.0334239,17.3487565 20.0334239,16.1367353 L20.0334239,8.56576435 C20.0334239,7.35374317 19.0343846,6.37120587 17.8020071,6.37120587 L6.64492292,6.37120587 C5.41254544,6.37120587 4.41350609,7.35374317 4.41350609,8.56576435 L4.41350609,16.3599618 C4.41350609,17.4486984 5.31092499,18.3312938 6.41794731,18.3312938 L6.90958875,18.3312938 L8.2700734,19.6464611 Z M6.51370095,5 L17.933229,5 C19.8737925,5 21.44693,6.54715255 21.44693,8.45566194 L21.44693,16.2047221 C21.44693,18.1132314 19.8737925,19.660384 17.933229,19.660384 L10.0727722,19.660384 L8.17707924,21.492932 L6.28138627,19.660384 C4.46912668,19.660384 3,18.2155242 3,16.4331994 L3,8.45566194 C3,6.54715255 4.5731375,5 6.51370095,5 Z M8.62667074,11.7655227 C8.46022389,11.6018252 8.25736985,11.5199777 8.01810251,11.5199777 C7.77883517,11.5199777 7.57598113,11.6018252 7.40953428,11.7655227 C7.24308744,11.9292202 7.15986527,12.1287235 7.15986527,12.3640386 C7.15986527,12.5993538 7.24308744,12.7988571 7.40953428,12.9625546 C7.57598113,13.1262521 7.77883517,13.2080996 8.01810251,13.2080996 C8.25736985,13.2080996 8.46022389,13.1262521 8.62667074,12.9625546 C8.79311758,12.7988571 8.87633975,12.5993538 8.87633975,12.3640386 C8.87633975,12.1287235 8.79311758,11.9292202 8.62667074,11.7655227 Z M17.2090432,11.7655227 C17.0425963,11.6018252 16.8397423,11.5199777 16.6004749,11.5199777 C16.3612076,11.5199777 16.1583536,11.6018252 15.9919067,11.7655227 C15.8254599,11.9292202 15.7422377,12.1287235 15.7422377,12.3640386 C15.7422377,12.5993538 15.8254599,12.7988571 15.9919067,12.9625546 C16.1583536,13.1262521 16.3612076,13.2080996 16.6004749,13.2080996 C16.8397423,13.2080996 17.0425963,13.1262521 17.2090432,12.9625546 C17.37549,12.7988571 17.4587122,12.5993538 17.4587122,12.3640386 C17.4587122,12.1287235 17.37549,11.9292202 17.2090432,11.7655227 Z M12.917857,11.7655227 C12.7514101,11.6018252 12.5485561,11.5199777 12.3092887,11.5199777 C12.0700214,11.5199777 11.8671673,11.6018252 11.7007205,11.7655227 C11.5342737,11.9292202 11.4510515,12.1287235 11.4510515,12.3640386 C11.4510515,12.5993538 11.5342737,12.7988571 11.7007205,12.9625546 C11.8671673,13.1262521 12.0700214,13.2080996 12.3092887,13.2080996 C12.5485561,13.2080996 12.7514101,13.1262521 12.917857,12.9625546 C13.0843038,12.7988571 13.167526,12.5993538 13.167526,12.3640386 C13.167526,12.1287235 13.0843038,11.9292202 12.917857,11.7655227 Z" id="forum"></path>
        </g>
    </g>
</svg>