<svg width="22px" height="20px" viewBox="0 0 22 20" version="1.1" xmlns="http://www.w3.org/2000/svg" xmlns:xlink="http://www.w3.org/1999/xlink">
    <!-- Generator: Sketch 51.3 (57544) - http://www.bohemiancoding.com/sketch -->
    <desc>Created with Sketch.</desc>
    <defs></defs>
    <g id="Symbols" stroke="none" stroke-width="1" fill="none" fill-rule="evenodd">
        <g id="1-Left-Navigation-/-Main" transform="translate(-21.000000, -290.000000)" fill-rule="nonzero">
            <g id="Forum" transform="translate(0.000000, 272.000000)">
                <g id="Icon" transform="translate(20.000000, 15.000000)">
                    <g id="forum" transform="translate(1.000000, 3.000000)">
                        <path d="M6.29359119,17.9691551 L8.12430657,16.169697 L17.4,16.169697 C19.1673112,16.169697 20.6,14.7370082 20.6,12.969697 L20.6,4 C20.6,2.2326888 19.1673112,0.8 17.4,0.8 L4.4,0.8 C2.6326888,0.8 1.2,2.2326888 1.2,4 L1.2,13.2341642 C1.2,14.8554142 2.51428279,16.169697 4.13553278,16.169697 L4.4628758,16.169697 L6.29359119,17.9691551 Z" id="Rectangle-4" stroke="#000000" stroke-width="1.6" fill-opacity="0" fill="#FFFFFF"></path>
                        <path d="M6.70909091,7.79090909 C6.90303127,7.98484945 7,8.22121073 7,8.5 C7,8.77878927 6.90303127,9.01515055 6.70909091,9.20909091 C6.51515055,9.40303127 6.27878927,9.5 6,9.5 C5.72121073,9.5 5.48484945,9.40303127 5.29090909,9.20909091 C5.09696873,9.01515055 5,8.77878927 5,8.5 C5,8.22121073 5.09696873,7.98484945 5.29090909,7.79090909 C5.48484945,7.59696873 5.72121073,7.5 6,7.5 C6.27878927,7.5 6.51515055,7.59696873 6.70909091,7.79090909 Z M16.7090909,7.79090909 C16.9030313,7.98484945 17,8.22121073 17,8.5 C17,8.77878927 16.9030313,9.01515055 16.7090909,9.20909091 C16.5151505,9.40303127 16.2787893,9.5 16,9.5 C15.7212107,9.5 15.4848495,9.40303127 15.2909091,9.20909091 C15.0969687,9.01515055 15,8.77878927 15,8.5 C15,8.22121073 15.0969687,7.98484945 15.2909091,7.79090909 C15.4848495,7.59696873 15.7212107,7.5 16,7.5 C16.2787893,7.5 16.5151505,7.59696873 16.7090909,7.79090909 Z M11.7090909,7.79090909 C11.9030313,7.98484945 12,8.22121073 12,8.5 C12,8.77878927 11.9030313,9.01515055 11.7090909,9.20909091 C11.5151505,9.40303127 11.2787893,9.5 11,9.5 C10.7212107,9.5 10.4848495,9.40303127 10.2909091,9.20909091 C10.0969687,9.01515055 10,8.77878927 10,8.5 C10,8.22121073 10.0969687,7.98484945 10.2909091,7.79090909 C10.4848495,7.59696873 10.7212107,7.5 11,7.5 C11.2787893,7.5 11.5151505,7.59696873 11.7090909,7.79090909 Z" id="Combined-Shape" fill="#000000"></path>
                    </g>
                </g>
            </g>
        </g>
    </g>
</svg>