<?xml version="1.0" encoding="UTF-8"?>
<svg width="22px" height="21px" viewBox="0 0 22 21" version="1.1" xmlns="http://www.w3.org/2000/svg" xmlns:xlink="http://www.w3.org/1999/xlink">
    <!-- Generator: Sketch 51.3 (57544) - http://www.bohemiancoding.com/sketch -->
    <title>fullscreen</title>
    <desc>Created with Sketch.</desc>
    <defs></defs>
    <g id="Pages" stroke="none" stroke-width="1" fill="none" fill-rule="evenodd">
        <g id="Notes-/-Flash-card-/-1" transform="translate(-1229.000000, -308.000000)" fill="#333333" stroke="#333333" stroke-width="0.2">
            <g id="M-panel" transform="translate(400.000000, 284.000000)">
                <g id="Icon-/-Full-screen" transform="translate(825.000000, 20.000000)">
                    <path d="M10.46875,5 C10.6803396,5 10.8634432,5.07731042 11.0180664,5.23193359 C11.1726896,5.38655676 11.25,5.5696604 11.25,5.78125 C11.25,5.9928396 11.1726896,6.17594324 11.0180664,6.33056641 C10.8634432,6.48518958 10.6803396,6.5625 10.46875,6.5625 L6.5625,6.5625 L6.5625,10.46875 C6.5625,10.6803396 6.48518958,10.8634432 6.33056641,11.0180664 C6.17594324,11.1726896 5.9928396,11.25 5.78125,11.25 C5.5696604,11.25 5.38655676,11.1726896 5.23193359,11.0180664 C5.07731042,10.8634432 5,10.6803396 5,10.46875 L5,5.78125 C5,5.5696604 5.07731042,5.38655676 5.23193359,5.23193359 C5.38655676,5.07731042 5.5696604,5 5.78125,5 L10.46875,5 Z M24.21875,18.28125 C24.4303396,18.28125 24.6134432,18.3585604 24.7680664,18.5131836 C24.9226896,18.6678068 25,18.8509104 25,19.0625 L25,23.75 C25,23.9615896 24.9226896,24.1446932 24.7680664,24.2993164 C24.6134432,24.4539396 24.4303396,24.53125 24.21875,24.53125 L19.53125,24.53125 C19.3196604,24.53125 19.1365568,24.4539396 18.9819336,24.2993164 C18.8273104,24.1446932 18.75,23.9615896 18.75,23.75 C18.75,23.5384104 18.8273104,23.3553068 18.9819336,23.2006836 C19.1365568,23.0460604 19.3196604,22.96875 19.53125,22.96875 L23.4375,22.96875 L23.4375,19.0625 C23.4375,18.8509104 23.5148104,18.6678068 23.6694336,18.5131836 C23.8240568,18.3585604 24.0071604,18.28125 24.21875,18.28125 Z M10.46875,22.96875 C10.6803396,22.96875 10.8634432,23.0460604 11.0180664,23.2006836 C11.1726896,23.3553068 11.25,23.5384104 11.25,23.75 C11.25,23.9615896 11.1726896,24.1446932 11.0180664,24.2993164 C10.8634432,24.4539396 10.6803396,24.53125 10.46875,24.53125 L5.78125,24.53125 C5.5696604,24.53125 5.38655676,24.4539396 5.23193359,24.2993164 C5.07731042,24.1446932 5,23.9615896 5,23.75 L5,19.0625 C5,18.8509104 5.07731042,18.6678068 5.23193359,18.5131836 C5.38655676,18.3585604 5.5696604,18.28125 5.78125,18.28125 C5.9928396,18.28125 6.17594324,18.3585604 6.33056641,18.5131836 C6.48518958,18.6678068 6.5625,18.8509104 6.5625,19.0625 L6.5625,22.96875 L10.46875,22.96875 Z M24.21875,5 C24.4303396,5 24.6134432,5.07731042 24.7680664,5.23193359 C24.9226896,5.38655676 25,5.5696604 25,5.78125 L25,10.46875 C25,10.6803396 24.9226896,10.8634432 24.7680664,11.0180664 C24.6134432,11.1726896 24.4303396,11.25 24.21875,11.25 C24.0071604,11.25 23.8240568,11.1726896 23.6694336,11.0180664 C23.5148104,10.8634432 23.4375,10.6803396 23.4375,10.46875 L23.4375,6.5625 L19.53125,6.5625 C19.3196604,6.5625 19.1365568,6.48518958 18.9819336,6.33056641 C18.8273104,6.17594324 18.75,5.9928396 18.75,5.78125 C18.75,5.5696604 18.8273104,5.38655676 18.9819336,5.23193359 C19.1365568,5.07731042 19.3196604,5 19.53125,5 L24.21875,5 Z" id="fullscreen"></path>
                </g>
            </g>
        </g>
    </g>
</svg>