<?xml version="1.0" encoding="UTF-8"?>
<svg width="20px" height="21px" viewBox="0 0 20 21" version="1.1" xmlns="http://www.w3.org/2000/svg" xmlns:xlink="http://www.w3.org/1999/xlink">
    <!-- Generator: Sketch 52.3 (67297) - http://www.bohemiancoding.com/sketch -->
    <title>help</title>
    <desc>Created with Sketch.</desc>
    <g id="Pages" stroke="none" stroke-width="1" fill="none" fill-rule="evenodd">
        <g id="UI-/-Navigation-/-Account" transform="translate(-1055.000000, -397.000000)" fill="#333333">
            <g id="Pop-up" transform="translate(1033.000000, 80.000000)">
                <g id="Link" transform="translate(0.000000, 300.000000)">
                    <g id="Icon" transform="translate(20.000000, 15.000000)">
                        <path d="M12,2.25 C13.3802152,2.25 14.6790304,2.51041406 15.8964844,3.03125 C17.1139384,3.55208594 18.1751257,4.26496943 19.0800781,5.16992188 C19.9850306,6.07487432 20.6979141,7.13606162 21.21875,8.35351562 C21.7395859,9.57096963 22,10.8697848 22,12.25 C22,13.6302152 21.7395859,14.9290304 21.21875,16.1464844 C20.6979141,17.3639384 19.9850306,18.4251257 19.0800781,19.3300781 C18.1751257,20.2350306 17.1139384,20.9479141 15.8964844,21.46875 C14.6790304,21.9895859 13.3802152,22.25 12,22.25 C10.6197848,22.25 9.32096963,21.9895859 8.10351562,21.46875 C6.88606162,20.9479141 5.82487432,20.2350306 4.91992188,19.3300781 C4.01496943,18.4251257 3.30208594,17.3639384 2.78125,16.1464844 C2.26041406,14.9290304 2,13.6302152 2,12.25 C2,10.8697848 2.26041406,9.57096963 2.78125,8.35351562 C3.30208594,7.13606162 4.01496943,6.07487432 4.91992188,5.16992188 C5.82487432,4.26496943 6.88606162,3.55208594 8.10351562,3.03125 C9.32096963,2.51041406 10.6197848,2.25 12,2.25 Z M14.5,3.87109375 L14.5,7.93359375 C14.8776061,8.15494902 15.2193995,8.41861826 15.5253906,8.72460938 C15.8313817,9.03060049 16.095051,9.37239395 16.3164062,9.75 L20.3789062,9.75 C20.1705719,9.04687148 19.8776061,8.38281562 19.5,7.7578125 C19.1223939,7.13280938 18.67969,6.56966396 18.171875,6.06835938 C17.66406,5.56705479 17.1009146,5.12760605 16.4824219,4.75 C15.8639292,4.37239395 15.2031285,4.07942812 14.5,3.87109375 Z M15.75,12.25 C15.75,11.221349 15.3821651,10.3391964 14.6464844,9.60351562 C13.9108036,8.86783486 13.028651,8.5 12,8.5 C10.971349,8.5 10.0891964,8.86783486 9.35351562,9.60351562 C8.61783486,10.3391964 8.25,11.221349 8.25,12.25 C8.25,13.2916719 8.61783486,14.1770797 9.35351562,14.90625 C10.0891964,15.6354203 10.971349,16 12,16 C13.028651,16 13.9108036,15.6354203 14.6464844,14.90625 C15.3821651,14.1770797 15.75,13.2916719 15.75,12.25 Z M10.75,3.59765625 L10.75,7.42578125 C10.9453135,7.37369766 11.1471344,7.33138037 11.3554688,7.29882812 C11.5638031,7.26627588 11.7786447,7.25 12,7.25 C12.2213553,7.25 12.4361969,7.26627588 12.6445312,7.29882812 C12.8528656,7.33138037 13.0546865,7.37369766 13.25,7.42578125 L13.25,3.59765625 C13.0416656,3.57161445 12.8333344,3.54882822 12.625,3.52929688 C12.4166656,3.50976553 12.2083344,3.5 12,3.5 C11.7916656,3.5 11.5833344,3.50976553 11.375,3.52929688 C11.1666656,3.54882822 10.9583344,3.57161445 10.75,3.59765625 Z M9.5,3.87109375 C8.79687148,4.07942812 8.1360708,4.37239395 7.51757812,4.75 C6.89908545,5.12760605 6.33594004,5.56705479 5.828125,6.06835938 C5.32030996,6.56966396 4.87760605,7.13280938 4.5,7.7578125 C4.12239395,8.38281562 3.82942812,9.04687148 3.62109375,9.75 L7.68359375,9.75 C7.90494902,9.37239395 8.16861826,9.03060049 8.47460938,8.72460938 C8.78060049,8.41861826 9.12239395,8.15494902 9.5,7.93359375 L9.5,3.87109375 Z M3.25,12.25 C3.25,12.4583344 3.25976553,12.6666656 3.27929688,12.875 C3.29882822,13.0833344 3.32161445,13.2916656 3.34765625,13.5 L7.15625,13.5 C7.1171873,13.3046865 7.08138037,13.1028656 7.04882812,12.8945312 C7.01627588,12.6861969 7,12.4713553 7,12.25 C7,12.0416656 7.01627588,11.8300792 7.04882812,11.6152344 C7.08138037,11.4003896 7.12369766,11.1953135 7.17578125,11 L3.34765625,11 C3.32161445,11.2083344 3.29882822,11.4166656 3.27929688,11.625 C3.25976553,11.8333344 3.25,12.0416656 3.25,12.25 Z M9.5,20.6289062 L9.5,16.5664062 C9.12239395,16.3580719 8.77734531,16.0976578 8.46484375,15.7851562 C8.15234219,15.4726547 7.89192812,15.1276061 7.68359375,14.75 L3.62109375,14.75 C3.82942812,15.4531285 4.12239395,16.1171844 4.5,16.7421875 C4.87760605,17.3671906 5.31705479,17.9335912 5.81835938,18.4414062 C6.31966396,18.9492213 6.88280938,19.38867 7.5078125,19.7597656 C8.13281562,20.1308612 8.79687148,20.4205719 9.5,20.6289062 Z M13.25,20.9023438 L13.25,17.09375 C13.0546865,17.1458336 12.8528656,17.1848957 12.6445312,17.2109375 C12.4361969,17.2369793 12.2213553,17.25 12,17.25 C11.7786447,17.25 11.5638031,17.2369793 11.3554688,17.2109375 C11.1471344,17.1848957 10.9453135,17.1458336 10.75,17.09375 L10.75,20.9023438 C10.9583344,20.9414064 11.1666656,20.9674479 11.375,20.9804688 C11.5833344,20.9934896 11.7916656,21 12,21 C12.2083344,21 12.4166656,20.9934896 12.625,20.9804688 C12.8333344,20.9674479 13.0416656,20.9414064 13.25,20.9023438 Z M14.5,20.6289062 C15.2031285,20.4205719 15.8671844,20.1308612 16.4921875,19.7597656 C17.1171906,19.38867 17.680336,18.9492213 18.1816406,18.4414062 C18.6829452,17.9335912 19.1223939,17.3671906 19.5,16.7421875 C19.8776061,16.1171844 20.1705719,15.4531285 20.3789062,14.75 L16.3164062,14.75 C16.095051,15.1276061 15.8313817,15.4726547 15.5253906,15.7851562 C15.2193995,16.0976578 14.8776061,16.3580719 14.5,16.5664062 L14.5,20.6289062 Z M16.84375,13.5 L20.6523438,13.5 C20.6783855,13.2916656 20.7011718,13.0833344 20.7207031,12.875 C20.7402345,12.6666656 20.75,12.4583344 20.75,12.25 C20.75,12.0416656 20.7402345,11.8333344 20.7207031,11.625 C20.7011718,11.4166656 20.6783855,11.2083344 20.6523438,11 L16.8242188,11 C16.8763023,11.1953135 16.9186196,11.4003896 16.9511719,11.6152344 C16.9837241,11.8300792 17,12.0416656 17,12.25 C17,12.4713553 16.9837241,12.6861969 16.9511719,12.8945312 C16.9186196,13.1028656 16.8828127,13.3046865 16.84375,13.5 Z" id="help"></path>
                    </g>
                </g>
            </g>
        </g>
    </g>
</svg>