<?xml version="1.0" encoding="UTF-8"?>
<svg width="23px" height="23px" viewBox="0 0 23 23" version="1.1" xmlns="http://www.w3.org/2000/svg" xmlns:xlink="http://www.w3.org/1999/xlink">
    <!-- Generator: Sketch 51.3 (57544) - http://www.bohemiancoding.com/sketch -->
    <title>import</title>
    <desc>Created with Sketch.</desc>
    <defs></defs>
    <g id="Pages" stroke="none" stroke-width="1" fill="none" fill-rule="evenodd">
        <g id="Notes-/-Flash-card-/-8" transform="translate(-453.000000, -115.000000)" fill="#333333">
            <g id="Page-title" transform="translate(450.000000, 105.000000)">
                <g id="Icon-/-Nav-/-Settings-/-Active" transform="translate(0.000000, 7.000000)">
                    <path d="M15.2978516,21.328125 C15.1350903,21.4908862 14.9397798,21.5722656 14.7119141,21.5722656 C14.4840483,21.5722656 14.2887378,21.4908862 14.1259766,21.328125 L10.3173828,17.5195312 C10.1546216,17.35677 10.0732422,17.1573905 10.0732422,16.9213867 C10.0732422,16.6853829 10.1546216,16.4860034 10.3173828,16.3232422 C10.480144,16.160481 10.6754546,16.0791016 10.9033203,16.0791016 C11.131186,16.0791016 11.3346345,16.160481 11.5136719,16.3232422 L13.8574219,18.6914062 L13.8574219,4.58007812 C13.8574219,4.3522124 13.9428702,4.15690186 14.1137695,3.99414062 C14.2846688,3.83137939 14.4840483,3.75 14.7119141,3.75 C14.9397798,3.75 15.1391593,3.83137939 15.3100586,3.99414062 C15.4809579,4.15690186 15.5664062,4.3522124 15.5664062,4.58007812 L15.5664062,18.6914062 L17.9345703,16.3232422 C18.0973315,16.160481 18.2926421,16.0791016 18.5205078,16.0791016 C18.7483735,16.0791016 18.9436841,16.160481 19.1064453,16.3232422 C19.2692065,16.4860034 19.3505859,16.6853829 19.3505859,16.9213867 C19.3505859,17.1573905 19.2692065,17.35677 19.1064453,17.5195312 L15.2978516,21.328125 Z M25.3808594,18.0810547 C25.5436206,18.2438159 25.625,18.4391265 25.625,18.6669922 L25.625,24.1113281 C25.625,24.5182312 25.4785171,24.8722316 25.1855469,25.1733398 C24.8925767,25.4744481 24.5345073,25.625 24.1113281,25.625 L5.26367188,25.625 C4.84049268,25.625 4.48242334,25.4785171 4.18945312,25.1855469 C3.89648291,24.8925767 3.75,24.5345073 3.75,24.1113281 L3.75,18.6669922 C3.75,18.4391265 3.83137939,18.2397469 3.99414062,18.0688477 C4.15690186,17.8979484 4.35628137,17.8125 4.59228516,17.8125 C4.82828894,17.8125 5.02766846,17.8979484 5.19042969,18.0688477 C5.35319092,18.2397469 5.43457031,18.4391265 5.43457031,18.6669922 L5.43457031,23.4277344 C5.43457031,23.5742195 5.48339795,23.6962886 5.58105469,23.7939453 C5.67871143,23.8916021 5.80078052,23.9404297 5.94726562,23.9404297 L23.4277344,23.9404297 C23.5742195,23.9404297 23.6962886,23.8916021 23.7939453,23.7939453 C23.8916021,23.6962886 23.9404297,23.5742195 23.9404297,23.4277344 L23.9404297,18.6669922 C23.9404297,18.4391265 24.0218091,18.2397469 24.1845703,18.0688477 C24.3473315,17.8979484 24.5467111,17.8125 24.7827148,17.8125 C25.0187186,17.8125 25.2180981,17.9020173 25.3808594,18.0810547 Z" id="import"></path>
                </g>
            </g>
        </g>
    </g>
</svg>