<?xml version="1.0" encoding="UTF-8"?>
<svg width="20px" height="20px" viewBox="0 0 20 20" version="1.1" xmlns="http://www.w3.org/2000/svg" xmlns:xlink="http://www.w3.org/1999/xlink">
    <!-- Generator: Sketch 51.3 (57544) - http://www.bohemiancoding.com/sketch -->
    <title>info</title>
    <desc>Created with Sketch.</desc>
    <defs></defs>
    <g id="Symbols" stroke="none" stroke-width="1" fill="none" fill-rule="evenodd">
        <g id="Icon-/-Important-/-White" transform="translate(-2.000000, -2.000000)" fill="#FFFFFF">
            <path d="M8.66015625,4.08984375 C7.63150527,4.5195334 6.72005605,5.13150645 5.92578125,5.92578125 C5.13150645,6.72005605 4.51302305,7.63150527 4.0703125,8.66015625 C3.62760195,9.71484902 3.40625,10.8281191 3.40625,12 C3.40625,13.1718809 3.6341123,14.285151 4.08984375,15.3398438 C4.5195334,16.3684947 5.13150645,17.2799439 5.92578125,18.0742188 C6.72005605,18.8684936 7.63150527,19.486977 8.66015625,19.9296875 C9.71484902,20.372398 10.8281191,20.59375 12,20.59375 C13.1718809,20.59375 14.285151,20.3658877 15.3398438,19.9101562 C16.3684947,19.4804666 17.2799439,18.8684936 18.0742188,18.0742188 C18.8684936,17.2799439 19.486977,16.3684947 19.9296875,15.3398438 C20.372398,14.285151 20.59375,13.1718809 20.59375,12 C20.59375,10.8281191 20.3658877,9.71484902 19.9101562,8.66015625 C19.4804666,7.63150527 18.8684936,6.72005605 18.0742188,5.92578125 C17.2799439,5.13150645 16.3684947,4.51302305 15.3398438,4.0703125 C14.285151,3.62760195 13.1718809,3.40625 12,3.40625 C10.8281191,3.40625 9.71484902,3.6341123 8.66015625,4.08984375 Z M12,2 C13.8099049,2 15.4830652,2.44595908 17.0195312,3.33789062 C18.5559973,4.22982217 19.7701778,5.44400273 20.6621094,6.98046875 C21.5540409,8.51693477 22,10.1900951 22,12 C22,13.8099049 21.5540409,15.4830652 20.6621094,17.0195312 C19.7701778,18.5559973 18.5559973,19.7701778 17.0195312,20.6621094 C15.4830652,21.5540409 13.8099049,22 12,22 C10.1900951,22 8.51693477,21.5540409 6.98046875,20.6621094 C5.44400273,19.7701778 4.22982217,18.5559973 3.33789062,17.0195312 C2.44595908,15.4830652 2,13.8099049 2,12 C2,10.1900951 2.44595908,8.51693477 3.33789062,6.98046875 C4.22982217,5.44400273 5.44400273,4.22982217 6.98046875,3.33789062 C8.51693477,2.44595908 10.1900951,2 12,2 Z M12.546875,14.2851562 C12.4036451,14.4283861 12.2213553,14.5 12,14.5 C11.7786447,14.5 11.5930997,14.425131 11.4433594,14.2753906 C11.293619,14.1256503 11.21875,13.9401053 11.21875,13.71875 L11.21875,6.51171875 C11.21875,6.29036348 11.293619,6.10481846 11.4433594,5.95507812 C11.5930997,5.80533779 11.7786447,5.73046875 12,5.73046875 C12.2213553,5.73046875 12.4069003,5.80533779 12.5566406,5.95507812 C12.706381,6.10481846 12.78125,6.29036348 12.78125,6.51171875 L12.78125,13.71875 C12.78125,13.9401053 12.7031258,14.1289055 12.546875,14.2851562 Z M11.375,17.2539062 C11.2057283,17.0846346 11.1210938,16.8763033 11.1210938,16.6289062 C11.1210938,16.3815092 11.2057283,16.1731779 11.375,16.0039062 C11.5442717,15.8346346 11.7526029,15.75 12,15.75 C12.2473971,15.75 12.4557283,15.8346346 12.625,16.0039062 C12.7942717,16.1731779 12.8789062,16.3815092 12.8789062,16.6289062 C12.8789062,16.8763033 12.7942717,17.0846346 12.625,17.2539062 C12.4557283,17.4231779 12.2473971,17.5078125 12,17.5078125 C11.7526029,17.5078125 11.5442717,17.4231779 11.375,17.2539062 Z" id="info"></path>
        </g>
    </g>
</svg>