<?xml version="1.0" encoding="UTF-8"?>
<svg width="21px" height="21px" viewBox="0 0 21 21" version="1.1" xmlns="http://www.w3.org/2000/svg" xmlns:xlink="http://www.w3.org/1999/xlink">
    <!-- Generator: Sketch 52.3 (67297) - http://www.bohemiancoding.com/sketch -->
    <title>join</title>
    <desc>Created with Sketch.</desc>
    <g id="Symbols" stroke="none" stroke-width="1" fill="none" fill-rule="evenodd">
        <g id="Left-Navigation-/-Main" transform="translate(-22.000000, -726.000000)" fill="#333333">
            <g id="Settings-Copy-3" transform="translate(0.000000, 710.000000)">
                <g id="Icon" transform="translate(20.000000, 15.000000)">
                    <g id="join" transform="translate(2.000000, 1.000000)">
                        <path d="M7.203125,7.8203125 C6.30468301,7.76822891 5.54297187,7.41015957 4.91796875,6.74609375 C4.29296562,6.08202793 3.98046875,5.29427539 3.98046875,4.3828125 C3.98046875,3.43228691 4.31575186,2.62174814 4.98632812,1.95117188 C5.65690439,1.28059561 6.46744316,0.9453125 7.41796875,0.9453125 C8.08203457,0.9453125 8.69075244,1.12109199 9.24414062,1.47265625 C9.79752881,1.82422051 10.2174465,2.29296582 10.5039062,2.87890625 C10.0351539,2.95703164 9.58593965,3.11328008 9.15625,3.34765625 C8.98697832,3.04817559 8.74609531,2.80729258 8.43359375,2.625 C8.12109219,2.44270742 7.78255391,2.3515625 7.41796875,2.3515625 C6.85807012,2.3515625 6.37955928,2.55012822 5.98242188,2.94726562 C5.58528447,3.34440303 5.38671875,3.82291387 5.38671875,4.3828125 C5.38671875,4.89062754 5.55273271,5.33658662 5.88476562,5.72070312 C6.21679854,6.10481963 6.63020586,6.32942676 7.125,6.39453125 C7.1119791,6.55078203 7.10546875,6.71354082 7.10546875,6.8828125 C7.10546875,7.19531406 7.13802051,7.50781094 7.203125,7.8203125 Z M14.1757812,11.0039062 C13.4726527,11.1341152 12.8346383,11.4140604 12.2617188,11.84375 C11.8971336,11.7656246 11.5325539,11.7265625 11.1679688,11.7265625 C9.65754453,11.7265625 8.36849492,12.2604113 7.30078125,13.328125 C6.23306758,14.3958387 5.69921875,15.6848883 5.69921875,17.1953125 C5.69921875,17.390626 5.63086006,17.5566399 5.49414062,17.6933594 C5.35742119,17.8300788 5.19140723,17.8984375 4.99609375,17.8984375 C4.80078027,17.8984375 4.63476631,17.8300788 4.49804688,17.6933594 C4.36132744,17.5566399 4.29296875,17.390626 4.29296875,17.1953125 C4.29296875,15.2942613 4.96353496,13.6731838 6.3046875,12.3320312 C7.64584004,10.9908787 9.26691758,10.3203125 11.1679688,10.3203125 C12.2226615,10.3203125 13.2252557,10.5481748 14.1757812,11.0039062 Z M13.5898438,9.32421875 C12.9257779,9.98828457 12.1184943,10.3203125 11.1679688,10.3203125 C10.2174432,10.3203125 9.40690439,9.98502939 8.73632812,9.31445312 C8.06575186,8.64387686 7.73046875,7.83333809 7.73046875,6.8828125 C7.73046875,5.93228691 8.06575186,5.12174814 8.73632812,4.45117188 C9.40690439,3.78059561 10.2174432,3.4453125 11.1679688,3.4453125 C12.1184943,3.4453125 12.9290331,3.78059561 13.5996094,4.45117188 C14.2701856,5.12174814 14.6054688,5.93228691 14.6054688,6.8828125 C14.6054688,7.83333809 14.2669305,8.64713203 13.5898438,9.32421875 Z M12.59375,8.328125 C12.9973979,7.92447715 13.1992188,7.44271113 13.1992188,6.8828125 C13.1992188,6.32291387 13.000653,5.84440303 12.6035156,5.44726562 C12.2063782,5.05012822 11.7278674,4.8515625 11.1679688,4.8515625 C10.6080701,4.8515625 10.1295593,5.05012822 9.73242188,5.44726562 C9.33528447,5.84440303 9.13671875,6.32291387 9.13671875,6.8828125 C9.13671875,7.44271113 9.33528447,7.92122197 9.73242188,8.31835938 C10.1295593,8.71549678 10.6080701,8.9140625 11.1679688,8.9140625 C11.7278674,8.9140625 12.203123,8.71875195 12.59375,8.328125 Z M7.8671875,9.24609375 C7.71093672,9.23307285 7.56119863,9.2265625 7.41796875,9.2265625 C5.90754453,9.2265625 4.61849492,9.76041133 3.55078125,10.828125 C2.48306758,11.8958387 1.94921875,13.1848883 1.94921875,14.6953125 C1.94921875,14.890626 1.88086006,15.0566399 1.74414062,15.1933594 C1.60742119,15.3300788 1.44140723,15.3984375 1.24609375,15.3984375 C1.05078027,15.3984375 0.884766309,15.3300788 0.748046875,15.1933594 C0.611327441,15.0566399 0.54296875,14.890626 0.54296875,14.6953125 C0.54296875,13.471348 0.839189746,12.3385469 1.43164062,11.296875 C2.0240915,10.2552031 2.8313751,9.4251333 3.85351562,8.80664062 C4.87565615,8.18814795 5.9986918,7.8593752 7.22265625,7.8203125 C7.33984434,8.34114844 7.55468594,8.8164041 7.8671875,9.24609375 Z" id="usergroup-add---anticon"></path>
                        <path d="M20.046875,15.75 C20.2421885,15.75 20.4082024,15.8183587 20.5449219,15.9550781 C20.6816413,16.0917976 20.75,16.2578115 20.75,16.453125 C20.75,16.6484385 20.6816413,16.8144524 20.5449219,16.9511719 C20.4082024,17.0878913 20.2421885,17.15625 20.046875,17.15625 L17,17.15625 L17,20.046875 C17,20.2421885 16.9316413,20.4082024 16.7949219,20.5449219 C16.6582024,20.6816413 16.4921885,20.75 16.296875,20.75 C16.1015615,20.75 15.9355476,20.6816413 15.7988281,20.5449219 C15.6621087,20.4082024 15.59375,20.2421885 15.59375,20.046875 L15.59375,17.15625 L12.703125,17.15625 C12.5078115,17.15625 12.3417976,17.0878913 12.2050781,16.9511719 C12.0683587,16.8144524 12,16.6484385 12,16.453125 C12,16.2578115 12.0683587,16.0917976 12.2050781,15.9550781 C12.3417976,15.8183587 12.5078115,15.75 12.703125,15.75 L15.59375,15.75 L15.59375,12.703125 C15.59375,12.5078115 15.6621087,12.3417976 15.7988281,12.2050781 C15.9355476,12.0683587 16.1015615,12 16.296875,12 C16.4921885,12 16.6582024,12.0683587 16.7949219,12.2050781 C16.9316413,12.3417976 17,12.5078115 17,12.703125 L17,15.75 L20.046875,15.75 Z" id="Path" fill-rule="nonzero"></path>
                    </g>
                </g>
            </g>
        </g>
    </g>
</svg>