<?xml version="1.0" encoding="UTF-8"?>
<svg width="22px" height="22px" viewBox="0 0 22 22" version="1.1" xmlns="http://www.w3.org/2000/svg" xmlns:xlink="http://www.w3.org/1999/xlink">
    <!-- Generator: Sketch 51.3 (57544) - http://www.bohemiancoding.com/sketch -->
    <title>light</title>
    <desc>Created with Sketch.</desc>
    <defs></defs>
    <g id="Pages" stroke="none" stroke-width="1" fill="none" fill-rule="evenodd">
        <g id="Notes-/-Book-/-3" transform="translate(-477.000000, -551.000000)" fill="#333333" fill-rule="nonzero" stroke="#333333" stroke-width="0.5">
            <g id="Pop-up" transform="translate(416.000000, 108.000000)">
                <g id="Icon-/-Aa-Copy-5" transform="translate(60.000000, 442.000000)">
                    <g id="light" transform="translate(2.000000, 2.000000)">
                        <path d="M13.5181518,6.44224422 C12.620462,5.54455446 11.3531353,4.96369637 9.98019802,4.96369637 C8.60726073,4.96369637 7.33993399,5.51815182 6.44224422,6.44224422 C5.54455446,7.33993399 4.96369637,8.60726073 4.96369637,9.98019802 C4.96369637,11.3531353 5.54455446,12.620462 6.44224422,13.5181518 C7.33993399,14.4158416 8.60726073,14.9966997 9.98019802,14.9966997 C11.3531353,14.9966997 12.620462,14.4422442 13.5181518,13.5181518 C14.4158416,12.620462 14.9966997,11.3531353 14.9966997,9.98019802 C14.9966997,8.60726073 14.4422442,7.33993399 13.5181518,6.44224422 Z M12.5676568,12.5676568 C11.9075908,13.2277228 10.9834983,13.6237624 9.98019802,13.6237624 C8.97689769,13.6237624 8.05280528,13.2277228 7.39273927,12.5676568 C6.73267327,11.9075908 6.33663366,10.9834983 6.33663366,9.98019802 C6.33663366,8.97689769 6.73267327,8.05280528 7.39273927,7.39273927 C8.05280528,6.73267327 8.97689769,6.33663366 9.98019802,6.33663366 C10.9834983,6.33663366 11.9075908,6.73267327 12.5676568,7.39273927 C13.2277228,8.05280528 13.6237624,8.97689769 13.6237624,9.98019802 C13.6237624,10.9834983 13.2277228,11.9075908 12.5676568,12.5676568 Z" id="Shape"></path>
                        <path d="M19.2739274,9.29372937 L17.2409241,9.29372937 C16.8712871,9.29372937 16.5544554,9.61056106 16.5544554,9.98019802 C16.5544554,10.349835 16.8712871,10.6666667 17.2409241,10.6666667 L19.2739274,10.6666667 C19.6435644,10.6666667 19.960396,10.349835 19.960396,9.98019802 C19.960396,9.61056106 19.6435644,9.29372937 19.2739274,9.29372937 Z" id="Shape"></path>
                        <path d="M9.98019802,16.5544554 C9.61056106,16.5544554 9.29372937,16.8712871 9.29372937,17.2409241 L9.29372937,19.2739274 C9.29372937,19.6435644 9.61056106,19.960396 9.98019802,19.960396 C10.349835,19.960396 10.6666667,19.6435644 10.6666667,19.2739274 L10.6666667,17.2409241 C10.6666667,16.8712871 10.349835,16.5544554 9.98019802,16.5544554 Z" id="Shape"></path>
                        <path d="M17.029703,16.0792079 L15.5775578,14.6270627 C15.339934,14.3630363 14.8910891,14.3630363 14.6270627,14.6270627 C14.3630363,14.8910891 14.3630363,15.3135314 14.6270627,15.5775578 L16.0792079,17.029703 C16.3432343,17.2937294 16.7656766,17.2937294 17.029703,17.029703 C17.2937294,16.7656766 17.2937294,16.3432343 17.029703,16.0792079 Z" id="Shape"></path>
                        <path d="M9.98019802,0 C9.61056106,0 9.29372937,0.316831683 9.29372937,0.686468647 L9.29372937,2.71947195 C9.29372937,3.08910891 9.61056106,3.40594059 9.98019802,3.40594059 C10.349835,3.40594059 10.6666667,3.08910891 10.6666667,2.71947195 L10.6666667,0.686468647 C10.6666667,0.316831683 10.349835,0 9.98019802,0 Z" id="Shape"></path>
                        <path d="M17.0561056,2.93069307 C16.7920792,2.66666667 16.369637,2.66666667 16.1056106,2.93069307 L14.6534653,4.38283828 C14.3894389,4.64686469 14.3894389,5.06930693 14.6534653,5.33333333 C14.8910891,5.59735974 15.339934,5.59735974 15.6039604,5.33333333 L17.0561056,3.88118812 C17.320132,3.61716172 17.320132,3.19471947 17.0561056,2.93069307 Z" id="Shape"></path>
                        <path d="M2.71947195,9.29372937 L0.686468647,9.29372937 C0.316831683,9.29372937 0,9.61056106 0,9.98019802 C0,10.349835 0.290429043,10.6666667 0.686468647,10.6666667 L2.71947195,10.6666667 C3.08910891,10.6666667 3.40594059,10.349835 3.40594059,9.98019802 C3.40594059,9.61056106 3.08910891,9.29372937 2.71947195,9.29372937 Z" id="Shape"></path>
                        <path d="M5.30693069,14.6270627 C5.06930693,14.3630363 4.62046205,14.3630363 4.35643564,14.6270627 L2.90429043,16.0792079 C2.64026403,16.3432343 2.64026403,16.7656766 2.90429043,17.029703 C3.16831683,17.2937294 3.59075908,17.2937294 3.85478548,17.029703 L5.30693069,15.5775578 C5.5709571,15.3135314 5.5709571,14.8910891 5.30693069,14.6270627 Z" id="Shape"></path>
                        <path d="M5.30693069,4.38283828 L3.85478548,2.93069307 C3.59075908,2.66666667 3.16831683,2.66666667 2.90429043,2.93069307 C2.64026403,3.19471947 2.64026403,3.61716172 2.90429043,3.88118812 L4.35643564,5.33333333 C4.62046205,5.59735974 5.04290429,5.59735974 5.30693069,5.33333333 C5.5709571,5.06930693 5.5709571,4.64686469 5.30693069,4.38283828 Z" id="Shape"></path>
                    </g>
                </g>
            </g>
        </g>
    </g>
</svg>