<?xml version="1.0" encoding="UTF-8"?>
<svg width="16px" height="16px" viewBox="0 0 16 16" version="1.1" xmlns="http://www.w3.org/2000/svg" xmlns:xlink="http://www.w3.org/1999/xlink">
    <!-- Generator: Sketch 51.3 (57544) - http://www.bohemiancoding.com/sketch -->
    <title>like</title>
    <desc>Created with Sketch.</desc>
    <defs></defs>
    <g id="Symbols" stroke="none" stroke-width="1" fill="none" fill-rule="evenodd">
        <g id="View-/-Note" transform="translate(-265.000000, -69.000000)" fill="#333333">
            <g id="Stacked-Group-3" transform="translate(189.000000, 62.000000)">
                <g id="Group-Copy-2" transform="translate(74.000000, 0.000000)">
                    <g id="Icon-/-Search-/-Active-Copy-8" transform="translate(0.000000, 5.000000)">
                        <path d="M17.8344184,8.98111979 L17.8680556,9.0625 L17.8680556,9.77864583 L17.8007813,9.86002604 C17.7335066,10.120444 17.6213839,10.3645822 17.4644097,10.5924479 C17.5204719,10.7552091 17.5485026,10.9179679 17.5485026,11.0807292 C17.559715,11.5147591 17.4307739,11.9270814 17.1616753,12.3177083 C17.2065251,12.4479173 17.2345558,12.5781243 17.2457682,12.7083333 C17.2681931,13.1857663 17.139252,13.6414909 16.858941,14.0755208 C16.9150032,14.3142373 16.9318216,14.5583755 16.9093967,14.8079427 C16.8645469,15.2636742 16.7047721,15.6597205 16.4300673,15.9960938 C16.1553625,16.332467 15.7937667,16.5711799 15.3452691,16.7122396 C15.0088959,16.8207471 14.6052541,16.875 14.1343316,16.875 L4.00954861,16.875 C3.6731754,16.875 3.38726246,16.7610688 3.15180122,16.5332031 C2.91633997,16.3053374 2.79861111,16.0286475 2.79861111,15.703125 L2.79861111,9.71354167 C2.79861111,9.38801921 2.91633997,9.11132926 3.15180122,8.88346354 C3.38726246,8.65559782 3.6731754,8.54166667 4.00954861,8.54166667 L5.91004774,8.54166667 L6.16232639,8.49283854 C6.33051299,8.4602863 6.52953082,8.3789069 6.75938585,8.24869792 C6.98924088,8.11848893 7.1714403,7.95573014 7.30598958,7.76041667 C7.50781351,7.44574495 7.80493872,6.95746859 8.19737413,6.29557292 C8.24222389,6.21961768 8.30669446,6.11111182 8.39078776,5.97005208 C8.47488106,5.82899235 8.53374549,5.72591178 8.56738281,5.66080729 C8.58980769,5.6174043 8.60101997,5.56857666 8.60101997,5.51432292 C8.58980752,5.28645719 8.57859525,4.95008903 8.56738281,4.50520833 C8.56738281,4.3641486 8.56177668,4.16883805 8.55056424,3.91927083 C8.5393518,3.30077816 8.8196586,2.85047884 9.39149306,2.56835938 C9.75029115,2.38389665 10.1202961,2.29166667 10.5015191,2.29166667 C10.8378923,2.29166667 11.1686543,2.36219548 11.4938151,2.50325521 C11.9198878,2.67686719 12.2226192,2.98068359 12.4020182,3.41471354 L12.5533854,3.80533854 C12.7439969,4.30447298 12.8785442,4.66254232 12.9570313,4.87955729 C13.1588552,5.44379622 13.1868859,6.08940609 13.0411241,6.81640625 C13.0074868,6.96831673 12.9682439,7.19075374 12.9233941,7.48372396 L15.8498264,7.48372396 C16.1413498,7.48372396 16.4216566,7.5271263 16.6907552,7.61393229 C17.2625897,7.82009652 17.6325946,8.23784408 17.8007813,8.8671875 C17.8007813,8.87803825 17.8119935,8.89973942 17.8344184,8.93229167 L17.8344184,8.98111979 Z M5.89322917,15.703125 L5.89322917,9.71354167 L4.00954861,9.71354167 L4.00954861,15.703125 L5.89322917,15.703125 Z M16.6571181,9.46940104 L16.6571181,9.24153646 C16.6571181,9.23068571 16.654315,9.21440983 16.6487088,9.19270833 C16.6431025,9.17100684 16.6346933,9.16015625 16.6234809,9.16015625 C16.5674187,8.93229053 16.455296,8.78580762 16.2871094,8.72070312 C16.1413477,8.67730013 15.9955881,8.65559896 15.8498264,8.65559896 L11.4938151,8.65559896 L11.7292752,7.28841146 C11.7741249,7.00629199 11.8133679,6.77300439 11.8470052,6.58854167 C11.9591296,6.07855648 11.9479173,5.63368245 11.8133681,5.25390625 C11.7236685,5.00433903 11.5947274,4.65712028 11.4265408,4.21223958 C11.4041159,4.17968734 11.3536607,4.04948031 11.2751736,3.82161458 C11.2191114,3.70225635 11.1350194,3.62087695 11.022895,3.57747396 C10.8434959,3.50151872 10.6697057,3.46354167 10.5015191,3.46354167 C10.3221201,3.46354167 10.1427237,3.50694401 9.96332465,3.59375 C9.88483757,3.63715299 9.83438235,3.68055534 9.81195747,3.72395833 C9.77832014,3.76736133 9.76710787,3.82161426 9.77832031,3.88671875 L9.77832031,4.50520833 C9.78953275,4.88498454 9.80074502,5.19422624 9.81195747,5.43294271 C9.83438235,5.72591292 9.76710871,6.00260286 9.61013455,6.26302083 C9.59892211,6.28472233 9.57649756,6.32269938 9.54286024,6.37695312 C9.50922292,6.43120687 9.48679838,6.46375863 9.47558594,6.47460938 C9.34103665,6.7024751 9.26255075,6.83268213 9.24012587,6.86523438 L9.22330729,6.88151042 C8.84208432,7.54340609 8.54495911,8.03710775 8.33192274,8.36263021 L8.33192274,8.37890625 C8.04039929,8.8129362 7.6367575,9.14930436 7.12098524,9.38802083 L7.10416667,15.703125 L14.1343316,15.703125 C14.4819172,15.703125 14.7622241,15.6705732 14.9752604,15.6054688 C15.1882968,15.5295135 15.3564809,15.4155824 15.4798177,15.2636719 C15.6031546,15.1226121 15.6760343,14.9435775 15.6984592,14.7265625 L15.6984592,14.7102865 C15.7096716,14.5800775 15.6984594,14.4444451 15.664822,14.3033854 L15.664822,14.2545573 L15.5639106,13.8476562 L15.8330078,13.4407552 C15.9787695,13.2237402 16.0460432,13.0067285 16.0348307,12.7897135 C16.0236183,12.7463105 16.012406,12.6974829 16.0011936,12.6432292 L15.8498264,12.1223958 L16.1525608,11.6666667 C16.28711,11.4930547 16.3487775,11.31402 16.3375651,11.1295573 C16.3375651,11.0536021 16.3263528,10.9830732 16.303928,10.9179688 L16.1525608,10.3971354 L16.4721137,9.94140625 C16.5393884,9.83289876 16.5898436,9.71896761 16.6234809,9.59960938 L16.6571181,9.46940104 Z" id="like" transform="translate(10.333333, 9.583333) rotate(-10.000000) translate(-10.333333, -9.583333) "></path>
                    </g>
                </g>
            </g>
        </g>
    </g>
</svg>