<?xml version="1.0" encoding="UTF-8"?>
<svg width="14px" height="19px" viewBox="0 0 14 19" version="1.1" xmlns="http://www.w3.org/2000/svg" xmlns:xlink="http://www.w3.org/1999/xlink">
    <!-- Generator: Sketch 52.3 (67297) - http://www.bohemiancoding.com/sketch -->
    <title>lock</title>
    <desc>Created with Sketch.</desc>
    <g id="Pages" stroke="none" stroke-width="1" fill="none" fill-rule="evenodd">
        <g id="Notes-/-Flash-card-/-7" transform="translate(-939.000000, -565.000000)" fill="#333333">
            <g id="Icon-Copy" transform="translate(934.000000, 563.000000)">
                <path d="M6.70703125,10.2890625 L17.3710938,10.2890625 C17.7096371,10.2890625 18.0026029,10.4127592 18.25,10.6601562 C18.4973971,10.9075533 18.6210938,11.2005191 18.6210938,11.5390625 L18.6015625,18.9023438 C18.6015625,19.2799498 18.4778658,19.598957 18.2304688,19.859375 C17.9830717,20.119793 17.6770852,20.25 17.3125,20.25 L6.66796875,20.25 C6.31640449,20.25 6.01367314,20.119793 5.75976562,19.859375 C5.50585811,19.598957 5.37890625,19.2799498 5.37890625,18.9023438 L5.37890625,9.72265625 C5.37890625,8.77213066 5.55468574,7.8671918 5.90625,7.0078125 C6.23177246,6.174475 6.70051777,5.4355501 7.3125,4.79101562 C7.92448223,4.14648115 8.6276002,3.64843926 9.421875,3.296875 C10.2421916,2.93228984 11.101558,2.75 12,2.75 C12.898442,2.75 13.7578084,2.93228984 14.578125,3.296875 C15.3723998,3.64843926 16.0690074,4.14973633 16.6679688,4.80078125 C17.279951,5.43880527 17.7552066,6.174475 18.09375,7.0078125 C18.1588545,7.17708418 18.1425786,7.33658779 18.0449219,7.48632812 C17.9472651,7.63606846 17.8072926,7.7109375 17.625,7.7109375 L17.3515625,7.7109375 C17.0781236,7.7109375 16.8763027,7.58073047 16.7460938,7.3203125 C16.329425,6.53905859 15.9843764,5.99869941 15.7109375,5.69921875 C15.2161434,5.19140371 14.6562531,4.79427227 14.03125,4.5078125 C13.3802051,4.22135273 12.7031285,4.078125 12,4.078125 C11.2838506,4.078125 10.606774,4.22135273 9.96875,4.5078125 L9.94921875,4.52734375 C9.33723652,4.80078262 8.78385664,5.19791406 8.2890625,5.71875 C7.79426836,6.22656504 7.41015762,6.81900703 7.13671875,7.49609375 C6.85025898,8.21224316 6.70703125,8.94791289 6.70703125,9.703125 L6.70703125,10.2890625 Z M17.2929688,18.9023438 L17.2929688,11.6171875 L6.70703125,11.6171875 L6.70703125,18.9023438 C6.70703125,18.9153646 6.7135416,18.921875 6.7265625,18.921875 L17.2734375,18.921875 C17.2864584,18.921875 17.2929688,18.9153646 17.2929688,18.9023438 Z M11.375,14.625 C11.0234357,14.4036447 10.8476562,14.0846375 10.8476562,13.6679688 C10.8476562,13.3424463 10.9615874,13.0690115 11.1894531,12.8476562 C11.4173188,12.626301 11.6874984,12.515625 12,12.515625 C12.3125016,12.515625 12.5826812,12.626301 12.8105469,12.8476562 C13.0384126,13.0690115 13.1523438,13.3424463 13.1523438,13.6679688 C13.1523438,14.0846375 12.9765643,14.4036447 12.625,14.625 L12.625,16.3828125 C12.625,16.5520842 12.5631517,16.6953119 12.4394531,16.8125 C12.3157546,16.9296881 12.1692717,16.9882812 12,16.9882812 C11.8307283,16.9882812 11.6842454,16.9296881 11.5605469,16.8125 C11.4368483,16.6953119 11.375,16.5520842 11.375,16.3828125 L11.375,14.625 Z" id="lock"></path>
            </g>
        </g>
    </g>
</svg>