<?xml version="1.0" encoding="UTF-8"?>
<svg width="14px" height="17px" viewBox="0 0 14 17" version="1.1" xmlns="http://www.w3.org/2000/svg" xmlns:xlink="http://www.w3.org/1999/xlink">
    <!-- Generator: Sketch 52.3 (67297) - http://www.bohemiancoding.com/sketch -->
    <title>lock-2</title>
    <desc>Created with Sketch.</desc>
    <g id="Pages" stroke="none" stroke-width="1" fill="none" fill-rule="evenodd">
        <g id="Notes-/-Book-/-5" transform="translate(-994.000000, -567.000000)" fill="#333333">
            <g id="Icon-Copy" transform="translate(989.000000, 563.000000)">
                <path d="M17.6445312,8.359375 C17.9700537,9.1536498 18.1328125,9.9869748 18.1328125,10.859375 L18.1328125,19.375 C18.1328125,19.7135434 18.0156262,20.0065092 17.78125,20.2539062 C17.5468738,20.5013033 17.2604184,20.625 16.921875,20.625 L7.05859375,20.625 C6.73307129,20.625 6.45312617,20.5013033 6.21875,20.2539062 C5.98437383,20.0065092 5.8671875,19.7135434 5.8671875,19.375 L5.8671875,10.859375 C5.8671875,9.9869748 6.02994629,9.1536498 6.35546875,8.359375 C6.66797031,7.57812109 7.10741904,6.891279 7.67382812,6.29882812 C8.24023721,5.70637725 8.88801719,5.24088711 9.6171875,4.90234375 C10.3723996,4.56380039 11.1666625,4.39453125 12,4.39453125 C12.8333375,4.39453125 13.6276004,4.56380039 14.3828125,4.90234375 C15.1250037,5.24088711 15.7760389,5.70312207 16.3359375,6.2890625 C16.8958361,6.88802383 17.3320297,7.57812109 17.6445312,8.359375 Z M10.0859375,6.0546875 C9.52603887,6.30208457 9.01823145,6.66666426 8.5625,7.1484375 C8.10676855,7.63021074 7.74869922,8.18359063 7.48828125,8.80859375 C7.22786328,9.45963867 7.09765625,10.1432256 7.09765625,10.859375 L7.09765625,11.3867188 L16.9023438,11.3867188 L16.9023438,10.859375 C16.9023438,10.1432256 16.7656264,9.45963867 16.4921875,8.80859375 C16.2447904,8.18359063 15.8932314,7.63021074 15.4375,7.1484375 C14.9817686,6.66666426 14.4609404,6.29557422 13.875,6.03515625 C13.2760387,5.76171738 12.6510449,5.625 12,5.625 C11.3359342,5.625 10.7109404,5.76171738 10.125,6.03515625 L10.1054688,6.0546875 L10.0859375,6.0546875 Z M16.9023438,12.6367188 L7.09765625,12.6367188 L7.09765625,19.3945312 L16.9023438,19.3945312 L16.9023438,12.6367188 Z M11.4335938,15.4101562 C11.1080713,15.2018219 10.9453125,14.9023457 10.9453125,14.5117188 C10.9453125,14.225259 11.0494781,13.9778656 11.2578125,13.7695312 C11.4661469,13.5611969 11.7167954,13.4570312 12.0097656,13.4570312 C12.3027358,13.4570312 12.5501292,13.5611969 12.7519531,13.7695312 C12.9537771,13.9778656 13.0546875,14.225259 13.0546875,14.5117188 C13.0546875,14.9023457 12.8984391,15.2018219 12.5859375,15.4101562 L12.5859375,17.03125 C12.5859375,17.1875008 12.5273443,17.320963 12.4101562,17.4316406 C12.2929682,17.5423183 12.1562508,17.5976562 12,17.5976562 C11.8437492,17.5976562 11.710287,17.5423183 11.5996094,17.4316406 C11.4889317,17.320963 11.4335938,17.1875008 11.4335938,17.03125 L11.4335938,15.4101562 Z" id="lock-2"></path>
            </g>
        </g>
    </g>
</svg>