<?xml version="1.0" encoding="UTF-8"?>
<svg width="20px" height="20px" viewBox="0 0 20 20" version="1.1" xmlns="http://www.w3.org/2000/svg" xmlns:xlink="http://www.w3.org/1999/xlink">
    <!-- Generator: Sketch 51.3 (57544) - http://www.bohemiancoding.com/sketch -->
    <title>logout</title>
    <desc>Created with Sketch.</desc>
    <defs></defs>
    <g id="Symbols" stroke="none" stroke-width="1" fill="none" fill-rule="evenodd">
        <g id="Icon-/-Nav-/-Log-out-/-Active" transform="translate(-2.000000, -2.000000)" fill="#333333">
            <path d="M16.8242188,18.5869141 C16.972657,18.4755854 17.1396475,18.435384 17.3251953,18.4663086 C17.5107431,18.4972332 17.6560867,18.5869133 17.7612305,18.7353516 C17.8663742,18.8837898 17.9065756,19.0476879 17.8818359,19.2270508 C17.8570962,19.4064137 17.7705086,19.5517573 17.6220703,19.6630859 C15.9521401,20.8877014 14.0781354,21.5 12,21.5 C10.7135352,21.5 9.48275327,21.2526066 8.30761719,20.7578125 C7.16959066,20.2753882 6.16146272,19.5950565 5.28320312,18.7167969 C4.40494353,17.8385373 3.72461179,16.8304093 3.2421875,15.6923828 C2.74739336,14.5172467 2.5,13.2864648 2.5,12 C2.5,10.7135352 2.74739336,9.48275327 3.2421875,8.30761719 C3.72461179,7.16959066 4.40494353,6.16146272 5.28320312,5.28320312 C6.16146272,4.40494353 7.16959066,3.72461179 8.30761719,3.2421875 C9.48275327,2.74739336 10.7135352,2.5 12,2.5 C14.0781354,2.5 15.9521401,3.11229856 17.6220703,4.33691406 C17.7705086,4.44824274 17.8570962,4.59358634 17.8818359,4.77294922 C17.9065756,4.95231209 17.8632818,5.1162102 17.7519531,5.26464844 C17.6406244,5.41308668 17.4952808,5.50276677 17.315918,5.53369141 C17.1365551,5.56461604 16.972657,5.52441462 16.8242188,5.41308594 C15.3893157,4.36164839 13.7812589,3.8359375 12,3.8359375 C10.8867132,3.8359375 9.82910657,4.05240669 8.82714844,4.48535156 C7.84993001,4.89355673 6.98405325,5.47493112 6.22949219,6.22949219 C5.47493112,6.98405325 4.88737189,7.84993001 4.46679688,8.82714844 C4.04622186,9.82910657 3.8359375,10.8867132 3.8359375,12 C3.8359375,13.1132868 4.05240669,14.1708934 4.48535156,15.1728516 C4.89355673,16.15007 5.47493112,17.0159467 6.22949219,17.7705078 C6.98405325,18.5250689 7.84993001,19.1126281 8.82714844,19.5332031 C9.82910657,19.9537781 10.8867132,20.1640625 12,20.1640625 C13.7812589,20.1640625 15.3893157,19.6383516 16.8242188,18.5869141 Z M21.3144531,11.5175781 C21.4381517,11.6536465 21.5,11.8144522 21.5,12 C21.5,12.1855478 21.4381517,12.3463535 21.3144531,12.4824219 L18.7910156,14.9873047 C18.6549472,15.1233731 18.4941416,15.1914062 18.3085938,15.1914062 C18.1230459,15.1914062 17.9653327,15.1264655 17.8354492,14.996582 C17.7055658,14.8666986 17.640625,14.7089853 17.640625,14.5234375 C17.640625,14.3378897 17.7086582,14.177084 17.8447266,14.0410156 L19.2177734,12.6679688 L10.2929688,12.6679688 C10.1074209,12.6679688 9.94970768,12.603028 9.81982422,12.4731445 C9.68994076,12.3432611 9.625,12.1855478 9.625,12 C9.625,11.8144522 9.68994076,11.6567389 9.81982422,11.5268555 C9.94970768,11.396972 10.1074209,11.3320312 10.2929688,11.3320312 L19.2177734,11.3320312 L17.8447266,9.95898438 C17.7086582,9.82291599 17.640625,9.6621103 17.640625,9.4765625 C17.640625,9.2910147 17.7055658,9.13330143 17.8354492,9.00341797 C17.9653327,8.87353451 18.1230459,8.80859375 18.3085938,8.80859375 C18.4941416,8.80859375 18.6549472,8.87662692 18.7910156,9.01269531 L21.3144531,11.5175781 Z" id="logout"></path>
        </g>
    </g>
</svg>