<?xml version="1.0" encoding="UTF-8"?>
<svg width="15px" height="18px" viewBox="0 0 15 18" version="1.1" xmlns="http://www.w3.org/2000/svg" xmlns:xlink="http://www.w3.org/1999/xlink">
    <!-- Generator: Sketch 52.3 (67297) - http://www.bohemiancoding.com/sketch -->
    <title>members</title>
    <desc>Created with Sketch.</desc>
    <g id="Symbols" stroke="none" stroke-width="1" fill="none" fill-rule="evenodd">
        <g id="Left-Navigation-/-Classes" transform="translate(-23.000000, -417.000000)" fill="#333333">
            <g id="Join-or-create-a-classes" transform="translate(0.000000, 400.000000)">
                <g id="Icon" transform="translate(20.000000, 15.000000)">
                    <path d="M10.203125,9.8203125 C9.30468301,9.76822891 8.54297187,9.41015957 7.91796875,8.74609375 C7.29296562,8.08202793 6.98046875,7.29427539 6.98046875,6.3828125 C6.98046875,5.43228691 7.31575186,4.62174814 7.98632812,3.95117188 C8.65690439,3.28059561 9.46744316,2.9453125 10.4179688,2.9453125 C11.0820346,2.9453125 11.6907524,3.12109199 12.2441406,3.47265625 C12.7975288,3.82422051 13.2174465,4.29296582 13.5039062,4.87890625 C13.0351539,4.95703164 12.5859396,5.11328008 12.15625,5.34765625 C11.9869783,5.04817559 11.7460953,4.80729258 11.4335938,4.625 C11.1210922,4.44270742 10.7825539,4.3515625 10.4179688,4.3515625 C9.85807012,4.3515625 9.37955928,4.55012822 8.98242188,4.94726562 C8.58528447,5.34440303 8.38671875,5.82291387 8.38671875,6.3828125 C8.38671875,6.89062754 8.55273271,7.33658662 8.88476562,7.72070312 C9.21679854,8.10481963 9.63020586,8.32942676 10.125,8.39453125 C10.1119791,8.55078203 10.1054688,8.71354082 10.1054688,8.8828125 C10.1054688,9.19531406 10.1380205,9.50781094 10.203125,9.8203125 Z M17.1757812,13.0039062 C16.4726527,13.1341152 15.8346383,13.4140604 15.2617188,13.84375 C14.8971336,13.7656246 14.5325539,13.7265625 14.1679688,13.7265625 C12.6575445,13.7265625 11.3684949,14.2604113 10.3007812,15.328125 C9.23306758,16.3958387 8.69921875,17.6848883 8.69921875,19.1953125 C8.69921875,19.390626 8.63086006,19.5566399 8.49414062,19.6933594 C8.35742119,19.8300788 8.19140723,19.8984375 7.99609375,19.8984375 C7.80078027,19.8984375 7.63476631,19.8300788 7.49804688,19.6933594 C7.36132744,19.5566399 7.29296875,19.390626 7.29296875,19.1953125 C7.29296875,17.2942613 7.96353496,15.6731838 9.3046875,14.3320312 C10.64584,12.9908787 12.2669176,12.3203125 14.1679688,12.3203125 C15.2226615,12.3203125 16.2252557,12.5481748 17.1757812,13.0039062 Z M16.5898438,11.3242188 C15.9257779,11.9882846 15.1184943,12.3203125 14.1679688,12.3203125 C13.2174432,12.3203125 12.4069044,11.9850294 11.7363281,11.3144531 C11.0657519,10.6438769 10.7304688,9.83333809 10.7304688,8.8828125 C10.7304688,7.93228691 11.0657519,7.12174814 11.7363281,6.45117188 C12.4069044,5.78059561 13.2174432,5.4453125 14.1679688,5.4453125 C15.1184943,5.4453125 15.9290331,5.78059561 16.5996094,6.45117188 C17.2701856,7.12174814 17.6054688,7.93228691 17.6054688,8.8828125 C17.6054688,9.83333809 17.2669305,10.647132 16.5898438,11.3242188 Z M15.59375,10.328125 C15.9973979,9.92447715 16.1992188,9.44271113 16.1992188,8.8828125 C16.1992188,8.32291387 16.000653,7.84440303 15.6035156,7.44726562 C15.2063782,7.05012822 14.7278674,6.8515625 14.1679688,6.8515625 C13.6080701,6.8515625 13.1295593,7.05012822 12.7324219,7.44726562 C12.3352845,7.84440303 12.1367188,8.32291387 12.1367188,8.8828125 C12.1367188,9.44271113 12.3352845,9.92122197 12.7324219,10.3183594 C13.1295593,10.7154968 13.6080701,10.9140625 14.1679688,10.9140625 C14.7278674,10.9140625 15.203123,10.718752 15.59375,10.328125 Z M10.8671875,11.2460938 C10.7109367,11.2330729 10.5611986,11.2265625 10.4179688,11.2265625 C8.90754453,11.2265625 7.61849492,11.7604113 6.55078125,12.828125 C5.48306758,13.8958387 4.94921875,15.1848883 4.94921875,16.6953125 C4.94921875,16.890626 4.88086006,17.0566399 4.74414062,17.1933594 C4.60742119,17.3300788 4.44140723,17.3984375 4.24609375,17.3984375 C4.05078027,17.3984375 3.88476631,17.3300788 3.74804688,17.1933594 C3.61132744,17.0566399 3.54296875,16.890626 3.54296875,16.6953125 C3.54296875,15.471348 3.83918975,14.3385469 4.43164062,13.296875 C5.0240915,12.2552031 5.8313751,11.4251333 6.85351562,10.8066406 C7.87565615,10.1881479 8.9986918,9.8593752 10.2226562,9.8203125 C10.3398443,10.3411484 10.5546859,10.8164041 10.8671875,11.2460938 Z" id="members"></path>
                </g>
            </g>
        </g>
    </g>
</svg>