<?xml version="1.0" encoding="UTF-8"?>
<svg width="15px" height="18px" viewBox="0 0 15 18" version="1.1" xmlns="http://www.w3.org/2000/svg" xmlns:xlink="http://www.w3.org/1999/xlink">
    <!-- Generator: Sketch 52.3 (67297) - http://www.bohemiancoding.com/sketch -->
    <title>members-add</title>
    <desc>Created with Sketch.</desc>
    <g id="Pages" stroke="none" stroke-width="1" fill="none" fill-rule="evenodd">
        <g id="Classes-/-Member-/-Recent-/-1" transform="translate(-1204.000000, -141.000000)" fill="#333333">
            <g id="Group-3" transform="translate(1158.000000, 140.000000)">
                <g id="Group-4">
                    <g id="Icon-/-Search-/-Active-Copy-5" transform="translate(44.000000, 0.000000)">
                        <path d="M9.203125,8.8203125 C8.30468301,8.76822891 7.54297187,8.41015957 6.91796875,7.74609375 C6.29296562,7.08202793 5.98046875,6.29427539 5.98046875,5.3828125 C5.98046875,4.43228691 6.31575186,3.62174814 6.98632812,2.95117188 C7.65690439,2.28059561 8.46744316,1.9453125 9.41796875,1.9453125 C10.0820346,1.9453125 10.6907524,2.12109199 11.2441406,2.47265625 C11.7975288,2.82422051 12.2174465,3.29296582 12.5039062,3.87890625 C12.0351539,3.95703164 11.5859396,4.11328008 11.15625,4.34765625 C10.9869783,4.04817559 10.7460953,3.80729258 10.4335938,3.625 C10.1210922,3.44270742 9.78255391,3.3515625 9.41796875,3.3515625 C8.85807012,3.3515625 8.37955928,3.55012822 7.98242188,3.94726562 C7.58528447,4.34440303 7.38671875,4.82291387 7.38671875,5.3828125 C7.38671875,5.89062754 7.55273271,6.33658662 7.88476562,6.72070312 C8.21679854,7.10481963 8.63020586,7.32942676 9.125,7.39453125 C9.1119791,7.55078203 9.10546875,7.71354082 9.10546875,7.8828125 C9.10546875,8.19531406 9.13802051,8.50781094 9.203125,8.8203125 Z M16.1757812,12.0039062 C15.4726527,12.1341152 14.8346383,12.4140604 14.2617188,12.84375 C13.8971336,12.7656246 13.5325539,12.7265625 13.1679688,12.7265625 C11.6575445,12.7265625 10.3684949,13.2604113 9.30078125,14.328125 C8.23306758,15.3958387 7.69921875,16.6848883 7.69921875,18.1953125 C7.69921875,18.390626 7.63086006,18.5566399 7.49414062,18.6933594 C7.35742119,18.8300788 7.19140723,18.8984375 6.99609375,18.8984375 C6.80078027,18.8984375 6.63476631,18.8300788 6.49804688,18.6933594 C6.36132744,18.5566399 6.29296875,18.390626 6.29296875,18.1953125 C6.29296875,16.2942613 6.96353496,14.6731838 8.3046875,13.3320312 C9.64584004,11.9908787 11.2669176,11.3203125 13.1679688,11.3203125 C14.2226615,11.3203125 15.2252557,11.5481748 16.1757812,12.0039062 Z M15.5898438,10.3242188 C14.9257779,10.9882846 14.1184943,11.3203125 13.1679688,11.3203125 C12.2174432,11.3203125 11.4069044,10.9850294 10.7363281,10.3144531 C10.0657519,9.64387686 9.73046875,8.83333809 9.73046875,7.8828125 C9.73046875,6.93228691 10.0657519,6.12174814 10.7363281,5.45117188 C11.4069044,4.78059561 12.2174432,4.4453125 13.1679688,4.4453125 C14.1184943,4.4453125 14.9290331,4.78059561 15.5996094,5.45117188 C16.2701856,6.12174814 16.6054688,6.93228691 16.6054688,7.8828125 C16.6054688,8.83333809 16.2669305,9.64713203 15.5898438,10.3242188 Z M14.59375,9.328125 C14.9973979,8.92447715 15.1992188,8.44271113 15.1992188,7.8828125 C15.1992188,7.32291387 15.000653,6.84440303 14.6035156,6.44726562 C14.2063782,6.05012822 13.7278674,5.8515625 13.1679688,5.8515625 C12.6080701,5.8515625 12.1295593,6.05012822 11.7324219,6.44726562 C11.3352845,6.84440303 11.1367188,7.32291387 11.1367188,7.8828125 C11.1367188,8.44271113 11.3352845,8.92122197 11.7324219,9.31835938 C12.1295593,9.71549678 12.6080701,9.9140625 13.1679688,9.9140625 C13.7278674,9.9140625 14.203123,9.71875195 14.59375,9.328125 Z M9.8671875,10.2460938 C9.71093672,10.2330729 9.56119863,10.2265625 9.41796875,10.2265625 C7.90754453,10.2265625 6.61849492,10.7604113 5.55078125,11.828125 C4.48306758,12.8958387 3.94921875,14.1848883 3.94921875,15.6953125 C3.94921875,15.890626 3.88086006,16.0566399 3.74414062,16.1933594 C3.60742119,16.3300788 3.44140723,16.3984375 3.24609375,16.3984375 C3.05078027,16.3984375 2.88476631,16.3300788 2.74804688,16.1933594 C2.61132744,16.0566399 2.54296875,15.890626 2.54296875,15.6953125 C2.54296875,14.471348 2.83918975,13.3385469 3.43164062,12.296875 C4.0240915,11.2552031 4.8313751,10.4251333 5.85351562,9.80664062 C6.87565615,9.18814795 7.9986918,8.8593752 9.22265625,8.8203125 C9.33984434,9.34114844 9.55468594,9.8164041 9.8671875,10.2460938 Z" id="members-add"></path>
                    </g>
                </g>
            </g>
        </g>
    </g>
</svg>