<?xml version="1.0" encoding="UTF-8"?>
<svg width="26px" height="26px" viewBox="0 0 26 26" version="1.1" xmlns="http://www.w3.org/2000/svg" xmlns:xlink="http://www.w3.org/1999/xlink">
    <!-- Generator: Sketch 52.3 (67297) - http://www.bohemiancoding.com/sketch -->
    <title>members-add</title>
    <desc>Created with Sketch.</desc>
    <g id="Pages" stroke="none" stroke-width="1" fill="none" fill-rule="evenodd">
        <g id="Classes-/-Join-or-create/-1" transform="translate(-453.000000, -114.000000)" fill="#333333">
            <g id="Page-title" transform="translate(450.000000, 105.000000)">
                <g id="Icon-/-Nav-/-Settings-/-Active" transform="translate(0.000000, 7.000000)">
                    <g id="members-add" transform="translate(3.000000, 2.000000)">
                        <path d="M8.50390625,9.02539062 C7.38085376,8.96028613 6.42871484,8.51269946 5.64746094,7.68261719 C4.86620703,6.85253491 4.47558594,5.86784424 4.47558594,4.72851562 C4.47558594,3.54035864 4.89468982,2.52718518 5.73291016,1.68896484 C6.57113049,0.850744507 7.58430396,0.431640625 8.77246094,0.431640625 C9.60254321,0.431640625 10.3634406,0.65136499 11.0551758,1.09082031 C11.746911,1.53027563 12.2718081,2.11620728 12.6298828,2.84863281 C12.0439424,2.94628955 11.4824246,3.1416001 10.9453125,3.43457031 C10.7337229,3.06021948 10.4326191,2.75911572 10.0419922,2.53125 C9.65136523,2.30338428 9.22819238,2.18945312 8.77246094,2.18945312 C8.07258765,2.18945312 7.4744491,2.43766028 6.97802734,2.93408203 C6.48160559,3.43050378 6.23339844,4.02864233 6.23339844,4.72851562 C6.23339844,5.36328442 6.44091589,5.92073328 6.85595703,6.40087891 C7.27099817,6.88102454 7.78775732,7.16178345 8.40625,7.24316406 C8.38997388,7.43847754 8.38183594,7.64192603 8.38183594,7.85351562 C8.38183594,8.24414258 8.42252563,8.63476367 8.50390625,9.02539062 Z M17.2197266,13.0048828 C16.3408159,13.167644 15.5432979,13.5175754 14.8271484,14.0546875 C14.371417,13.9570308 13.9156924,13.9082031 13.4599609,13.9082031 C11.5719307,13.9082031 9.96061865,14.5755142 8.62597656,15.9101562 C7.29133447,17.2447983 6.62402344,18.8561104 6.62402344,20.7441406 C6.62402344,20.9882825 6.53857507,21.1957999 6.36767578,21.3666992 C6.19677649,21.5375985 5.98925903,21.6230469 5.74511719,21.6230469 C5.50097534,21.6230469 5.29345789,21.5375985 5.12255859,21.3666992 C4.9516593,21.1957999 4.86621094,20.9882825 4.86621094,20.7441406 C4.86621094,18.3678267 5.7044187,16.3414797 7.38085938,14.6650391 C9.05730005,12.9885984 11.083647,12.1503906 13.4599609,12.1503906 C14.7783269,12.1503906 16.0315696,12.4352185 17.2197266,13.0048828 Z M16.4873047,10.9052734 C15.6572224,11.7353557 14.6481179,12.1503906 13.4599609,12.1503906 C12.271804,12.1503906 11.2586305,11.7312867 10.4204102,10.8930664 C9.58218982,10.0548461 9.16308594,9.04167261 9.16308594,7.85351562 C9.16308594,6.66535864 9.58218982,5.65218518 10.4204102,4.81396484 C11.2586305,3.97574451 12.271804,3.55664062 13.4599609,3.55664062 C14.6481179,3.55664062 15.6612914,3.97574451 16.4995117,4.81396484 C17.3377321,5.65218518 17.7568359,6.66535864 17.7568359,7.85351562 C17.7568359,9.04167261 17.3336631,10.058915 16.4873047,10.9052734 Z M15.2421875,9.66015625 C15.7467473,9.15559644 15.9990234,8.55338892 15.9990234,7.85351562 C15.9990234,7.15364233 15.7508163,6.55550378 15.2543945,6.05908203 C14.7579728,5.56266028 14.1598342,5.31445312 13.4599609,5.31445312 C12.7600876,5.31445312 12.1619491,5.56266028 11.6655273,6.05908203 C11.1691056,6.55550378 10.9208984,7.15364233 10.9208984,7.85351562 C10.9208984,8.55338892 11.1691056,9.15152747 11.6655273,9.64794922 C12.1619491,10.144371 12.7600876,10.3925781 13.4599609,10.3925781 C14.1598342,10.3925781 14.7539038,10.1484399 15.2421875,9.66015625 Z M9.33398438,10.8076172 C9.1386709,10.7913411 8.95149829,10.7832031 8.77246094,10.7832031 C6.88443066,10.7832031 5.27311865,11.4505142 3.93847656,12.7851562 C2.60383447,14.1197983 1.93652344,15.7311104 1.93652344,17.6191406 C1.93652344,17.8632825 1.85107507,18.0707999 1.68017578,18.2416992 C1.50927649,18.4125985 1.30175903,18.4980469 1.05761719,18.4980469 C0.813475342,18.4980469 0.605957886,18.4125985 0.435058594,18.2416992 C0.264159302,18.0707999 0.178710938,17.8632825 0.178710938,17.6191406 C0.178710938,16.0891851 0.548987183,14.6731836 1.28955078,13.3710938 C2.03011438,12.0690039 3.03921887,11.0314166 4.31689453,10.2583008 C5.59457019,9.48518494 6.99836475,9.07421899 8.52832031,9.02539062 C8.67480542,9.67643555 8.94335742,10.2705051 9.33398438,10.8076172 Z" id="usergroup-add---anticon"></path>
                        <path d="M24.5585938,18.9375 C24.8027356,18.9375 25.0102531,19.0229484 25.1811523,19.1938477 C25.3520516,19.3647469 25.4375,19.5722644 25.4375,19.8164062 C25.4375,20.0605481 25.3520516,20.2680656 25.1811523,20.4389648 C25.0102531,20.6098641 24.8027356,20.6953125 24.5585938,20.6953125 L20.75,20.6953125 L20.75,24.3085938 C20.75,24.5527356 20.6645516,24.7602531 20.4936523,24.9311523 C20.3227531,25.1020516 20.1152356,25.1875 19.8710938,25.1875 C19.6269519,25.1875 19.4194344,25.1020516 19.2485352,24.9311523 C19.0776359,24.7602531 18.9921875,24.5527356 18.9921875,24.3085938 L18.9921875,20.6953125 L15.3789062,20.6953125 C15.1347644,20.6953125 14.9272469,20.6098641 14.7563477,20.4389648 C14.5854484,20.2680656 14.5,20.0605481 14.5,19.8164062 C14.5,19.5722644 14.5854484,19.3647469 14.7563477,19.1938477 C14.9272469,19.0229484 15.1347644,18.9375 15.3789062,18.9375 L18.9921875,18.9375 L18.9921875,15.1289062 C18.9921875,14.8847644 19.0776359,14.6772469 19.2485352,14.5063477 C19.4194344,14.3354484 19.6269519,14.25 19.8710938,14.25 C20.1152356,14.25 20.3227531,14.3354484 20.4936523,14.5063477 C20.6645516,14.6772469 20.75,14.8847644 20.75,15.1289062 L20.75,18.9375 L24.5585938,18.9375 Z" id="Path" fill-rule="nonzero"></path>
                    </g>
                </g>
            </g>
        </g>
    </g>
</svg>