<?xml version="1.0" encoding="UTF-8"?>
<svg width="19px" height="15px" viewBox="0 0 19 15" version="1.1" xmlns="http://www.w3.org/2000/svg" xmlns:xlink="http://www.w3.org/1999/xlink">
    <!-- Generator: Sketch 52.3 (67297) - http://www.bohemiancoding.com/sketch -->
    <title>message-unread</title>
    <desc>Created with Sketch.</desc>
    <g id="Symbols" stroke="none" stroke-width="1" fill="none" fill-rule="evenodd">
        <g id="Left-Navigation-/-Messages" transform="translate(-23.000000, -312.000000)" fill="#333333">
            <g id="Class-1" transform="translate(0.000000, 292.000000)">
                <g id="Icon" transform="translate(20.000000, 15.000000)">
                    <path d="M19.7683895,5 C20.1748979,5 20.5204249,5.14227582 20.8049809,5.42683173 C21.0895368,5.71138764 21.2318126,6.05691464 21.2318126,6.46342308 L21.2318126,18.2078458 C21.2318126,18.6143542 21.0895368,18.9598812 20.8049809,19.2444371 C20.5204249,19.528993 20.1748979,19.6712689 19.7683895,19.6712689 L4.46342308,19.6712689 C4.05691464,19.6712689 3.71138764,19.528993 3.42683173,19.2444371 C3.14227582,18.9598812 3,18.6143542 3,18.2078458 L3,6.46342308 C3,6.05691464 3.14227582,5.71138764 3.42683173,5.42683173 C3.71138764,5.14227582 4.05691464,5 4.46342308,5 L19.7683895,5 Z M18.3324703,6.33885806 L5.89934232,6.33885806 L11.5866162,11.0298212 L11.6281292,11.0505777 C11.7665063,11.2027926 11.9394752,11.2788989 12.147041,11.2788989 L12.1677975,11.2788989 C12.3753633,11.2788989 12.5552509,11.2027926 12.7074658,11.0505777 L12.7282223,11.0090647 L12.7697352,10.9883082 L18.3324703,6.33885806 Z M19.9307188,18.3324108 L19.9307188,6.9407958 L13.7452895,12.1091578 C13.3163202,12.5519648 12.7904948,12.773365 12.1677975,12.773365 C11.5451001,12.773365 11.0192747,12.5588836 10.5903055,12.1299143 L4.30109381,6.9407958 L4.30109381,18.3324108 L19.9307188,18.3324108 Z" id="message-unread"></path>
                </g>
            </g>
        </g>
    </g>
</svg>