<?xml version="1.0" encoding="UTF-8"?>
<svg width="20px" height="20px" viewBox="0 0 20 20" version="1.1" xmlns="http://www.w3.org/2000/svg" xmlns:xlink="http://www.w3.org/1999/xlink">
    <!-- Generator: Sketch 52.3 (67297) - http://www.bohemiancoding.com/sketch -->
    <title>message-aarchived</title>
    <desc>Created with Sketch.</desc>
    <g id="Symbols" stroke="none" stroke-width="1" fill="none" fill-rule="evenodd">
        <g id="Left-Navigation-/-Messages" transform="translate(-22.000000, -363.000000)" fill="#333333" fill-rule="nonzero">
            <g id="Class-2" transform="translate(0.000000, 346.000000)">
                <g id="Icon" transform="translate(20.000000, 15.000000)">
                    <path d="M3.97693909,6.03685802 L3.95333333,5.98333333 C3.85012222,5.74930814 3.95616799,5.47592409 4.19019319,5.37271298 C4.24907403,5.34674502 4.31272059,5.33333333 4.37707344,5.33333333 L19.6363139,5.33333333 C19.9000677,5.33333333 20.1138824,5.54714805 20.1138824,5.81090187 C20.1138824,5.86987512 20.1029596,5.9283383 20.0816667,5.98333333 L20.077384,5.99439452 C19.9282815,6.37949369 19.5577982,6.63333333 19.1448419,6.63333333 L4.89190785,6.63333333 C4.49568238,6.63333333 4.13682585,6.39939195 3.97693909,6.03685802 Z M19.128414,2.72811125 L19.1654167,2.65 C19.2730312,2.4228299 19.1761123,2.15143332 18.9489422,2.04381877 C18.8880363,2.01496653 18.8214831,2 18.7540888,2 L5.22897188,2 C4.9818548,2 4.78152683,2.20032797 4.78152683,2.44744505 C4.78152683,2.51783628 4.79813443,2.58723448 4.83,2.65 L4.88213612,2.75269236 C5.05260333,3.0884611 5.39723987,3.3 5.77380289,3.3 L18.2246879,3.3 C18.6111251,3.3 18.9629759,3.07734457 19.128414,2.72811125 Z M20.9075855,9.3303229 L20.9129167,9.31666667 C21.0086499,9.07143878 20.8874605,8.79503522 20.6422326,8.69930202 C20.5869859,8.67773458 20.5281995,8.66666667 20.4688923,8.66666667 L3.5311077,8.66666667 C3.2678558,8.66666667 3.05444798,8.88007449 3.05444798,9.14332639 C3.05444798,9.20263362 3.06551589,9.26142001 3.08708333,9.31666667 L3.09241452,9.3303229 C3.24221886,9.71405816 3.61200831,9.96666667 4.02394774,9.96666667 L19.9760523,9.96666667 C20.3879917,9.96666667 20.7577811,9.71405816 20.9075855,9.3303229 Z M20.51625,13.2329599 L19.3385177,20.7670401 L4.66148226,20.7670401 L3.48375,13.2329599 L6.69887955,13.2329599 L8.68679972,16.05824 L15.3132003,16.05824 L17.3011204,13.2329599 L20.51625,13.2329599 Z M20.8195396,12 L16.1666667,12 L14.2916667,14.5 L9.70833333,14.5 L7.83333333,12 L3.18046042,12 C2.62817567,12 2.18046042,12.4477153 2.18046042,13 C2.18046042,13.0550809 2.18501126,13.1100676 2.1940665,13.164399 L3.52739983,21.164399 C3.60776449,21.646587 4.0249546,22 4.51379376,22 L19.4862062,22 C19.9750454,22 20.3922355,21.646587 20.4726002,21.164399 L21.8059335,13.164399 C21.8967286,12.6196287 21.5287089,12.1044011 20.9839386,12.0136061 C20.9296071,12.0045508 20.8746204,12 20.8195396,12 Z" id="message-aarchived"></path>
                </g>
            </g>
        </g>
    </g>
</svg>