<?xml version="1.0" encoding="UTF-8"?>
<svg width="25px" height="20px" viewBox="0 0 25 20" version="1.1" xmlns="http://www.w3.org/2000/svg" xmlns:xlink="http://www.w3.org/1999/xlink">
    <!-- Generator: Sketch 52.3 (67297) - http://www.bohemiancoding.com/sketch -->
    <title>messages-new</title>
    <desc>Created with Sketch.</desc>
    <g id="Pages" stroke="none" stroke-width="1" fill="none" fill-rule="evenodd">
        <g id="Messages-/-1" transform="translate(-1136.000000, -211.000000)" fill="#333333">
            <g id="Icon-/-Filter" transform="translate(1133.000000, 205.000000)">
                <g id="messages-new" transform="translate(3.000000, 6.000000)">
                    <path d="M21.7104869,0.25 C22.2186224,0.25 22.6505312,0.427844777 23.0062261,0.783539666 C23.361921,1.13923456 23.5397657,1.5711433 23.5397657,2.07927886 C23.5397657,5.34161849 23.5397657,7.78837322 23.5397657,9.41954304 C23.5397657,10.3674792 23.5397657,11.5908565 23.5397657,13.0896751 C23.5397657,13.8098667 23.5397657,15.0332441 23.5397657,16.7598072 C23.5397657,17.2679428 23.361921,17.6998515 23.0062261,18.0555464 C22.6505312,18.4112413 22.2186224,18.5890861 21.7104869,18.5890861 C19.4604834,18.5890861 17.8662161,18.5890861 16.9276849,18.5890861 C14.9744711,18.5890861 13.3802037,18.5890861 12.1448829,18.5890861 C10.0191931,18.5890861 6.83065842,18.5890861 2.57927886,18.5890861 C2.0711433,18.5890861 1.63923456,18.4112413 1.28353967,18.0555464 C0.927844777,17.6998515 0.75,17.2679428 0.75,16.7598072 L0.75,2.07927886 C0.75,1.5711433 0.927844777,1.13923456 1.28353967,0.783539666 C1.63923456,0.427844777 2.0711433,0.25 2.57927886,0.25 L21.7104869,0.25 Z M19.9155878,1.92357257 L4.3741779,1.92357257 L11.4832703,7.78727649 L11.5351614,7.81322208 C11.7081329,8.00349071 11.924344,8.0986236 12.1838013,8.0986236 L12.2097468,8.0986236 C12.4692041,8.0986236 12.6940636,8.00349071 12.8843323,7.81322208 L12.9102778,7.7613309 L12.962169,7.73538531 L19.9155878,1.92357257 Z M13.622909,16.9155135 L2.37636727,16.9155135 L2.37636727,2.67599476 L10.2378818,9.1623929 C10.7740934,9.69860449 11.4313752,9.96670627 12.2097468,9.96670627 C12.9881185,9.96670627 13.6454003,9.68995605 14.1816119,9.1364473 L21.9133985,2.67599476 L21.9133985,12.5285142 L23.5368551,12.5285142 L23.5368551,16.5 C23.5877706,16.9998785 23.4848046,17.429583 23.2279572,17.7891135 C22.9711097,18.1486439 22.576817,18.4053234 22.045079,18.5591518 L13.622909,18.5591518 L13.622909,16.9155135 Z" id="Combined-Shape"></path>
                    <path d="M23.4090402,14.4017857 C23.6252801,14.4017857 23.8090813,14.4774686 23.9604492,14.6288365 C24.1118172,14.7802044 24.1875,14.9640056 24.1875,15.1802455 C24.1875,15.3964855 24.1118172,15.5802866 23.9604492,15.7316546 C23.8090813,15.8830225 23.6252801,15.9587054 23.4090402,15.9587054 L20.0357143,15.9587054 L20.0357143,19.1590402 C20.0357143,19.3752801 19.9600314,19.5590813 19.8086635,19.7104492 C19.6572956,19.8618172 19.4734944,19.9375 19.2572545,19.9375 C19.0410145,19.9375 18.8572134,19.8618172 18.7058454,19.7104492 C18.5544775,19.5590813 18.4787946,19.3752801 18.4787946,19.1590402 L18.4787946,15.9587054 L15.2784598,15.9587054 C15.0622199,15.9587054 14.8784187,15.8830225 14.7270508,15.7316546 C14.5756828,15.5802866 14.5,15.3964855 14.5,15.1802455 C14.5,14.9640056 14.5756828,14.7802044 14.7270508,14.6288365 C14.8784187,14.4774686 15.0622199,14.4017857 15.2784598,14.4017857 L18.4787946,14.4017857 L18.4787946,11.0284598 C18.4787946,10.8122199 18.5544775,10.6284187 18.7058454,10.4770508 C18.8572134,10.3256828 19.0410145,10.25 19.2572545,10.25 C19.4734944,10.25 19.6572956,10.3256828 19.8086635,10.4770508 C19.9600314,10.6284187 20.0357143,10.8122199 20.0357143,11.0284598 L20.0357143,14.4017857 L23.4090402,14.4017857 Z" id="Path-Copy" fill-rule="nonzero"></path>
                </g>
            </g>
        </g>
    </g>
</svg>