<?xml version="1.0" encoding="UTF-8"?>
<svg width="20px" height="19px" viewBox="0 0 20 19" version="1.1" xmlns="http://www.w3.org/2000/svg" xmlns:xlink="http://www.w3.org/1999/xlink">
    <!-- Generator: Sketch 52.3 (67297) - http://www.bohemiancoding.com/sketch -->
    <title>message-all</title>
    <desc>Created with Sketch.</desc>
    <g id="Symbols" stroke="none" stroke-width="1" fill="none" fill-rule="evenodd">
        <g id="Left-Navigation-/-Messages" transform="translate(-22.000000, -256.000000)" fill="#333333" fill-rule="nonzero">
            <g id="Class-2-Copy" transform="translate(0.000000, 238.000000)">
                <g id="Icon" transform="translate(20.000000, 15.000000)">
                    <g id="iconmonstr-inbox-14" transform="translate(2.000000, 3.000000)">
                        <path d="M14.6814161,0 L5.06353275,2.22044605e-16 C4.71474932,2.86115081e-16 4.39116522,0.18172634 4.20964078,0.479549709 L0,7.3862198 L0,17.0833336 C6.76353751e-17,17.6356183 0.44771525,18.0833336 1,18.0833336 L18.727273,18.0833336 C19.2795577,18.0833336 19.727273,17.6356183 19.727273,17.0833336 L19.727273,7.3862198 L15.536279,0.481145996 C15.354966,0.182415095 15.030865,-2.40849483e-16 14.6814161,4.4408921e-16 Z M5.19021887,0.951754399 L14.5443485,0.951754399 L17.8848743,6.66228079 L13.8002092,6.66228079 L11.2297706,9.04166679 L8.48750633,9.04166679 L5.80699571,6.66228079 L2,6.66228079 L5.19021887,0.951754399 Z M18.5592108,16.6773328 L1.16806222,16.6773328 L1.16806222,7.98175848 L5.15585258,7.98175848 L7.76452487,10.5904308 L11.9627481,10.5904308 L14.5714204,7.98175848 L18.5592108,7.98175848 L18.5592108,16.6773328 Z" id="message-all"></path>
                    </g>
                </g>
            </g>
        </g>
    </g>
</svg>