<?xml version="1.0" encoding="UTF-8"?>
<svg width="19px" height="19px" viewBox="0 0 19 19" version="1.1" xmlns="http://www.w3.org/2000/svg" xmlns:xlink="http://www.w3.org/1999/xlink">
    <!-- Generator: Sketch 51.3 (57544) - http://www.bohemiancoding.com/sketch -->
    <title>notes</title>
    <desc>Created with Sketch.</desc>
    <defs></defs>
    <g id="Symbols" stroke="none" stroke-width="1" fill="none" fill-rule="evenodd">
        <g id="1-Left-Navigation-/-Main" transform="translate(-23.000000, -128.000000)" fill="#333333">
            <g id="Study-Notes" transform="translate(0.000000, 110.000000)">
                <g id="Icon" transform="translate(20.000000, 15.000000)">
                    <path d="M16.59375,7.90625 L4.40625,7.90625 L4.40625,20.09375 L16.59375,20.09375 L16.59375,7.90625 Z M16.59375,6.5 C16.984377,6.5 17.3164049,6.63671738 17.5898438,6.91015625 C17.8632826,7.18359512 18,7.51562305 18,7.90625 L18,20.09375 C18,20.484377 17.8632826,20.8164049 17.5898438,21.0898438 C17.3164049,21.3632826 16.984377,21.5 16.59375,21.5 L4.40625,21.5 C4.01562305,21.5 3.68359512,21.3632826 3.41015625,21.0898438 C3.13671738,20.8164049 3,20.484377 3,20.09375 L3,7.90625 C3,7.51562305 3.13671738,7.18359512 3.41015625,6.91015625 C3.68359512,6.63671738 4.01562305,6.5 4.40625,6.5 L16.59375,6.5 Z M20.59375,3 C20.984377,3 21.3164049,3.13671738 21.5898438,3.41015625 C21.8632826,3.68359512 22,4.01562305 22,4.40625 L22,17.296875 C22,17.4921885 21.9316413,17.6582024 21.7949219,17.7949219 C21.6582024,17.9316413 21.4921885,18 21.296875,18 C21.1015615,18 20.9355476,17.9316413 20.7988281,17.7949219 C20.6621087,17.6582024 20.59375,17.4921885 20.59375,17.296875 L20.59375,4.40625 L7.703125,4.40625 C7.50781152,4.40625 7.34179756,4.33789131 7.20507812,4.20117188 C7.06835869,4.06445244 7,3.89843848 7,3.703125 C7,3.50781152 7.06835869,3.34179756 7.20507812,3.20507812 C7.34179756,3.06835869 7.50781152,3 7.703125,3 L20.59375,3 Z" id="notes"></path>
                </g>
            </g>
        </g>
    </g>
</svg>