<?xml version="1.0" encoding="UTF-8"?>
<svg width="18px" height="19px" viewBox="0 0 18 19" version="1.1" xmlns="http://www.w3.org/2000/svg" xmlns:xlink="http://www.w3.org/1999/xlink">
    <!-- Generator: Sketch 51.3 (57544) - http://www.bohemiancoding.com/sketch -->
    <title>notify</title>
    <desc>Created with Sketch.</desc>
    <defs></defs>
    <g id="Pages" stroke="none" stroke-width="1" fill="none" fill-rule="evenodd">
        <g id="Notes-/-Flash-card-/-6" transform="translate(-1117.000000, -118.000000)">
            <g id="Page-title" transform="translate(450.000000, 105.000000)">
                <g id="Icon-/-Search-/-Active-Copy-9" transform="translate(664.000000, 10.000000)">
                    <g id="notify" transform="translate(3.000000, 3.000000)">
                        <path d="M17.0078125,6.8828125 C17.203126,6.8828125 17.3691399,6.95117119 17.5058594,7.08789062 C17.6425788,7.22461006 17.7109375,7.39062402 17.7109375,7.5859375 L17.7109375,10.28125 C17.7109375,10.4765635 17.6425788,10.6425774 17.5058594,10.7792969 C17.3691399,10.9160163 17.203126,10.984375 17.0078125,10.984375 L15.8945312,10.984375 L15.8945312,11.4335938 C15.8945312,11.6419281 15.7708346,11.9348939 15.5234375,12.3125 C15.4453121,12.4296881 15.3802086,12.520833 15.328125,12.5859375 C15.3411459,13.028648 15.3020838,13.471352 15.2109375,13.9140625 C14.9374986,15.2161523 14.2539117,16.3164018 13.1601562,17.2148438 C12.9257801,17.4101572 12.665366,17.5078125 12.3789062,17.5078125 C12.1315092,17.5078125 11.9036469,17.442709 11.6953125,17.3125 C11.4739572,17.1562492 11.3144536,16.9511731 11.2167969,16.6972656 C11.1191401,16.4433581 11.1093746,16.1861992 11.1875,15.9257812 C11.5390643,14.6627541 11.701823,13.549484 11.6757813,12.5859375 L11.5976562,12.5859375 C11.4544264,12.8723973 11.2591158,13.015625 11.0117187,13.015625 C10.2955693,13.015625 9.56966514,13.1132803 8.83398438,13.3085938 C8.09830361,13.5039072 7.44075811,13.7415351 6.86132812,14.0214844 C6.28189814,14.3014337 5.70247686,14.6367168 5.12304688,15.0273438 C4.54361689,15.4179707 4.06510605,15.77604 3.6875,16.1015625 C3.30989395,16.427085 2.94856943,16.7656232 2.60351562,17.1171875 C2.25846182,17.4687518 2.03059951,17.7031244 1.91992188,17.8203125 C1.80924424,17.9375006 1.72786484,18.0351559 1.67578125,18.1132812 C1.53255137,18.2044275 1.37630293,18.25 1.20703125,18.25 C0.95963418,18.25 0.744792578,18.1588551 0.5625,17.9765625 C0.380207422,17.7942699 0.2890625,17.572918 0.2890625,17.3125 L0.2890625,1.66796875 C0.2890625,1.40755078 0.380207422,1.189454 0.5625,1.01367188 C0.744792578,0.837889746 0.95963418,0.75 1.20703125,0.75 C1.36328203,0.75 1.50650977,0.789062109 1.63671875,0.8671875 C1.62369785,0.8671875 1.78645664,1.01367041 2.125,1.30664062 C2.46354336,1.59961084 2.93228867,1.95116982 3.53125,2.36132812 C4.13021133,2.77148643 4.80077754,3.18489375 5.54296875,3.6015625 C6.28515996,4.01823125 7.14452637,4.37304541 8.12109375,4.66601562 C9.09766113,4.95898584 10.0416621,5.10546875 10.953125,5.10546875 C11.2265639,5.10546875 11.4414055,5.26171719 11.5976562,5.57421875 L14.9570312,5.57421875 C15.2174492,5.57421875 15.4388012,5.66861885 15.6210938,5.85742188 C15.8033863,6.0462249 15.8945312,6.27083203 15.8945312,6.53125 L15.8945312,6.8828125 L17.0078125,6.8828125 Z M10.40625,11.6289062 L10.40625,6.4921875 C9.28645273,6.44010391 8.13412051,6.1992209 6.94921875,5.76953125 C5.88150508,5.3789043 4.80729707,4.85156582 3.7265625,4.1875 C3.02343398,3.74478945 2.34635742,3.26953379 1.6953125,2.76171875 L1.6953125,16.0234375 C2.28125293,15.450518 2.88671562,14.9231795 3.51171875,14.4414062 C4.59245332,13.6341105 5.67968203,12.9960961 6.7734375,12.5273438 C7.99740195,12.0065078 9.20832734,11.7070316 10.40625,11.6289062 Z M14.4882812,11.3164062 L14.4882812,6.98046875 L11.8125,6.98046875 L11.8125,10.4179688 C11.8385418,10.4830732 11.8515625,10.5416664 11.8515625,10.59375 L11.8515625,11.1796875 L12.3398438,11.1796875 C12.5221363,11.1796875 12.6783848,11.2382807 12.8085938,11.3554688 C12.9388027,11.4726568 13.016927,11.6223949 13.0429688,11.8046875 C13.1861986,12.9244848 13.0690123,14.2395758 12.6914062,15.75 C13.2903676,15.1380178 13.6744783,14.4283895 13.84375,13.6210938 C13.9348963,13.1914041 13.9544273,12.800783 13.9023438,12.4492188 C13.8632811,12.2278635 13.9153639,12.0325529 14.0585938,11.8632812 C14.0976564,11.8111977 14.1497393,11.7656252 14.2148438,11.7265625 C14.3190109,11.5833326 14.4101559,11.4466152 14.4882812,11.3164062 Z M16.3046875,9.578125 L16.3046875,8.2890625 L15.8945312,8.2890625 L15.8945312,9.578125 L16.3046875,9.578125 Z" id="notification---anticon" fill="#333333"></path>
                        <circle id="Oval-5" fill="#D0021B" fill-rule="nonzero" cx="16.5" cy="2.5" r="1.5"></circle>
                    </g>
                </g>
            </g>
        </g>
    </g>
</svg>