<?xml version="1.0" encoding="UTF-8"?>
<svg width="18px" height="16px" viewBox="0 0 18 16" version="1.1" xmlns="http://www.w3.org/2000/svg" xmlns:xlink="http://www.w3.org/1999/xlink">
    <!-- Generator: Sketch 52.3 (67297) - http://www.bohemiancoding.com/sketch -->
    <title>picture</title>
    <desc>Created with Sketch.</desc>
    <g id="Symbols" stroke="none" stroke-width="1" fill="none" fill-rule="evenodd">
        <g id="Add-note-/-Flashcard-2" transform="translate(-386.000000, -81.000000)" fill="#333333">
            <g id="Group-2" transform="translate(74.000000, 29.000000)">
                <g id="Icon-/-Calendar" transform="translate(309.000000, 47.000000)">
                    <path d="M19.3046875,5 C19.6953145,5 20.0273424,5.13671738 20.3007812,5.41015625 C20.5742201,5.68359512 20.7109375,6.01562305 20.7109375,6.40625 L20.7109375,18.6328125 C20.7109375,19.0104186 20.5742201,19.3391913 20.3007812,19.6191406 C20.0273424,19.8990899 19.6953145,20.0390625 19.3046875,20.0390625 L4.6171875,20.0390625 C4.22656055,20.0390625 3.89453262,19.8990899 3.62109375,19.6191406 C3.34765488,19.3391913 3.2109375,19.0104186 3.2109375,18.6328125 L3.2109375,6.40625 C3.2109375,6.02864395 3.34765488,5.69987119 3.62109375,5.41992188 C3.89453262,5.13997256 4.22656055,5 4.6171875,5 L19.3046875,5 Z M19.3046875,18.6328125 L19.3046875,15.3320312 L16.5507812,14.0234375 L13.40625,16.1523438 C13.2630201,16.24349 13.1035165,16.279297 12.9277344,16.2597656 C12.7519522,16.2402343 12.6054693,16.1653652 12.4882812,16.0351562 L8.25,10.7617188 L4.6171875,14.4726562 L4.6171875,18.6328125 L19.3046875,18.6328125 Z M19.3046875,13.5546875 L19.3046875,6.40625 L4.6171875,6.40625 L4.6171875,12.4609375 L7.76171875,9.23828125 C7.90494863,9.09505137 8.08072813,9.0234375 8.2890625,9.0234375 C8.49739687,9.0234375 8.66666602,9.10156172 8.796875,9.2578125 L13.1328125,14.6289062 L16.1796875,12.578125 C16.4531264,12.3958324 16.7265611,12.4088531 17,12.6171875 L19.3046875,13.5546875 Z M16.9804688,8.4375 C17.3710957,8.81510605 17.5664062,9.27734102 17.5664062,9.82421875 C17.5664062,10.3710965 17.3743509,10.8365866 16.9902344,11.2207031 C16.6061179,11.6048196 16.1406277,11.796875 15.59375,11.796875 C15.0468723,11.796875 14.5813821,11.6048196 14.1972656,11.2207031 C13.8131491,10.8365866 13.6210938,10.3710965 13.6210938,9.82421875 C13.6210938,9.27734102 13.8131491,8.81185088 14.1972656,8.42773438 C14.5813821,8.04361787 15.0468723,7.8515625 15.59375,7.8515625 C16.1406277,7.8515625 16.6028627,8.04687305 16.9804688,8.4375 Z M15.984375,10.234375 C16.1015631,10.1171869 16.1601562,9.98046953 16.1601562,9.82421875 C16.1601562,9.66796797 16.1048183,9.53450576 15.9941406,9.42382812 C15.883463,9.31315049 15.7500008,9.2578125 15.59375,9.2578125 C15.4374992,9.2578125 15.304037,9.31315049 15.1933594,9.42382812 C15.0826817,9.53450576 15.0273438,9.66796797 15.0273438,9.82421875 C15.0273438,9.98046953 15.0826817,10.1139317 15.1933594,10.2246094 C15.304037,10.335287 15.4374992,10.390625 15.59375,10.390625 C15.7500008,10.390625 15.8802078,10.3385422 15.984375,10.234375 Z" id="picture"></path>
                </g>
            </g>
        </g>
    </g>
</svg>