<?xml version="1.0" encoding="UTF-8"?>
<svg width="20px" height="21px" viewBox="0 0 20 21" version="1.1" xmlns="http://www.w3.org/2000/svg" xmlns:xlink="http://www.w3.org/1999/xlink">
    <!-- Generator: Sketch 51.3 (57544) - http://www.bohemiancoding.com/sketch -->
    <title>plus</title>
    <desc>Created with Sketch.</desc>
    <defs></defs>
    <g id="Symbols" stroke="none" stroke-width="1" fill="none" fill-rule="evenodd">
        <g id="Icon-/-Folders-/-Add" transform="translate(-2.000000, -2.000000)" fill="#333333">
            <path d="M17.0195312,3.84765625 C18.5559973,4.73307734 19.7701778,5.94400273 20.6621094,7.48046875 C21.5540409,9.01693477 22,10.6900951 22,12.5 C22,14.3099049 21.5540409,15.9830652 20.6621094,17.5195312 C19.7701778,19.0559973 18.5559973,20.2701778 17.0195312,21.1621094 C15.4830652,22.0540409 13.8099049,22.5 12,22.5 C10.1900951,22.5 8.51693477,22.0540409 6.98046875,21.1621094 C5.44400273,20.2701778 4.22982217,19.0559973 3.33789062,17.5195312 C2.44595908,15.9830652 2,14.3099049 2,12.5 C2,10.6900951 2.44595908,9.01693477 3.33789062,7.48046875 C4.22982217,5.94400273 5.44400273,4.72982217 6.98046875,3.83789062 C8.51693477,2.94595908 10.1900951,2.5 12,2.5 C13.8099049,2.5 15.4830652,2.94921426 17.0195312,3.84765625 Z M18.0742188,18.5742188 C18.8684936,17.7799439 19.486977,16.8684947 19.9296875,15.8398438 C20.372398,14.785151 20.59375,13.6718809 20.59375,12.5 C20.59375,11.3281191 20.3658877,10.214849 19.9101562,9.16015625 C19.4804666,8.13150527 18.8684936,7.22005605 18.0742188,6.42578125 C17.2799439,5.63150645 16.3684947,5.01302305 15.3398438,4.5703125 C14.285151,4.12760195 13.1718809,3.90625 12,3.90625 C10.8281191,3.90625 9.71484902,4.1341123 8.66015625,4.58984375 C7.63150527,5.0195334 6.72005605,5.63150645 5.92578125,6.42578125 C5.13150645,7.22005605 4.51302305,8.13150527 4.0703125,9.16015625 C3.62760195,10.214849 3.40625,11.3281191 3.40625,12.5 C3.40625,13.6718809 3.6341123,14.785151 4.08984375,15.8398438 C4.5195334,16.8684947 5.13150645,17.7799439 5.92578125,18.5742188 C6.72005605,19.3684936 7.63150527,19.986977 8.66015625,20.4296875 C9.71484902,20.872398 10.8281191,21.09375 12,21.09375 C13.1718809,21.09375 14.285151,20.8658877 15.3398438,20.4101562 C16.3684947,19.9804666 17.2799439,19.3684936 18.0742188,18.5742188 Z M16.296875,11.796875 C16.4921885,11.796875 16.6582024,11.8684889 16.7949219,12.0117188 C16.9316413,12.1549486 17,12.3177074 17,12.5 C17,12.6953135 16.9316413,12.8613274 16.7949219,12.9980469 C16.6582024,13.1347663 16.4921885,13.203125 16.296875,13.203125 L12.703125,13.203125 L12.703125,16.7773438 C12.703125,16.9726572 12.6347663,17.1386712 12.4980469,17.2753906 C12.3613274,17.4121101 12.1953135,17.4804688 12,17.4804688 C11.8177074,17.4804688 11.6549486,17.4121101 11.5117188,17.2753906 C11.3684889,17.1386712 11.296875,16.9726572 11.296875,16.7773438 L11.296875,13.203125 L7.703125,13.203125 C7.50781152,13.203125 7.34179756,13.1347663 7.20507812,12.9980469 C7.06835869,12.8613274 7,12.6953135 7,12.5 C7,12.3177074 7.06835869,12.1549486 7.20507812,12.0117188 C7.34179756,11.8684889 7.50781152,11.796875 7.703125,11.796875 L11.296875,11.796875 L11.296875,8.22265625 C11.296875,8.02734277 11.3684889,7.86132881 11.5117188,7.72460938 C11.6549486,7.58788994 11.8177074,7.51953125 12,7.51953125 C12.1953135,7.51953125 12.3613274,7.58788994 12.4980469,7.72460938 C12.6347663,7.86132881 12.703125,8.02734277 12.703125,8.22265625 L12.703125,11.796875 L16.296875,11.796875 Z" id="plus"></path>
        </g>
    </g>
</svg>