<?xml version="1.0" encoding="UTF-8"?>
<svg width="26px" height="26px" viewBox="0 0 26 26" version="1.1" xmlns="http://www.w3.org/2000/svg" xmlns:xlink="http://www.w3.org/1999/xlink">
    <!-- Generator: Sketch 51.3 (57544) - http://www.bohemiancoding.com/sketch -->
    <title>prev-next</title>
    <desc>Created with Sketch.</desc>
    <defs></defs>
    <g id="Symbols" stroke="none" stroke-width="1" fill="none" fill-rule="evenodd">
        <g id="Read-/-Full-screen" transform="translate(-1032.000000, -24.000000)" fill="#333333">
            <g id="Icon-/-Arrow-/-Circ;e-/-Left" transform="translate(1030.000000, 21.000000)">
                <path d="M19.8583984,4.75097656 C21.4046301,5.40202148 22.7311143,6.28498792 23.8378906,7.39990234 C24.944667,8.51481677 25.8317024,9.8413009 26.4990234,11.3793945 C27.1663445,12.9174882 27.5,14.5369381 27.5,16.237793 C27.5,17.9386478 27.1663445,19.5580978 26.4990234,21.0961914 C25.8317024,22.634285 24.944667,23.9607692 23.8378906,25.0756836 C22.7311143,26.190598 21.4046301,27.0776334 19.8583984,27.7368164 C18.3121667,28.3959994 16.6927168,28.7255859 15,28.7255859 C13.3072832,28.7255859 11.6878333,28.3959994 10.1416016,27.7368164 C8.59536987,27.0776334 7.26888574,26.190598 6.16210938,25.0756836 C5.05533301,23.9607692 4.16829761,22.634285 3.50097656,21.0961914 C2.83365552,19.5580978 2.5,17.9386478 2.5,16.237793 C2.5,14.5369381 2.83365552,12.9174882 3.50097656,11.3793945 C4.16829761,9.8413009 5.05533301,8.51481677 6.16210938,7.39990234 C7.26888574,6.28498792 8.59536987,5.39795251 10.1416016,4.73876953 C11.6878333,4.07958655 13.3072832,3.75 15,3.75 C16.6927168,3.75 18.3121667,4.08365552 19.8583984,4.75097656 Z M18.0761719,21.5722656 C18.0761719,21.3281238 17.9866545,21.1246753 17.8076172,20.9619141 L12.7539062,16.2255859 L17.8076172,11.4648438 C17.9866545,11.3020825 18.0802408,11.098634 18.0883789,10.8544922 C18.096517,10.6103503 18.0192065,10.3987639 17.8564453,10.2197266 C17.6936841,10.0406892 17.4902356,9.94710291 17.2460938,9.93896484 C17.0019519,9.93082678 16.7903655,10.0162751 16.6113281,10.1953125 L10.8496094,15.5664062 C10.670572,15.7454436 10.5810547,15.961099 10.5810547,16.2133789 C10.5810547,16.4656588 10.67871,16.6813142 10.8740234,16.8603516 L16.6113281,22.2558594 C16.7903655,22.4186206 17.0019519,22.495931 17.2460938,22.487793 C17.4902356,22.4796549 17.6936841,22.3860686 17.8564453,22.2070312 C18.0192065,22.0279939 18.092448,21.8164075 18.0761719,21.5722656 Z" id="prev-next"></path>
            </g>
        </g>
    </g>
</svg>