<?xml version="1.0" encoding="UTF-8"?>
<svg width="16px" height="18px" viewBox="0 0 16 18" version="1.1" xmlns="http://www.w3.org/2000/svg" xmlns:xlink="http://www.w3.org/1999/xlink">
    <!-- Generator: Sketch 51.3 (57544) - http://www.bohemiancoding.com/sketch -->
    <title>profile</title>
    <desc>Created with Sketch.</desc>
    <defs></defs>
    <g id="Symbols" stroke="none" stroke-width="1" fill="none" fill-rule="evenodd">
        <g id="Icon-/-Settings-/--Username" transform="translate(-4.000000, -2.000000)" fill="#333333">
            <g id="profile" transform="translate(4.000000, 2.000000)">
                <path d="M11.0859375,8.23046875 C10.2395791,9.08984805 9.21094355,9.51953125 8,9.51953125 C6.78905645,9.51953125 5.75716572,9.08984805 4.90429688,8.23046875 C4.05142803,7.37108945 3.625,6.33919873 3.625,5.13476562 C3.625,3.93033252 4.05142803,2.8984418 4.90429688,2.0390625 C5.75716572,1.1796832 6.78905645,0.75 8,0.75 C9.21094355,0.75 10.2428343,1.1796832 11.0957031,2.0390625 C11.948572,2.8984418 12.375,3.93033252 12.375,5.13476562 C12.375,6.33919873 11.9453168,7.37108945 11.0859375,8.23046875 Z M10.0898438,7.25390625 C10.6757842,6.66796582 10.96875,5.96159268 10.96875,5.13476562 C10.96875,4.30793857 10.6790394,3.60482061 10.0996094,3.02539062 C9.52017939,2.44596064 8.8203166,2.15625 8,2.15625 C7.1796834,2.15625 6.47982061,2.44596064 5.90039062,3.02539062 C5.32096064,3.60482061 5.03125,4.30793857 5.03125,5.13476562 C5.03125,5.96159268 5.32096064,6.66471064 5.90039062,7.24414062 C6.47982061,7.82357061 7.1796834,8.11328125 8,8.11328125 C8.8203166,8.11328125 9.51692422,7.82682578 10.0898438,7.25390625 Z M12.1015625,10.75 C11.4114549,10.7890627 10.7669301,10.9843732 10.1679688,11.3359375 C9.47786113,11.0624986 8.75521211,10.9257812 8,10.9257812 C6.3203041,10.9257812 4.88477158,11.5214784 3.69335938,12.7128906 C2.50194717,13.9043028 1.90625,15.3463457 1.90625,17.0390625 C1.90625,17.0520834 1.90625,17.0651041 1.90625,17.078125 C1.90625,17.2734385 1.83789131,17.4394524 1.70117188,17.5761719 C1.56445244,17.7128913 1.39843848,17.78125 1.203125,17.78125 C1.00781152,17.78125 0.841797559,17.7128913 0.705078125,17.5761719 C0.568358691,17.4394524 0.5,17.2734385 0.5,17.078125 C0.5,17.078125 0.5,17.0716146 0.5,17.0585938 C0.5,17.0455729 0.5,17.0390625 0.5,17.0390625 C0.5,15.6718682 0.835283105,14.4121151 1.50585938,13.2597656 C2.17643564,12.1074161 3.08788486,11.1959669 4.24023438,10.5253906 C5.39258389,9.85481436 6.64582656,9.51953125 8,9.51953125 C9.49740332,9.51953125 10.8645771,9.9296834 12.1015625,10.75 Z" id="user-add---anticon"></path>
                <path d="M15.6015625,10.7304688 C14.9114549,10.7695314 14.2669301,10.964842 13.6679688,11.3164062 C12.9778611,11.0429674 12.2552121,10.90625 11.5,10.90625 C9.8203041,10.90625 8.38477158,11.5019472 7.19335938,12.6933594 C6.00194717,13.8847716 5.40625,15.3268145 5.40625,17.0195312 C5.40625,17.0325521 5.40625,17.0455729 5.40625,17.0585938 C5.40625,17.2539072 5.33789131,17.4199212 5.20117188,17.5566406 C5.06445244,17.6933601 4.89843848,17.7617188 4.703125,17.7617188 C4.50781152,17.7617188 4.34179756,17.6933601 4.20507812,17.5566406 C4.06835869,17.4199212 4,17.2539072 4,17.0585938 C4,17.0585938 4,17.0520834 4,17.0390625 C4,17.0260416 4,17.0195312 4,17.0195312 C4,15.6523369 4.33528311,14.3925839 5.00585938,13.2402344 C5.67643564,12.0878849 6.58788486,11.1764356 7.74023438,10.5058594 C8.89258389,9.83528311 10.1458266,9.5 11.5,9.5 C12.9974033,9.5 14.3645771,9.91015215 15.6015625,10.7304688 Z" id="Path" fill-rule="nonzero" transform="translate(9.800781, 13.630859) scale(-1, 1) translate(-9.800781, -13.630859) "></path>
            </g>
        </g>
    </g>
</svg>