<?xml version="1.0" encoding="UTF-8"?>
<svg width="20px" height="20px" viewBox="0 0 20 20" version="1.1" xmlns="http://www.w3.org/2000/svg" xmlns:xlink="http://www.w3.org/1999/xlink">
    <!-- Generator: Sketch 51.3 (57544) - http://www.bohemiancoding.com/sketch -->
    <title>recent</title>
    <desc>Created with Sketch.</desc>
    <defs></defs>
    <g id="Symbols" stroke="none" stroke-width="1" fill="none" fill-rule="evenodd">
        <g id="1-Left-Navigation-/-Main" transform="translate(-22.000000, -181.000000)" fill="#333333">
            <g id="Last-Activity" transform="translate(0.000000, 164.000000)">
                <g id="Icon" transform="translate(20.000000, 15.000000)">
                    <path d="M17.0195312,3.34765625 C18.5559973,4.23307734 19.7701778,5.44400273 20.6621094,6.98046875 C21.5540409,8.51693477 22,10.1900951 22,12 C22,13.8099049 21.5540409,15.4830652 20.6621094,17.0195312 C19.7701778,18.5559973 18.5559973,19.7701778 17.0195312,20.6621094 C15.4830652,21.5540409 13.8099049,22 12,22 C10.1900951,22 8.51693477,21.5540409 6.98046875,20.6621094 C5.44400273,19.7701778 4.22982217,18.5559973 3.33789062,17.0195312 C2.44595908,15.4830652 2,13.8099049 2,12 C2,10.1900951 2.44595908,8.51693477 3.33789062,6.98046875 C4.22982217,5.44400273 5.44400273,4.22982217 6.98046875,3.33789062 C8.51693477,2.44595908 10.1900951,2 12,2 C13.8099049,2 15.4830652,2.44921426 17.0195312,3.34765625 Z M18.0742188,18.0742188 C18.8684936,17.2799439 19.486977,16.3684947 19.9296875,15.3398438 C20.372398,14.285151 20.59375,13.1718809 20.59375,12 C20.59375,10.8281191 20.3658877,9.71484902 19.9101562,8.66015625 C19.4804666,7.63150527 18.8684936,6.72005605 18.0742188,5.92578125 C17.2799439,5.13150645 16.3684947,4.51302305 15.3398438,4.0703125 C14.285151,3.62760195 13.1718809,3.40625 12,3.40625 C10.8281191,3.40625 9.71484902,3.6341123 8.66015625,4.08984375 C7.63150527,4.5195334 6.72005605,5.13150645 5.92578125,5.92578125 C5.13150645,6.72005605 4.51302305,7.63150527 4.0703125,8.66015625 C3.62760195,9.71484902 3.40625,10.8281191 3.40625,12 C3.40625,13.1718809 3.6341123,14.285151 4.08984375,15.3398438 C4.5195334,16.3684947 5.13150645,17.2799439 5.92578125,18.0742188 C6.72005605,18.8684936 7.63150527,19.486977 8.66015625,19.9296875 C9.71484902,20.372398 10.8281191,20.59375 12,20.59375 C13.1718809,20.59375 14.285151,20.3658877 15.3398438,19.9101562 C16.3684947,19.4804666 17.2799439,18.8684936 18.0742188,18.0742188 Z M16.3164062,11.84375 C16.5117197,11.84375 16.6777337,11.9121087 16.8144531,12.0488281 C16.9511726,12.1855476 17.0195312,12.3515615 17.0195312,12.546875 C17.0195312,12.7421885 16.9511726,12.9082024 16.8144531,13.0449219 C16.6777337,13.1816413 16.5117197,13.25 16.3164062,13.25 L12.703125,13.25 C12.312498,13.25 11.9804701,13.1132826 11.7070312,12.8398438 C11.4335924,12.5664049 11.296875,12.234377 11.296875,11.84375 L11.296875,7.15625 C11.296875,6.96093652 11.3652337,6.79492256 11.5019531,6.65820312 C11.6386726,6.52148369 11.8046865,6.453125 12,6.453125 C12.1953135,6.453125 12.3613274,6.52148369 12.4980469,6.65820312 C12.6347663,6.79492256 12.703125,6.96093652 12.703125,7.15625 L12.703125,11.84375 L16.3164062,11.84375 Z" id="recent"></path>
                </g>
            </g>
        </g>
    </g>
</svg>