<?xml version="1.0" encoding="UTF-8"?>
<svg width="17px" height="20px" viewBox="0 0 17 20" version="1.1" xmlns="http://www.w3.org/2000/svg" xmlns:xlink="http://www.w3.org/1999/xlink">
    <!-- Generator: Sketch 51.3 (57544) - http://www.bohemiancoding.com/sketch -->
    <title>safety</title>
    <desc>Created with Sketch.</desc>
    <defs></defs>
    <g id="Pages" stroke="none" stroke-width="1" fill="none" fill-rule="evenodd">
        <g id="Notes-/-Flash-card-/-7" transform="translate(-1130.000000, -565.000000)" fill="#333333">
            <g id="Public-note" transform="translate(451.000000, 548.000000)">
                <g id="NAv-Copy-4" transform="translate(670.000000, 0.000000)">
                    <g id="Icon" transform="translate(6.000000, 15.000000)">
                        <path d="M11.5,2.75 L19.5,5.41666667 L19.5,13.4166667 C19.5,15.625011 18.7187578,17.5104089 17.15625,19.0729167 C15.5937422,20.6354245 13.7083444,21.4166667 11.5,21.4166667 C9.29165563,21.4166667 7.40625781,20.6354245 5.84375,19.0729167 C4.28124219,17.5104089 3.5,15.625011 3.5,13.4166667 L3.5,5.41666667 L11.5,2.75 Z M18,13.4166667 L18,6.54166667 L11.5,4.25 L5,6.54166667 L5,13.4166667 C5,15.2083423 5.63541031,16.739577 6.90625,18.0104167 C8.17708969,19.2812564 9.70832438,19.9166667 11.5,19.9166667 C13.2916756,19.9166667 14.8229103,19.2812564 16.09375,18.0104167 C17.3645897,16.739577 18,15.2083423 18,13.4166667 Z M8.70833333,11.3125 L10.8958333,13.5 L15,9.39583333 C15.1388896,9.25694375 15.3055546,9.1875 15.5,9.1875 C15.6944454,9.1875 15.8611104,9.25694375 16,9.39583333 L16.0625,9.45833333 C16.2013896,9.59722292 16.2708333,9.76388792 16.2708333,9.95833333 C16.2708333,10.1527787 16.2013896,10.3194437 16.0625,10.4583333 L11.3958333,15.125 C11.2569438,15.2500006 11.0902788,15.3125 10.8958333,15.3125 C10.7013879,15.3125 10.5347229,15.2500006 10.3958333,15.125 L10.3541667,15.0625 L7.66666667,12.375 C7.51388813,12.2361104 7.4375,12.062501 7.4375,11.8541667 C7.4375,11.6458323 7.51041594,11.4687507 7.65625,11.3229167 C7.80208406,11.1770826 7.97916563,11.1041667 8.1875,11.1041667 C8.39583438,11.1041667 8.56944375,11.1736104 8.70833333,11.3125 Z" id="safety"></path>
                    </g>
                </g>
            </g>
        </g>
    </g>
</svg>