<?xml version="1.0" encoding="UTF-8"?>
<svg width="16px" height="16px" viewBox="0 0 16 16" version="1.1" xmlns="http://www.w3.org/2000/svg" xmlns:xlink="http://www.w3.org/1999/xlink">
    <!-- Generator: Sketch 51.3 (57544) - http://www.bohemiancoding.com/sketch -->
    <title>save</title>
    <desc>Created with Sketch.</desc>
    <defs></defs>
    <g id="Symbols" stroke="none" stroke-width="1" fill="none" fill-rule="evenodd">
        <g id="View-/-Note" transform="translate(-342.000000, -69.000000)" fill="#333333">
            <g id="Stacked-Group-3" transform="translate(189.000000, 62.000000)">
                <g id="Group-Copy-3" transform="translate(150.000000, 0.000000)">
                    <g id="Icon-/-Search-/-Active-Copy-8" transform="translate(0.000000, 5.000000)">
                        <path d="M13.6399882,2.5 L18.619281,7.29139505 L18.619281,16.0919166 C18.619281,16.4830528 18.477017,16.8155136 18.1924845,17.089309 C17.9079521,17.3631044 17.5624536,17.5 17.1559786,17.5 L4.49434815,17.5 C4.08787323,17.5 3.74237473,17.3631044 3.45784229,17.089309 C3.17330984,16.8155136 3.03104575,16.4830528 3.03104575,16.0919166 L3.03104575,3.90808344 C3.03104575,3.5169472 3.17330984,3.18448638 3.45784229,2.910691 C3.74237473,2.63689563 4.08787323,2.5 4.49434815,2.5 L13.6399882,2.5 Z M6.54182715,3.47595307 L6.54182715,8.20495134 C6.54182715,8.43451551 6.6285132,8.62964212 6.8018879,8.79033704 C6.97526259,8.95103196 7.18578586,9.03137822 7.433464,9.03137822 L11.0247791,9.03137822 C11.2724572,9.03137822 11.4829805,8.95103196 11.6563552,8.79033704 C11.8297299,8.62964212 11.916416,8.43451551 11.916416,8.20495134 L11.916416,3.47595307 L6.54182715,3.47595307 Z M17.497543,16.4205917 L17.497543,7.76361412 L13.1492507,3.57940829 L13.1064104,3.57940829 L13.1064104,7.82544968 C13.1064104,8.43006701 12.877931,8.95222869 12.4209653,9.39195038 C11.9639996,9.83167208 11.421361,10.0515296 10.7930332,10.0515296 L7.68711006,10.0515296 C7.04450207,10.0515296 6.49829347,9.83510735 6.04846787,9.40225631 C5.59864228,8.96940527 5.37373285,8.44380831 5.37373285,7.82544968 L5.37373285,3.57940829 L4.15278377,3.57940829 L4.15278377,16.4205917 L17.497543,16.4205917 Z M9.43299375,7.03715776 C9.29750211,6.89374113 9.22975731,6.7242513 9.22975731,6.52868318 L9.22975731,5.68774446 C9.22975731,5.49217634 9.30088935,5.32594593 9.44315558,5.18904824 C9.5854218,5.05215055 9.75817105,4.98370274 9.96140851,4.98370274 C10.164646,4.98370274 10.3373952,5.05215055 10.4796614,5.18904824 C10.6219277,5.32594593 10.6930597,5.49217634 10.6930597,5.68774446 L10.6930597,6.52868318 C10.6930597,6.7242513 10.6219277,6.89048171 10.4796614,7.0273794 C10.3373952,7.16427709 10.164646,7.2327249 9.96140851,7.2327249 C9.75817105,7.2327249 9.58203456,7.16753651 9.43299375,7.03715776 Z" id="save"></path>
                    </g>
                </g>
            </g>
        </g>
    </g>
</svg>