<?xml version="1.0" encoding="UTF-8"?>
<svg width="20px" height="20px" viewBox="0 0 20 20" version="1.1" xmlns="http://www.w3.org/2000/svg" xmlns:xlink="http://www.w3.org/1999/xlink">
    <!-- Generator: Sketch 51.3 (57544) - http://www.bohemiancoding.com/sketch -->
    <title>schedule</title>
    <desc>Created with Sketch.</desc>
    <defs></defs>
    <g id="Symbols" stroke="none" stroke-width="1" fill="none" fill-rule="evenodd">
        <g id="1-Left-Navigation-/-Main" transform="translate(-22.000000, -235.000000)" fill="#333333">
            <g id="Settings" transform="translate(0.000000, 218.000000)">
                <g id="Icon" transform="translate(20.000000, 15.000000)">
                    <path d="M5.1640625,11.40625 C4.98176992,11.40625 4.82552148,11.3411465 4.6953125,11.2109375 C4.56510352,11.0807285 4.5,10.9244801 4.5,10.7421875 L4.5,10.6640625 C4.5,10.4817699 4.56510352,10.3255215 4.6953125,10.1953125 C4.82552148,10.0651035 4.98176992,10 5.1640625,10 L12.5859375,10 C12.7682301,10 12.9244785,10.0651035 13.0546875,10.1953125 C13.1848965,10.3255215 13.25,10.4817699 13.25,10.6640625 L13.25,10.7421875 C13.25,10.9244801 13.1848965,11.0807285 13.0546875,11.2109375 C12.9244785,11.3411465 12.7682301,11.40625 12.5859375,11.40625 L5.1640625,11.40625 Z M12.9960938,15.109375 C13.1914072,15.109375 13.354166,15.1744785 13.484375,15.3046875 L14.7148438,16.5351562 L18.5625,12.6875 C18.692709,12.557291 18.8489574,12.4921875 19.03125,12.4921875 C19.2135426,12.4921875 19.369791,12.557291 19.5,12.6875 L19.5585938,12.765625 C19.6888027,12.8828131 19.7539062,13.0325512 19.7539062,13.2148438 C19.7539062,13.3971363 19.6888027,13.5533848 19.5585938,13.6835938 L15.1835938,18.0585938 C15.0533848,18.1888027 14.9003915,18.2539062 14.7246094,18.2539062 C14.5488272,18.2539062 14.395834,18.1888027 14.265625,18.0585938 L14.1875,18 L14.1484375,17.9609375 L12.5078125,16.3007812 C12.3645826,16.1705723 12.2929688,16.0078135 12.2929688,15.8125 C12.2929688,15.6171865 12.3613274,15.4511726 12.4980469,15.3144531 C12.6347663,15.1777337 12.8007803,15.109375 12.9960938,15.109375 Z M20.59375,3.75 C20.984377,3.75 21.3164049,3.88671738 21.5898438,4.16015625 C21.8632826,4.43359512 22,4.76562305 22,5.15625 L22,20.09375 C22,20.484377 21.8632826,20.8164049 21.5898438,21.0898438 C21.3164049,21.3632826 20.984377,21.5 20.59375,21.5 L3.40625,21.5 C3.01562305,21.5 2.68359512,21.3632826 2.41015625,21.0898438 C2.13671738,20.8164049 2,20.484377 2,20.09375 L2,5.15625 C2,4.76562305 2.13671738,4.43359512 2.41015625,4.16015625 C2.68359512,3.88671738 3.01562305,3.75 3.40625,3.75 L5.046875,3.75 L5.046875,3.203125 C5.046875,3.00781152 5.11523369,2.84179756 5.25195312,2.70507812 C5.38867256,2.56835869 5.55468652,2.5 5.75,2.5 C5.94531348,2.5 6.11132744,2.56835869 6.24804688,2.70507812 C6.38476631,2.84179756 6.453125,3.00781152 6.453125,3.203125 L6.453125,3.75 L11.296875,3.75 L12.703125,3.75 L17.546875,3.75 L17.546875,3.203125 C17.546875,3.00781152 17.6152337,2.84179756 17.7519531,2.70507812 C17.8886726,2.56835869 18.0546865,2.5 18.25,2.5 C18.4453135,2.5 18.6113274,2.56835869 18.7480469,2.70507812 C18.8847663,2.84179756 18.953125,3.00781152 18.953125,3.203125 L18.953125,3.75 L20.59375,3.75 Z M20.59375,20.09375 L20.59375,8.75 L3.40625,8.75 L3.40625,20.09375 L20.59375,20.09375 Z M20.59375,7.34375 L20.59375,5.15625 L18.953125,5.15625 L18.953125,5.546875 C18.953125,5.74218848 18.8847663,5.90820244 18.7480469,6.04492188 C18.6113274,6.18164131 18.4453135,6.25 18.25,6.25 C18.0546865,6.25 17.8886726,6.18164131 17.7519531,6.04492188 C17.6152337,5.90820244 17.546875,5.74218848 17.546875,5.546875 L17.546875,5.15625 L6.453125,5.15625 L6.453125,5.546875 C6.453125,5.74218848 6.38476631,5.90820244 6.24804688,6.04492188 C6.11132744,6.18164131 5.94531348,6.25 5.75,6.25 C5.55468652,6.25 5.38867256,6.18164131 5.25195312,6.04492188 C5.11523369,5.90820244 5.046875,5.74218848 5.046875,5.546875 L5.046875,5.15625 L3.40625,5.15625 L3.40625,7.34375 L20.59375,7.34375 Z M5.1640625,13.828125 C4.98176992,13.828125 4.82552148,13.7630215 4.6953125,13.6328125 C4.56510352,13.5026035 4.5,13.3463551 4.5,13.1640625 L4.5,13.0859375 C4.5,12.9036449 4.56510352,12.7473965 4.6953125,12.6171875 C4.82552148,12.4869785 4.98176992,12.421875 5.1640625,12.421875 L10.0859375,12.421875 C10.2682301,12.421875 10.4244785,12.4869785 10.5546875,12.6171875 C10.6848965,12.7473965 10.75,12.9036449 10.75,13.0859375 L10.75,13.1640625 C10.75,13.3463551 10.6848965,13.5026035 10.5546875,13.6328125 C10.4244785,13.7630215 10.2682301,13.828125 10.0859375,13.828125 L5.1640625,13.828125 Z" id="schedule"></path>
                </g>
            </g>
        </g>
    </g>
</svg>