<?xml version="1.0" encoding="UTF-8"?>
<svg width="18px" height="19px" viewBox="0 0 18 19" version="1.1" xmlns="http://www.w3.org/2000/svg" xmlns:xlink="http://www.w3.org/1999/xlink">
    <!-- Generator: Sketch 51.3 (57544) - http://www.bohemiancoding.com/sketch -->
    <title>search</title>
    <desc>Created with Sketch.</desc>
    <defs></defs>
    <g id="Symbols" stroke="none" stroke-width="1" fill="none" fill-rule="evenodd">
        <g id="Icon-/-Search-/-White" transform="translate(-3.000000, -2.000000)" fill="#FFFFFF">
            <path d="M20.5546875,19.0390625 C20.6848965,19.1822924 20.75,19.3515615 20.75,19.546875 C20.75,19.7421885 20.6848965,19.9114576 20.5546875,20.0546875 C20.4114576,20.1848965 20.2421885,20.25 20.046875,20.25 C19.8515615,20.25 19.6888027,20.1848965 19.5585938,20.0546875 L15.5351562,16.03125 C14.1419201,17.1770891 12.546884,17.75 10.75,17.75 C8.67967715,17.75 6.9121167,17.0175854 5.44726562,15.5527344 C3.98241455,14.0878833 3.25,12.3203229 3.25,10.25 C3.25,8.17967715 3.98241455,6.4121167 5.44726562,4.94726562 C6.9121167,3.48241455 8.67967715,2.75 10.75,2.75 C12.8203229,2.75 14.5878833,3.48241455 16.0527344,4.94726562 C17.5175854,6.4121167 18.25,8.17967715 18.25,10.25 C18.25,12.046884 17.6770891,13.6419201 16.53125,15.0351562 L20.5546875,19.0390625 Z M13.1132812,15.875 C13.8424516,15.5624984 14.4902315,15.1230497 15.0566406,14.5566406 C15.6230497,13.9902315 16.0624984,13.3424516 16.375,12.6132812 C16.6875016,11.87109 16.84375,11.0833375 16.84375,10.25 C16.84375,9.4166625 16.6875016,8.62890996 16.375,7.88671875 C16.0624984,7.15754844 15.6230497,6.50976846 15.0566406,5.94335938 C14.4902315,5.37695029 13.8424516,4.93750156 13.1132812,4.625 C12.37109,4.31249844 11.5833375,4.15625 10.75,4.15625 C9.9166625,4.15625 9.12890996,4.31249844 8.38671875,4.625 C7.65754844,4.93750156 7.00976846,5.37695029 6.44335938,5.94335938 C5.87695029,6.50976846 5.44401191,7.15754844 5.14453125,7.88671875 C4.81900879,8.62890996 4.65625,9.4166625 4.65625,10.25 C4.65625,11.0833375 4.81900879,11.87109 5.14453125,12.6132812 C5.44401191,13.3424516 5.87695029,13.9902315 6.44335938,14.5566406 C7.00976846,15.1230497 7.65754844,15.5624984 8.38671875,15.875 C9.12890996,16.1875016 9.9166625,16.34375 10.75,16.34375 C11.5833375,16.34375 12.37109,16.1875016 13.1132812,15.875 Z" id="search"></path>
        </g>
    </g>
</svg>