<?xml version="1.0" encoding="UTF-8"?>
<svg width="16px" height="15px" viewBox="0 0 16 15" version="1.1" xmlns="http://www.w3.org/2000/svg" xmlns:xlink="http://www.w3.org/1999/xlink">
    <!-- Generator: Sketch 51.3 (57544) - http://www.bohemiancoding.com/sketch -->
    <title>select</title>
    <desc>Created with Sketch.</desc>
    <defs></defs>
    <g id="Symbols" stroke="none" stroke-width="1" fill="none" fill-rule="evenodd">
        <g id="View-/-Note" transform="translate(-191.000000, -70.000000)" fill="#333333">
            <g id="Stacked-Group-3" transform="translate(189.000000, 62.000000)">
                <g id="Group-Copy">
                    <g id="Icon-/-Search-/-Active-Copy-8" transform="translate(0.000000, 5.000000)">
                        <path d="M16.6082702,3.125 C16.943657,3.125 17.2287315,3.23893115 17.4635022,3.46679688 C17.698273,3.6946626 17.8156566,3.97135254 17.8156566,4.296875 L17.8156566,12.5 C17.8156566,12.6627612 17.7569648,12.8011062 17.6395794,12.9150391 C17.522194,13.0289719 17.3796568,13.0859375 17.2119634,13.0859375 C17.04427,13.0859375 16.9017328,13.0289719 16.7843474,12.9150391 C16.666962,12.8011062 16.6082702,12.6627612 16.6082702,12.5 L16.6082702,4.296875 L3.9977904,4.296875 L3.9977904,16.5364583 L12.4494949,16.5364583 C12.6171883,16.5364583 12.7597256,16.5934239 12.877111,16.7073568 C12.9944963,16.8212896 13.0531881,16.9596346 13.0531881,17.1223958 C13.0531881,17.2851571 12.9944963,17.423502 12.877111,17.5374349 C12.7597256,17.6513678 12.6171883,17.7083333 12.4494949,17.7083333 L3.9977904,17.7083333 C3.66240363,17.7083333 3.37732914,17.5944022 3.1425584,17.3665365 C2.90778765,17.1386707 2.79040404,16.8619808 2.79040404,16.5364583 L2.79040404,4.296875 C2.79040404,3.97135254 2.90778765,3.6946626 3.1425584,3.46679688 C3.37732914,3.23893115 3.66240363,3.125 3.9977904,3.125 L16.6082702,3.125 Z M12.3488794,11.5559896 L15.5014994,14.6158854 C15.613295,14.7352437 15.6691919,14.8763013 15.6691919,15.0390625 C15.6691919,15.2018237 15.6105001,15.3401687 15.4931147,15.4541016 C15.3757294,15.5680344 15.2331921,15.625 15.0654987,15.625 C14.8978053,15.625 14.7524733,15.5653218 14.6294981,15.4459635 L11.4768782,12.3860677 L9.74964489,14.078776 C9.64902885,14.1764328 9.53723494,14.2008466 9.41425979,14.1520182 C9.29128463,14.1031899 9.22979798,14.0082472 9.22979798,13.8671875 L9.22979798,9.9609375 C9.22979798,9.79817627 9.28848979,9.6598313 9.40587516,9.54589844 C9.52326053,9.43196558 9.66579777,9.375 9.83349116,9.375 L13.8748816,9.375 C14.0090363,9.375 14.1012663,9.43467822 14.1515743,9.55403646 C14.2018824,9.67339469 14.1767287,9.78190055 14.0761127,9.87955729 L12.3488794,11.5559896 Z" id="select"></path>
                    </g>
                </g>
            </g>
        </g>
    </g>
</svg>