<?xml version="1.0" encoding="UTF-8"?>
<svg width="20px" height="20px" viewBox="0 0 20 20" version="1.1" xmlns="http://www.w3.org/2000/svg" xmlns:xlink="http://www.w3.org/1999/xlink">
    <!-- Generator: Sketch 51.3 (57544) - http://www.bohemiancoding.com/sketch -->
    <title>setting</title>
    <desc>Created with Sketch.</desc>
    <defs></defs>
    <g id="Symbols" stroke="none" stroke-width="1" fill="none" fill-rule="evenodd">
        <g id="Icon-/-Nav-/-Settings-/-Active" transform="translate(-2.000000, -2.000000)" fill="#000000">
            <path d="M21.8684211,10.4210526 C21.9561408,10.9912309 22,11.5175414 22,12 C22,12.4824586 21.9561408,13.0087691 21.8684211,13.5789474 L21.7807018,14.1052632 L20.1798246,14.6315789 C20.033625,15.0701776 19.8581882,15.49415 19.6535088,15.9035088 L20.3991228,17.4166667 L20.0921053,17.8552632 C19.7558463,18.3231018 19.4122825,18.7251445 19.0614035,19.0614035 C18.7251445,19.4122825 18.3231018,19.7558463 17.8552632,20.0921053 L17.4166667,20.4210526 L15.9035088,19.6535088 C15.49415,19.8581882 15.0774875,20.033625 14.6535088,20.1798246 L14.1052632,21.7807018 L13.5789474,21.8684211 C13.0087691,21.9561408 12.4824586,22 12,22 C11.5175414,22 10.9912309,21.9561408 10.4210526,21.8684211 L9.89473684,21.7807018 L9.34649123,20.1798246 C8.9225125,20.033625 8.50585,19.8581882 8.09649123,19.6535088 L6.58333333,20.3991228 L6.14473684,20.0921053 C5.67689825,19.7412263 5.27485548,19.3976625 4.93859649,19.0614035 C4.57309759,18.6959046 4.22953377,18.2938618 3.90789474,17.8552632 L3.60087719,17.4166667 L4.34649123,15.9035088 C4.14181184,15.50877 3.966375,15.0921075 3.82017544,14.6535088 L2.21929825,14.1052632 L2.13157895,13.5789474 C2.04385921,13.0087691 2,12.4824586 2,12 C2,11.5175414 2.04385921,10.9912309 2.13157895,10.4210526 L2.21929825,9.89473684 L3.82017544,9.34649123 C3.966375,8.9225125 4.14181184,8.50585 4.34649123,8.09649123 L3.60087719,6.58333333 L3.90789474,6.14473684 C4.53655285,5.28215943 5.28215943,4.53655285 6.14473684,3.90789474 L6.58333333,3.57894737 L8.09649123,4.34649123 C8.49123004,4.14181184 8.90789254,3.966375 9.34649123,3.82017544 L9.89473684,2.21929825 L10.4210526,2.13157895 C10.9912309,2.04385921 11.5175414,2 12,2 C12.4824586,2 13.0087691,2.04385921 13.5789474,2.13157895 L14.1052632,2.21929825 L14.6315789,3.82017544 C15.0701776,3.966375 15.49415,4.14181184 15.9035088,4.34649123 L17.4166667,3.57894737 L17.8552632,3.88596491 C18.7178406,4.51462303 19.4634471,5.26753947 20.0921053,6.14473684 L20.3991228,6.56140351 L19.6535088,8.0745614 C19.8581882,8.48392018 20.033625,8.90789254 20.1798246,9.34649123 L21.7807018,9.89473684 L21.8684211,10.4210526 Z M20.4210526,11.9780702 C20.4356726,11.700291 20.4210529,11.4005864 20.377193,11.0789474 L19.5877193,10.8157895 L18.9078947,10.5964912 L18.7105263,9.89473684 C18.5789467,9.49999803 18.4108197,9.112575 18.2061404,8.73245614 L17.877193,8.09649123 L18.5789474,6.73684211 C18.1842086,6.25438355 17.7456164,5.81579145 17.2631579,5.42105263 L15.9035088,6.12280702 L15.2675439,5.77192982 C14.887425,5.58187039 14.4926921,5.42105329 14.0833333,5.28947368 L13.4035088,5.09210526 L12.9210526,3.62280702 C12.5994136,3.59356711 12.2923991,3.57894737 12,3.57894737 C11.7222208,3.57894737 11.4152064,3.59356711 11.0789474,3.62280702 L10.8157895,4.4122807 L10.5964912,5.09210526 L9.91666667,5.31140351 C9.50730789,5.42836316 9.11988487,5.58918026 8.75438596,5.79385965 L8.09649123,6.12280702 L6.73684211,5.44298246 C6.25438355,5.82310132 5.82310132,6.25438355 5.44298246,6.73684211 L5.79385965,7.46052632 L6.12280702,8.09649123 L5.79385965,8.75438596 C5.58918026,9.13450482 5.42836316,9.52192785 5.31140351,9.91666667 L5.09210526,10.5964912 L3.64473684,11.0789474 C3.60087697,11.4152064 3.57894737,11.7222208 3.57894737,12 C3.57894737,12.3070191 3.60087697,12.6140336 3.64473684,12.9210526 L5.09210526,13.4035088 L5.31140351,14.1052632 C5.42836316,14.485382 5.58918026,14.872805 5.79385965,15.2675439 L6.12280702,15.9035088 L5.44298246,17.2631579 C5.63304189,17.5116971 5.8377182,17.7383031 6.05701754,17.9429825 C6.26169693,18.1622818 6.48830285,18.3669581 6.73684211,18.5570175 L7.46052632,18.2061404 L8.11842105,17.877193 L8.75438596,18.2061404 C9.11988487,18.3961998 9.50730789,18.5570169 9.91666667,18.6885965 L10.5964912,18.9078947 L10.8377193,19.5877193 L11.0789474,20.3552632 C11.4152064,20.399123 11.7222208,20.4210526 12,20.4210526 C12.3070191,20.4210526 12.6140336,20.399123 12.9210526,20.3552632 L13.1842105,19.5877193 L13.4035088,18.9078947 L14.0833333,18.6885965 C14.4926921,18.5570169 14.887425,18.3961998 15.2675439,18.2061404 L15.9035088,17.877193 L17.2631579,18.5570175 C17.5263171,18.3669581 17.7602329,18.1695917 17.9649123,17.9649123 L17.9649123,17.9429825 C18.1695917,17.7383031 18.374268,17.5116971 18.5789474,17.2631579 L17.877193,15.8815789 L18.2280702,15.245614 C18.4181296,14.8801151 18.5716368,14.500002 18.6885965,14.1052632 L18.9078947,13.4035088 L19.5877193,13.1622807 L20.377193,12.9210526 C20.4064329,12.5847936 20.4210526,12.2777792 20.4210526,12 L20.4210526,11.9780702 Z M14.6973684,9.30263158 C15.4429862,10.0482493 15.8157895,10.9473632 15.8157895,12 C15.8157895,13.0526368 15.4429862,13.9517507 14.6973684,14.6973684 C13.9517507,15.4429862 13.0526368,15.8157895 12,15.8157895 C10.9473632,15.8157895 10.0482493,15.4429862 9.30263158,14.6973684 C8.55701382,13.9517507 8.18421053,13.0526368 8.18421053,12 C8.18421053,10.9473632 8.55701382,10.0482493 9.30263158,9.30263158 C10.0482493,8.55701382 10.9473632,8.18421053 12,8.18421053 C13.0526368,8.18421053 13.9517507,8.55701382 14.6973684,9.30263158 Z M14.2368421,12 C14.2368421,11.3859618 14.021201,10.8596513 13.5899123,10.4210526 C13.1586236,9.98245395 12.632313,9.76315789 12.0109649,9.76315789 C11.3896168,9.76315789 10.8596513,9.98245395 10.4210526,10.4210526 C9.98245395,10.8596513 9.76315789,11.3859618 9.76315789,12 C9.76315789,12.6140382 9.98245395,13.1403487 10.4210526,13.5789474 C10.8596513,14.0175461 11.3859618,14.2368421 12,14.2368421 C12.6140382,14.2368421 13.1403487,14.0175461 13.5789474,13.5789474 C14.0175461,13.1403487 14.2368421,12.6140382 14.2368421,12 Z" id="setting"></path>
        </g>
    </g>
</svg>