<?xml version="1.0" encoding="UTF-8"?>
<svg width="18px" height="18px" viewBox="0 0 18 18" version="1.1" xmlns="http://www.w3.org/2000/svg" xmlns:xlink="http://www.w3.org/1999/xlink">
    <g id="Page-1" stroke="none" stroke-width="1" fill="none" fill-rule="evenodd">
        <g id="Icon-/-4-/-Black" transform="translate(-3.000000, -3.000000)" fill="#333333">
            <path d="M20.6953125,10.5 C20.7734379,11.007815 20.8125,11.4765604 20.8125,11.90625 C20.8125,12.3359396 20.7734379,12.804685 20.6953125,13.3125 L20.6171875,13.78125 L19.1914062,14.25 C19.0611973,14.640627 18.9049488,15.0182273 18.7226562,15.3828125 L19.3867188,16.7304688 L19.1132812,17.1210938 C18.8138006,17.5377625 18.5078141,17.8958318 18.1953125,18.1953125 C17.8958318,18.5078141 17.5377625,18.8138006 17.1210938,19.1132812 L16.7304688,19.40625 L15.3828125,18.7226562 C15.0182273,18.9049488 14.6471373,19.0611973 14.2695312,19.1914062 L13.78125,20.6171875 L13.3125,20.6953125 C12.804685,20.7734379 12.3359396,20.8125 11.90625,20.8125 C11.4765604,20.8125 11.007815,20.7734379 10.5,20.6953125 L10.03125,20.6171875 L9.54296875,19.1914062 C9.1653627,19.0611973 8.79427266,18.9049488 8.4296875,18.7226562 L7.08203125,19.3867188 L6.69140625,19.1132812 C6.2747375,18.8007797 5.91666816,18.4947932 5.6171875,18.1953125 C5.29166504,17.86979 4.98567852,17.5117207 4.69921875,17.1210938 L4.42578125,16.7304688 L5.08984375,15.3828125 C4.90755117,15.0312482 4.75130273,14.6601582 4.62109375,14.2695312 L3.1953125,13.78125 L3.1171875,13.3125 C3.03906211,12.804685 3,12.3359396 3,11.90625 C3,11.4765604 3.03906211,11.007815 3.1171875,10.5 L3.1953125,10.03125 L4.62109375,9.54296875 C4.75130273,9.1653627 4.90755117,8.79427266 5.08984375,8.4296875 L4.42578125,7.08203125 L4.69921875,6.69140625 C5.25911738,5.92317324 5.92317324,5.25911738 6.69140625,4.69921875 L7.08203125,4.40625 L8.4296875,5.08984375 C8.78125176,4.90755117 9.1523418,4.75130273 9.54296875,4.62109375 L10.03125,3.1953125 L10.5,3.1171875 C11.007815,3.03906211 11.4765604,3 11.90625,3 C12.3359396,3 12.804685,3.03906211 13.3125,3.1171875 L13.78125,3.1953125 L14.25,4.62109375 C14.640627,4.75130273 15.0182273,4.90755117 15.3828125,5.08984375 L16.7304688,4.40625 L17.1210938,4.6796875 C17.8893268,5.23958613 18.5533826,5.91015234 19.1132812,6.69140625 L19.3867188,7.0625 L18.7226562,8.41015625 C18.9049488,8.77474141 19.0611973,9.1523418 19.1914062,9.54296875 L20.6171875,10.03125 L20.6953125,10.5 Z M19.40625,11.8867188 C19.4192709,11.6393217 19.4062502,11.3723973 19.3671875,11.0859375 L18.6640625,10.8515625 L18.0585938,10.65625 L17.8828125,10.03125 C17.7656244,9.67968574 17.6158863,9.33463711 17.4335938,8.99609375 L17.140625,8.4296875 L17.765625,7.21875 C17.4140607,6.78906035 17.0234396,6.39843926 16.59375,6.046875 L15.3828125,6.671875 L14.8164063,6.359375 C14.4778629,6.19010332 14.1263039,6.04687559 13.7617188,5.9296875 L13.15625,5.75390625 L12.7265625,4.4453125 C12.4401027,4.4192707 12.166668,4.40625 11.90625,4.40625 C11.6588529,4.40625 11.3854182,4.4192707 11.0859375,4.4453125 L10.8515625,5.1484375 L10.65625,5.75390625 L10.0507813,5.94921875 C9.68619609,6.05338594 9.34114746,6.19661367 9.015625,6.37890625 L8.4296875,6.671875 L7.21875,6.06640625 C6.78906035,6.40494961 6.40494961,6.78906035 6.06640625,7.21875 L6.37890625,7.86328125 L6.671875,8.4296875 L6.37890625,9.015625 C6.19661367,9.35416836 6.05338594,9.69921699 5.94921875,10.0507812 L5.75390625,10.65625 L4.46484375,11.0859375 C4.42578105,11.3854182 4.40625,11.6588529 4.40625,11.90625 C4.40625,12.1796889 4.42578105,12.4531236 4.46484375,12.7265625 L5.75390625,13.15625 L5.94921875,13.78125 C6.05338594,14.1197934 6.19661367,14.464842 6.37890625,14.8164062 L6.671875,15.3828125 L6.06640625,16.59375 C6.23567793,16.8151053 6.41796777,17.0169262 6.61328125,17.1992188 C6.79557383,17.3945322 6.99739473,17.5768221 7.21875,17.7460938 L7.86328125,17.4335938 L8.44921875,17.140625 L9.015625,17.4335938 C9.34114746,17.6028654 9.68619609,17.7460932 10.0507813,17.8632812 L10.65625,18.0585938 L10.8710938,18.6640625 L11.0859375,19.3476562 C11.3854182,19.3867189 11.6588529,19.40625 11.90625,19.40625 C12.1796889,19.40625 12.4531236,19.3867189 12.7265625,19.3476562 L12.9609375,18.6640625 L13.15625,18.0585938 L13.7617188,17.8632812 C14.1263039,17.7460932 14.4778629,17.6028654 14.8164063,17.4335938 L15.3828125,17.140625 L16.59375,17.7460938 C16.8281262,17.5768221 17.0364574,17.4010426 17.21875,17.21875 L17.21875,17.1992188 C17.4010426,17.0169262 17.5833324,16.8151053 17.765625,16.59375 L17.140625,15.3632812 L17.453125,14.796875 C17.6223967,14.4713525 17.7591141,14.1328143 17.8632813,13.78125 L18.0585938,13.15625 L18.6640625,12.9414062 L19.3671875,12.7265625 C19.3932293,12.4270818 19.40625,12.1536471 19.40625,11.90625 L19.40625,11.8867188 Z M14.3085938,9.50390625 C14.9726596,10.1679721 15.3046875,10.9687453 15.3046875,11.90625 C15.3046875,12.8437547 14.9726596,13.6445279 14.3085938,14.3085938 C13.6445279,14.9726596 12.8437547,15.3046875 11.90625,15.3046875 C10.9687453,15.3046875 10.1679721,14.9726596 9.50390625,14.3085938 C8.83984043,13.6445279 8.5078125,12.8437547 8.5078125,11.90625 C8.5078125,10.9687453 8.83984043,10.1679721 9.50390625,9.50390625 C10.1679721,8.83984043 10.9687453,8.5078125 11.90625,8.5078125 C12.8437547,8.5078125 13.6445279,8.83984043 14.3085938,9.50390625 Z M13.8984375,11.90625 C13.8984375,11.3593723 13.7063821,10.890627 13.3222656,10.5 C12.9381491,10.109373 12.4694038,9.9140625 11.9160156,9.9140625 C11.3626274,9.9140625 10.890627,10.109373 10.5,10.5 C10.109373,10.890627 9.9140625,11.3593723 9.9140625,11.90625 C9.9140625,12.4531277 10.109373,12.921873 10.5,13.3125 C10.890627,13.703127 11.3593723,13.8984375 11.90625,13.8984375 C12.4531277,13.8984375 12.921873,13.703127 13.3125,13.3125 C13.703127,12.921873 13.8984375,12.4531277 13.8984375,11.90625 Z" id="setting"></path>
        </g>
    </g>
</svg>