<?xml version="1.0" encoding="UTF-8"?>
<svg width="22px" height="18px" viewBox="0 0 22 18" version="1.1" xmlns="http://www.w3.org/2000/svg" xmlns:xlink="http://www.w3.org/1999/xlink">
    <!-- Generator: Sketch 51.3 (57544) - http://www.bohemiancoding.com/sketch -->
    <title>shuffle</title>
    <desc>Created with Sketch.</desc>
    <defs></defs>
    <g id="Symbols" stroke="none" stroke-width="1" fill="none" fill-rule="evenodd">
        <g id="Icon-/-Shuffle" transform="translate(-1.000000, -4.000000)" fill="#333333" stroke="#333333" stroke-width="0.2">
            <path d="M9.8515625,11.1328125 L9.8515625,11.1328125 C8.28028506,8.98458162 5.77842555,7.71484375 3.11688301,7.71484375 L2.05859375,7.71484375 L2.05859375,6.46484375 L3.53881601,6.46484375 C6.34081791,6.46484375 8.97527815,7.79943582 10.6328125,10.0585938 L9.8515625,11.1328125 Z M19.9492188,7.71484375 L19.9492188,7.71484375 C17.4738726,7.71484375 15.1514735,8.91240779 13.7160216,10.9290427 L11.4392469,14.1276335 C9.27896282,17.1625692 5.7838671,18.9648438 2.05859375,18.9648438 L2.05859375,17.7148438 L2.05859375,17.7148438 C5.37947888,17.7148438 8.49517275,16.1082108 10.4209523,13.4027254 L12.7430317,10.1404871 C14.3845633,7.8343353 17.0403762,6.46484375 19.8710938,6.46484375 L18.3867188,5.1171875 C18.2955725,5.03906211 18.2402345,4.93815166 18.2207031,4.81445312 C18.2011718,4.69075459 18.2369787,4.58333379 18.328125,4.4921875 L18.4453125,4.3359375 C18.5364588,4.24479121 18.6471348,4.19921875 18.7773438,4.19921875 C18.9075527,4.19921875 19.0182287,4.24479121 19.109375,4.3359375 L21.6289062,6.640625 L21.8046875,6.81640625 C21.8567711,6.85546895 21.892578,6.90429658 21.9121094,6.96289062 C21.9316407,7.02148467 21.9414062,7.07682266 21.9414062,7.12890625 C21.9414062,7.19401074 21.9316407,7.25260391 21.9121094,7.3046875 C21.892578,7.35677109 21.8567711,7.40234355 21.8046875,7.44140625 L21.6484375,7.59765625 C21.6484375,7.60633685 20.8151042,8.36154518 19.1484375,9.86328125 C19.0572912,9.95442754 18.9466152,10 18.8164062,10 C18.6861973,10 18.5755213,9.95442754 18.484375,9.86328125 L18.3671875,9.70703125 C18.2760412,9.62890586 18.2402343,9.52799541 18.2597656,9.40429688 C18.279297,9.28059834 18.334635,9.17317754 18.4257812,9.08203125 L19.9492188,7.71484375 Z M21.8046875,18.0664062 C21.8567711,18.1054689 21.892578,18.1542966 21.9121094,18.2128906 C21.9316407,18.2714847 21.9414062,18.3268227 21.9414062,18.3789062 C21.9414062,18.4440107 21.9316407,18.5026039 21.9121094,18.5546875 C21.892578,18.6067711 21.8567711,18.6523436 21.8046875,18.6914062 L21.6484375,18.8476562 C21.6321614,18.8671875 21.6289062,18.8671875 21.6289062,18.8671875 L19.1484375,21.1132812 C19.0572912,21.2044275 18.9466152,21.25 18.8164062,21.25 C18.6861973,21.25 18.5755213,21.2044275 18.484375,21.1132812 L18.3671875,20.9570312 C18.2760412,20.8789059 18.2402343,20.7779954 18.2597656,20.6542969 C18.279297,20.5305983 18.334635,20.4231775 18.4257812,20.3320312 L19.9296875,18.984375 L19.6768464,18.9832945 C16.9812635,18.9717749 14.4715917,17.6074892 12.9960938,15.3515625 L13.7578125,14.2578125 L13.8863103,14.4555874 C15.2079824,16.4898131 17.4647762,17.7221848 19.890625,17.734375 L18.3867188,16.3671875 C18.2955725,16.2890621 18.2402345,16.1881517 18.2207031,16.0644531 C18.2011718,15.9407546 18.2369787,15.8333338 18.328125,15.7421875 L18.4453125,15.5859375 C18.5364588,15.4947912 18.6471348,15.4492188 18.7773438,15.4492188 C18.9075527,15.4492188 19.0182287,15.4947912 19.109375,15.5859375 L21.6289062,17.890625 C21.639757,17.9036458 21.6983507,17.9622396 21.8046875,18.0664062 Z" id="shuffle"></path>
        </g>
    </g>
</svg>