<?xml version="1.0" encoding="UTF-8"?>
<svg width="26px" height="23px" viewBox="0 0 26 23" version="1.1" xmlns="http://www.w3.org/2000/svg" xmlns:xlink="http://www.w3.org/1999/xlink">
    <!-- Generator: Sketch 51.3 (57544) - http://www.bohemiancoding.com/sketch -->
    <title>Speaker</title>
    <desc>Created with Sketch.</desc>
    <defs></defs>
    <g id="Pages" stroke="none" stroke-width="1" fill="none" fill-rule="evenodd">
        <g id="Notes-/-Passage-/-1" transform="translate(-1217.000000, -1042.000000)" fill="#333333" stroke="#333333" stroke-width="0.3">
            <g id="Passages" transform="translate(450.000000, 993.000000)">
                <g id="Passage-1">
                    <g id="Icon-/-Speaker" transform="translate(765.000000, 45.000000)">
                        <path d="M16.5136719,4.42382813 C16.6438809,4.48893262 16.7456051,4.58251892 16.8188477,4.70458984 C16.8920902,4.82666077 16.9287109,4.96093677 16.9287109,5.10742188 L16.9287109,25.5175781 C16.9287109,25.6640632 16.8920902,25.7983392 16.8188477,25.9204102 C16.7456051,26.0424811 16.6438809,26.1360674 16.5136719,26.2011719 C16.4648435,26.2337241 16.4078779,26.2581379 16.3427734,26.2744141 C16.2776689,26.2906902 16.2125654,26.2988281 16.1474609,26.2988281 C16.0823564,26.2988281 16.013184,26.2866212 15.9399414,26.262207 C15.8666989,26.2377928 15.7975264,26.2011721 15.7324219,26.1523438 L7.91992188,20 L5.33203125,20 C4.66471021,20 4.09505444,19.7924825 3.62304688,19.3774414 C3.15103931,18.9624003 2.91503906,18.461917 2.91503906,17.8759766 L2.86621094,12.7246094 C2.86621094,12.1386689 3.10221118,11.6422546 3.57421875,11.2353516 C4.04622632,10.8284485 4.61588208,10.625 5.28320312,10.625 L7.87109375,10.625 L15.7324219,4.47265625 C15.8463547,4.39127563 15.9765618,4.34651697 16.1230469,4.33837891 C16.269532,4.33024084 16.399739,4.35872363 16.5136719,4.42382813 Z M15.3662109,24.0527344 L15.3662109,6.57226563 L8.5546875,12.0410156 C8.48958301,12.089844 8.42041052,12.1264647 8.34716797,12.1508789 C8.27392542,12.1752931 8.19661499,12.1875 8.11523438,12.1875 L5.28320312,12.1875 C5.02278516,12.1875 4.8152677,12.2444656 4.66064453,12.3583984 C4.50602136,12.4723313 4.42871094,12.5944004 4.42871094,12.7246094 L4.47753906,17.8759766 C4.47753906,18.0061855 4.55484949,18.1323236 4.70947266,18.2543945 C4.86409583,18.3764655 5.07161328,18.4375 5.33203125,18.4375 L8.1640625,18.4375 C8.24544312,18.4375 8.32275354,18.4456379 8.39599609,18.4619141 C8.46923865,18.4781902 8.53841113,18.5107419 8.60351562,18.5595703 L15.3662109,24.0527344 Z M23.203125,15.4589844 C23.203125,16.4518279 22.8857454,17.3388633 22.2509766,18.1201172 C21.6162078,18.9013711 20.8105518,19.3896475 19.8339844,19.5849609 C19.8177083,19.5849609 19.7973634,19.5890299 19.7729492,19.597168 C19.748535,19.605306 19.7200522,19.609375 19.6875,19.609375 C19.5084626,19.609375 19.3457039,19.5483405 19.1992188,19.4262695 C19.0527336,19.3041986 18.9632163,19.1536467 18.9306641,18.9746094 C18.8818357,18.7630198 18.9184564,18.5677092 19.0405273,18.3886719 C19.1625983,18.2096345 19.329426,18.0957034 19.5410156,18.046875 C20.1595083,17.9329421 20.6640605,17.6277694 21.0546875,17.1313477 C21.4453145,16.6349259 21.640625,16.0774771 21.640625,15.4589844 C21.640625,14.7916633 21.4493834,14.2138696 21.0668945,13.7255859 C20.6844056,13.2373022 20.1839224,12.9443364 19.5654297,12.8466797 C19.3538401,12.8141274 19.1870123,12.7083342 19.0649414,12.5292969 C18.9428705,12.3502595 18.8981118,12.154949 18.9306641,11.9433594 C18.9632163,11.7317698 19.0649406,11.560873 19.2358398,11.4306641 C19.4067391,11.3004551 19.6061187,11.2597654 19.8339844,11.3085938 C20.8105518,11.471355 21.6162078,11.9433555 22.2509766,12.7246094 C22.8857454,13.5058633 23.203125,14.4173125 23.203125,15.4589844 Z M22.1777344,8.28125 C22.926436,8.55794409 23.601885,8.93635828 24.2041016,9.41650391 C24.8063181,9.89664954 25.3271462,10.4500294 25.7666016,11.0766602 C26.2060569,11.7032909 26.5437814,12.3909468 26.7797852,13.1396484 C27.0157889,13.8883501 27.1337891,14.6614543 27.1337891,15.4589844 C27.1337891,16.2402383 27.0157889,17.0052046 26.7797852,17.7539062 C26.5437814,18.5026079 26.2060569,19.1902638 25.7666016,19.8168945 C25.3271462,20.4435253 24.8063181,20.9969052 24.2041016,21.4770508 C23.601885,21.9571964 22.926436,22.3356106 22.1777344,22.6123047 C22.128906,22.6285808 22.0841473,22.6407877 22.043457,22.6489258 C22.0027667,22.6570638 21.9580081,22.6611328 21.9091797,22.6611328 C21.7464185,22.6611328 21.5999355,22.6163741 21.4697266,22.5268555 C21.3395176,22.4373368 21.2418623,22.3193367 21.1767578,22.1728516 C21.0953772,21.961262 21.0994462,21.7578135 21.1889648,21.5625 C21.2784835,21.3671865 21.4290354,21.2369795 21.640625,21.171875 C22.8125059,20.7161436 23.7605758,19.9633842 24.4848633,18.9135742 C25.2091508,17.8637643 25.5712891,16.7122458 25.5712891,15.4589844 C25.5712891,14.1894468 25.2091508,13.0297904 24.4848633,11.9799805 C23.7605758,10.9301705 22.8125059,10.1855491 21.640625,9.74609375 C21.4290354,9.66471313 21.2784835,9.52636816 21.1889648,9.33105469 C21.0994462,9.13574121 21.0953772,8.94043066 21.1767578,8.74511719 C21.2418623,8.53352759 21.3761383,8.38297571 21.5795898,8.29345703 C21.7830414,8.20393835 21.9824209,8.19986938 22.1777344,8.28125 Z" id="Speaker"></path>
                    </g>
                </g>
            </g>
        </g>
    </g>
</svg>