<?xml version="1.0" encoding="UTF-8"?>
<svg width="26px" height="26px" viewBox="0 0 26 26" version="1.1" xmlns="http://www.w3.org/2000/svg" xmlns:xlink="http://www.w3.org/1999/xlink">
    <!-- Generator: Sketch 51.3 (57544) - http://www.bohemiancoding.com/sketch -->
    <title>star-fill</title>
    <desc>Created with Sketch.</desc>
    <defs></defs>
    <g id="Pages" stroke="none" stroke-width="1" fill="none" fill-rule="evenodd">
        <g id="Notes-/-P-2" transform="translate(-977.000000, -779.000000)" fill="#00BD70">
            <g id="Pop-up" transform="translate(298.000000, 14.000000)">
                <g id="Rate" transform="translate(513.000000, 710.000000)">
                    <g id="Stacked-Group" transform="translate(0.000000, 52.000000)">
                        <g id="Icon-/-Favorite-Copy-5" transform="translate(162.000000, 0.000000)">
                            <path d="M17,3.89583333 C17.4427105,3.89583333 17.8577455,4.01573231 18.2451172,4.25553385 C18.6509352,4.4953354 18.9552941,4.83658633 19.1582031,5.27929688 L21.703776,10.6748047 L27.3759766,11.5325521 C27.8186871,11.6063372 28.2106645,11.7861856 28.5519206,12.0721029 C28.8931766,12.3580201 29.1375861,12.717717 29.2851563,13.1512044 C29.4327264,13.5846918 29.4557839,14.0181727 29.3543294,14.4516602 C29.2528749,14.8851476 29.0453575,15.267902 28.7317708,15.5999349 L24.5537109,19.8610026 L25.5498047,25.8929036 C25.6604823,26.6307546 25.4760224,27.2809759 24.9964193,27.8435872 C24.5168162,28.4061986 23.9080983,28.6875 23.1702474,28.6875 C22.7644294,28.6875 22.3770635,28.586047 22.008138,28.383138 L17,25.6162109 L11.991862,28.383138 C11.6229365,28.586047 11.2355706,28.6875 10.8297526,28.6875 C10.0919017,28.6875 9.48318382,28.4061986 9.00358073,27.8435872 C8.52397764,27.2809759 8.33951768,26.6307546 8.45019531,25.8929036 L9.44628906,19.8610026 L5.26822917,15.5999349 C4.95464253,15.267902 4.74712507,14.8851476 4.64567057,14.4516602 C4.54421607,14.0181727 4.56727357,13.5846918 4.71484375,13.1512044 C4.86241393,12.717717 5.10682338,12.3580201 5.44807943,12.0721029 C5.78933547,11.7861856 6.18131289,11.6063372 6.62402344,11.5325521 L12.296224,10.6748047 L14.8417969,5.27929688 C15.0447059,4.83658633 15.3490648,4.4953354 15.7548828,4.25553385 C16.1422545,4.01573231 16.5572895,3.89583333 17,3.89583333 Z" id="star-fill"></path>
                        </g>
                    </g>
                </g>
            </g>
        </g>
    </g>
</svg>