<?xml version="1.0" encoding="UTF-8"?>
<svg width="15px" height="15px" viewBox="0 0 15 15" version="1.1" xmlns="http://www.w3.org/2000/svg" xmlns:xlink="http://www.w3.org/1999/xlink">
    <g id="Page-1" stroke="none" stroke-width="1" fill="none" fill-rule="evenodd">
        <g id="Icon-/-3-/-Black" transform="translate(-5.000000, -4.000000)" fill="#333333">
            <path d="M6.40625,17.59375 L19.2578125,17.59375 C19.453126,17.59375 19.6191399,17.6621087 19.7558594,17.7988281 C19.8925788,17.9355476 19.9609375,18.1015615 19.9609375,18.296875 C19.9609375,18.4921885 19.8925788,18.6582024 19.7558594,18.7949219 C19.6191399,18.9316413 19.453126,19 19.2578125,19 L5.703125,19 C5.50781152,19 5.34179756,18.9316413 5.20507812,18.7949219 C5.06835869,18.6582024 5,18.4921885 5,18.296875 L5,4.703125 C5,4.50781152 5.06835869,4.34179756 5.20507812,4.20507812 C5.34179756,4.06835869 5.50781152,4 5.703125,4 C5.89843848,4 6.06445244,4.06835869 6.20117188,4.20507812 C6.33789131,4.34179756 6.40625,4.50781152 6.40625,4.703125 L6.40625,17.59375 Z M10.1367188,8.47265625 L10.1367188,15.71875 C10.1367188,15.9140635 10.0683601,16.0800774 9.93164062,16.2167969 C9.79492119,16.3535163 9.62890723,16.421875 9.43359375,16.421875 C9.23828027,16.421875 9.07226631,16.3535163 8.93554688,16.2167969 C8.79882744,16.0800774 8.73046875,15.9140635 8.73046875,15.71875 L8.73046875,8.47265625 C8.73046875,8.27734277 8.79882744,8.11132881 8.93554688,7.97460938 C9.07226631,7.83788994 9.23828027,7.76953125 9.43359375,7.76953125 C9.62890723,7.76953125 9.79492119,7.83788994 9.93164062,7.97460938 C10.0683601,8.11132881 10.1367188,8.27734277 10.1367188,8.47265625 Z M17.6171875,5.93359375 L17.6171875,15.71875 C17.6171875,15.9140635 17.5488288,16.0800774 17.4121094,16.2167969 C17.2753899,16.3535163 17.109376,16.421875 16.9140625,16.421875 C16.718749,16.421875 16.5527351,16.3535163 16.4160156,16.2167969 C16.2792962,16.0800774 16.2109375,15.9140635 16.2109375,15.71875 L16.2109375,5.93359375 C16.2109375,5.73828027 16.2792962,5.57226631 16.4160156,5.43554688 C16.5527351,5.29882744 16.718749,5.23046875 16.9140625,5.23046875 C17.109376,5.23046875 17.2753899,5.29882744 17.4121094,5.43554688 C17.5488288,5.57226631 17.6171875,5.73828027 17.6171875,5.93359375 Z M13.8671875,10.9335938 L13.8671875,15.71875 C13.8671875,15.9140635 13.7988288,16.0800774 13.6621094,16.2167969 C13.5253899,16.3535163 13.359376,16.421875 13.1640625,16.421875 C12.968749,16.421875 12.8027351,16.3535163 12.6660156,16.2167969 C12.5292962,16.0800774 12.4609375,15.9140635 12.4609375,15.71875 L12.4609375,10.9335938 C12.4609375,10.7382803 12.5292962,10.5722663 12.6660156,10.4355469 C12.8027351,10.2988274 12.968749,10.2304688 13.1640625,10.2304688 C13.3463551,10.2304688 13.5091139,10.2988274 13.6523438,10.4355469 C13.7955736,10.5722663 13.8671875,10.7382803 13.8671875,10.9335938 Z" id="statistics"></path>
        </g>
    </g>
</svg>