<?xml version="1.0" encoding="UTF-8"?>
<svg width="16px" height="16px" viewBox="0 0 16 16" version="1.1" xmlns="http://www.w3.org/2000/svg" xmlns:xlink="http://www.w3.org/1999/xlink">
    <!-- Generator: Sketch 52.3 (67297) - http://www.bohemiancoding.com/sketch -->
    <title>statistics</title>
    <desc>Created with Sketch.</desc>
    <g id="Symbols" stroke="none" stroke-width="1" fill="none" fill-rule="evenodd">
        <g id="Left-Navigation-/-Main" transform="translate(-24.000000, -292.000000)" fill="#333333">
            <g id="Topics" transform="translate(0.000000, 272.000000)">
                <g id="Icon" transform="translate(20.000000, 15.000000)">
                    <g id="statistics" transform="translate(4.000000, 5.000000)">
                        <path d="M1.96484375,0.7421875 L1.96484375,14.3359375 C1.96484375,14.531251 1.89648506,14.6972649 1.75976562,14.8339844 C1.62304619,14.9707038 1.45703223,15.0390625 1.26171875,15.0390625 C1.06640527,15.0390625 0.900391309,14.9707038 0.763671875,14.8339844 C0.626952441,14.6972649 0.55859375,14.531251 0.55859375,14.3359375 L0.55859375,0.7421875 C0.55859375,0.546874023 0.626952441,0.380860059 0.763671875,0.244140625 C0.900391309,0.107421191 1.06640527,0.0390625 1.26171875,0.0390625 C1.45703223,0.0390625 1.62304619,0.107421191 1.75976562,0.244140625 C1.89648506,0.380860059 1.96484375,0.546874023 1.96484375,0.7421875 Z M5.6953125,4.51171875 L5.6953125,11.7578125 C5.6953125,11.953126 5.62695381,12.1191399 5.49023438,12.2558594 C5.35351494,12.3925788 5.18750098,12.4609375 4.9921875,12.4609375 C4.79687402,12.4609375 4.63086006,12.3925788 4.49414062,12.2558594 C4.35742119,12.1191399 4.2890625,11.953126 4.2890625,11.7578125 L4.2890625,4.51171875 C4.2890625,4.31640527 4.35742119,4.15039131 4.49414062,4.01367188 C4.63086006,3.87695244 4.79687402,3.80859375 4.9921875,3.80859375 C5.18750098,3.80859375 5.35351494,3.87695244 5.49023438,4.01367188 C5.62695381,4.15039131 5.6953125,4.31640527 5.6953125,4.51171875 Z M13.1757812,1.97265625 L13.1757812,11.7578125 C13.1757812,11.953126 13.1074226,12.1191399 12.9707031,12.2558594 C12.8339837,12.3925788 12.6679697,12.4609375 12.4726562,12.4609375 C12.2773428,12.4609375 12.1113288,12.3925788 11.9746094,12.2558594 C11.8378899,12.1191399 11.7695312,11.953126 11.7695312,11.7578125 L11.7695312,1.97265625 C11.7695312,1.77734277 11.8378899,1.61132881 11.9746094,1.47460938 C12.1113288,1.33788994 12.2773428,1.26953125 12.4726562,1.26953125 C12.6679697,1.26953125 12.8339837,1.33788994 12.9707031,1.47460938 C13.1074226,1.61132881 13.1757812,1.77734277 13.1757812,1.97265625 Z M9.42578125,6.97265625 L9.42578125,11.7578125 C9.42578125,11.953126 9.35742256,12.1191399 9.22070312,12.2558594 C9.08398369,12.3925788 8.91796973,12.4609375 8.72265625,12.4609375 C8.52734277,12.4609375 8.36132881,12.3925788 8.22460938,12.2558594 C8.08788994,12.1191399 8.01953125,11.953126 8.01953125,11.7578125 L8.01953125,6.97265625 C8.01953125,6.77734277 8.08788994,6.61132881 8.22460938,6.47460938 C8.36132881,6.33788994 8.52734277,6.26953125 8.72265625,6.26953125 C8.90494883,6.26953125 9.06770762,6.33788994 9.2109375,6.47460938 C9.35416738,6.61132881 9.42578125,6.77734277 9.42578125,6.97265625 Z"></path>
                        <path d="M1.26171875,13.6328125 L14.8164062,13.6328125 C15.0117197,13.6328125 15.1777337,13.7011712 15.3144531,13.8378906 C15.4511726,13.9746101 15.5195312,14.140624 15.5195312,14.3359375 C15.5195312,14.531251 15.4511726,14.6972649 15.3144531,14.8339844 C15.1777337,14.9707038 15.0117197,15.0390625 14.8164062,15.0390625 L1.26171875,15.0390625 C1.06640527,15.0390625 0.900391309,14.9707038 0.763671875,14.8339844 C0.626952441,14.6972649 0.55859375,14.531251 0.55859375,14.3359375 C0.55859375,14.140624 0.626952441,13.9746101 0.763671875,13.8378906 C0.900391309,13.7011712 1.06640527,13.6328125 1.26171875,13.6328125 Z" id="Path"></path>
                    </g>
                </g>
            </g>
        </g>
    </g>
</svg>