<?xml version="1.0" encoding="UTF-8"?>
<svg width="23px" height="22px" viewBox="0 0 23 22" version="1.1" xmlns="http://www.w3.org/2000/svg" xmlns:xlink="http://www.w3.org/1999/xlink">
    <!-- Generator: Sketch 52.3 (67297) - http://www.bohemiancoding.com/sketch -->
    <title>swap</title>
    <desc>Created with Sketch.</desc>
    <g id="Symbols" stroke="none" stroke-width="1" fill="none" fill-rule="evenodd">
        <g id="Read-/-Full-screen" transform="translate(-334.000000, -25.000000)" fill="#333333">
            <g id="Switch-mode" transform="translate(330.000000, 21.000000)">
                <path d="M5.69225924,12.3734204 C5.67176335,12.3734204 5.66151556,12.3682965 5.66151556,12.3580486 C5.66151556,12.3478006 5.65639166,12.3426767 5.64614372,12.3426767 L5.50779715,12.3426767 L5.47705347,12.311933 L5.38482242,12.311933 L5.35407874,12.2811894 L5.32333506,12.2811894 L5.29259138,12.2504457 L5.23110401,12.2504457 L5.23110401,12.219702 L5.20036033,12.219702 L5.16961665,12.1889583 L5.13887297,12.1889583 L5.13887297,12.1582146 L5.10812929,12.1582146 L5.04664192,12.0967273 L5.01589824,12.0967273 C4.99540235,12.0557355 4.97490677,12.0249921 4.95441088,12.0044962 C4.93391499,12.0044962 4.9236672,11.9993723 4.9236672,11.9891244 L4.9236672,11.9737525 L4.89292352,11.9430089 L4.89292352,11.9122652 L4.86217983,11.9122652 L4.86217983,11.8815215 L4.83143615,11.8507778 L4.83143615,11.835406 C4.83143615,11.825158 4.82631226,11.8200341 4.81606431,11.8200341 L4.80069247,11.8200341 L4.80069247,11.7892905 L4.76994879,11.7585468 L4.76994879,11.7124313 C4.76994879,11.7021833 4.76482489,11.6970594 4.75457695,11.6970594 L4.73920511,11.6970594 L4.73920511,11.6663157 C4.73920511,11.6458198 4.73408121,11.6355721 4.72383327,11.6355721 C4.71358532,11.6355721 4.70846143,11.6304482 4.70846143,11.6202002 L4.70846143,11.5125973 L4.67771775,11.4818536 L4.67771775,11.0514421 L4.70846143,11.0206984 L4.70846143,10.9284674 C4.72895732,10.9079715 4.73920511,10.8925998 4.73920511,10.8823519 L4.73920511,10.8362363 L4.76994879,10.8054926 L4.76994879,10.774749 L4.80069247,10.7440053 L4.80069247,10.7286334 C4.80069247,10.7183855 4.80581637,10.7081377 4.81606431,10.6978898 L4.83143615,10.6825179 L4.83143615,10.6671461 C4.83143615,10.6568981 4.83656005,10.6517742 4.84680799,10.6517742 C4.85705594,10.6517742 4.86217983,10.6466503 4.86217983,10.6364024 L4.86217983,10.6210306 L4.89292352,10.5902869 C4.89292352,10.569791 4.90317131,10.5595432 4.9236672,10.5595432 L4.9236672,10.5287995 L4.95441088,10.5287995 L10.4575299,5.0256805 C10.6624888,4.80022571 10.9186836,4.6875 11.2261219,4.6875 C11.5335603,4.6875 11.7897551,4.80022571 11.994714,5.0256805 C12.2201688,5.25113529 12.3328945,5.51245397 12.3328945,5.80964438 C12.3328945,6.10683479 12.2201688,6.36815347 11.994714,6.59360826 L8.4284469,10.1598753 L25.1837534,10.1598753 C25.4911918,10.1598753 25.7525104,10.2674771 25.9677173,10.482684 C26.1829241,10.6978908 26.2905259,10.9592095 26.2905259,11.2666479 C26.2905259,11.5740862 26.1829241,11.8354049 25.9677173,12.0506118 C25.7525104,12.2658186 25.4911918,12.3734204 25.1837534,12.3734204 L5.69225924,12.3734204 Z M25.2452408,18.3376946 C25.2657367,18.3376946 25.2759844,18.3428185 25.2759844,18.3530665 C25.2759844,18.3633144 25.2811083,18.3684383 25.2913563,18.3684383 L25.4297029,18.3684383 L25.4604465,18.399182 L25.5526776,18.399182 L25.5526776,18.4299257 L25.6141649,18.4299257 L25.6449086,18.4606694 L25.706396,18.4606694 L25.706396,18.4914131 L25.7371397,18.4914131 L25.7678833,18.5221567 L25.798627,18.5221567 L25.798627,18.5529004 L25.8293707,18.5529004 L25.8908581,18.6143878 L25.9216018,18.6143878 C25.9420976,18.6553796 25.9625932,18.6861229 25.9830891,18.7066188 C26.003585,18.7066188 26.0138328,18.7117427 26.0138328,18.7219907 L26.0138328,18.7373625 L26.0445765,18.7681062 L26.0445765,18.7988499 L26.0753202,18.7988499 L26.0753202,18.8295936 L26.090692,18.8295936 C26.10094,18.8295936 26.1060638,18.8347174 26.1060638,18.8449654 L26.1060638,18.8757091 C26.1060638,18.885957 26.1111877,18.8910809 26.1214357,18.8910809 C26.1316836,18.8910809 26.1368075,18.8962048 26.1368075,18.9064528 L26.1368075,18.9218246 L26.1675512,18.9525683 L26.1675512,18.9986838 C26.1675512,19.0089317 26.1726751,19.0140556 26.1829231,19.0140556 L26.1982949,19.0140556 L26.1982949,19.075543 L26.2136667,19.0909148 C26.2239147,19.1011628 26.2290386,19.1114106 26.2290386,19.1216585 L26.2290386,19.1985177 L26.2597823,19.2292614 L26.2597823,19.659673 L26.2290386,19.6904166 L26.2290386,19.7826477 L26.1982949,19.8133914 L26.1982949,19.8748787 L26.1675512,19.9056224 L26.1675512,19.9363661 L26.1368075,19.9671098 L26.1368075,19.9824816 C26.1368075,19.9927296 26.1316836,20.0029774 26.1214357,20.0132253 L26.1060638,20.0285971 L26.1060638,20.043969 C26.1060638,20.0542169 26.10094,20.0593408 26.090692,20.0593408 C26.0804441,20.0593408 26.0753202,20.0644647 26.0753202,20.0747127 L26.0753202,20.0900845 L26.0445765,20.1208282 C26.0445765,20.1413241 26.0394526,20.1515719 26.0292046,20.1515719 L26.0138328,20.1515719 L26.0138328,20.1823155 L25.9830891,20.1823155 L25.9677173,20.1976874 C25.9574693,20.2079353 25.9523454,20.223307 25.9523454,20.2438029 L20.5107138,25.6854346 C20.285259,25.9108894 20.0188164,26.0236151 19.7113781,26.0236151 C19.4039397,26.0236151 19.1477449,25.9108894 18.942786,25.6854346 C18.7173312,25.4804757 18.6046055,25.2242809 18.6046055,24.9168425 C18.6046055,24.6094042 18.7173312,24.3429616 18.942786,24.1175068 L22.5090531,20.5512397 L5.7537466,20.5512397 C5.46680414,20.5512397 5.21060935,20.4436379 4.98515456,20.2284311 C4.75969977,20.0132242 4.64697406,19.7519055 4.64697406,19.4444672 C4.64697406,19.1370288 4.75969977,18.8757102 4.98515456,18.6605033 C5.21060935,18.4452965 5.46680414,18.3376946 5.7537466,18.3376946 L25.2452408,18.3376946 Z" id="swap"></path>
            </g>
        </g>
    </g>
</svg>