<?xml version="1.0" encoding="UTF-8"?>
<svg width="20px" height="18px" viewBox="0 0 20 18" version="1.1" xmlns="http://www.w3.org/2000/svg" xmlns:xlink="http://www.w3.org/1999/xlink">
    <g id="Page-1" stroke="none" stroke-width="1" fill="none" fill-rule="evenodd">
        <g id="Icon-/-1-/-Black" transform="translate(-2.000000, -3.000000)" fill="#333333" fill-rule="nonzero">
            <path d="M19.0001691,15.1042177 L3.25404589,15.1042177 L3.15212303,15.0934144 C2.7900892,15.0934144 2.49573351,14.8053804 2.49573351,14.4489742 L2.49573351,14.2091391 C2.49573351,13.8527328 2.7900892,13.5646988 3.15212303,13.5646988 L3.397222,13.5646988 C3.44129412,13.5646988 3.48486412,13.5689768 3.50805865,13.5755022 L20.8844494,13.5755022 C21.5781071,13.5755022 21.9268324,14.3993184 21.4344708,14.8811058 L16.3035618,19.8829967 C16.2260982,20.1612518 15.9677298,20.3571722 15.6703501,20.3571722 L15.4252511,20.3571722 C15.0632173,20.3571722 14.7688616,20.0691382 14.7688616,19.712732 L14.7688616,19.4728968 C14.7688616,19.2315086 14.905228,19.0143388 15.1173903,18.9036081 L19.0001691,15.1042177 Z M9.10809922,4.90344856 L5.16031388,8.76644934 L20.9064371,8.76644934 C21.3303106,8.77860188 21.6647495,9.11387108 21.6647495,9.52725266 L21.6647495,9.55596821 C21.6647495,9.97018177 21.3289631,10.3059682 20.9147495,10.3059682 L20.8568715,10.3059682 C20.8106556,10.3059682 20.7649239,10.3017761 20.7382245,10.2951649 L3.27603362,10.2951649 C2.58237591,10.2951649 2.23365064,9.47134862 2.72601224,8.98956121 L7.92022656,3.91357848 C8.04915515,3.6695401 8.30266708,3.51349488 8.58374338,3.51349488 L8.64162138,3.51349488 C9.05583495,3.51349488 9.39162138,3.84928132 9.39162138,4.26349488 L9.39162138,4.29221043 C9.39162138,4.52418145 9.28545866,4.73857403 9.10809922,4.87952913 L9.10809922,4.90344856 Z" id="swap"></path>
        </g>
    </g>
</svg>