<?xml version="1.0" encoding="UTF-8"?>
<svg width="19px" height="19px" viewBox="0 0 19 19" version="1.1" xmlns="http://www.w3.org/2000/svg" xmlns:xlink="http://www.w3.org/1999/xlink">
    <!-- Generator: Sketch 51.3 (57544) - http://www.bohemiancoding.com/sketch -->
    <title>switcher-add</title>
    <desc>Created with Sketch.</desc>
    <defs></defs>
    <g id="Symbols" stroke="none" stroke-width="1" fill="none" fill-rule="evenodd">
        <g id="Icon-/-Add-note-/-White" transform="translate(-3.000000, -3.000000)" fill="#FFFFFF">
            <g id="switcher-add" transform="translate(3.000000, 3.000000)">
                <path d="M8.078125,12.078125 L8.078125,15.046875 C8.078125,15.2421885 8.00976631,15.4082024 7.87304688,15.5449219 C7.73632744,15.6816413 7.57031348,15.75 7.375,15.75 C7.17968652,15.75 7.01367256,15.6816413 6.87695312,15.5449219 C6.74023369,15.4082024 6.671875,15.2421885 6.671875,15.046875 L6.671875,12.078125 L3.703125,12.078125 C3.50781152,12.078125 3.34179756,12.0097663 3.20507812,11.8730469 C3.06835869,11.7363274 3,11.5703135 3,11.375 C3,11.1796865 3.06835869,11.0136726 3.20507812,10.8769531 C3.34179756,10.7402337 3.50781152,10.671875 3.703125,10.671875 L6.671875,10.671875 L6.671875,7.703125 C6.671875,7.50781152 6.74023369,7.34179756 6.87695312,7.20507812 C7.01367256,7.06835869 7.17968652,7 7.375,7 C7.57031348,7 7.73632744,7.06835869 7.87304688,7.20507812 C8.00976631,7.34179756 8.078125,7.50781152 8.078125,7.703125 L8.078125,10.671875 L11.046875,10.671875 C11.2421885,10.671875 11.4082024,10.7402337 11.5449219,10.8769531 C11.6816413,11.0136726 11.75,11.1796865 11.75,11.375 C11.75,11.5703135 11.6816413,11.7363274 11.5449219,11.8730469 C11.4082024,12.0097663 11.2421885,12.078125 11.046875,12.078125 L8.078125,12.078125 Z" id="Combined-Shape"></path>
                <path d="M13.59375,4.90625 L1.40625,4.90625 L1.40625,17.09375 L13.59375,17.09375 L13.59375,4.90625 Z M13.59375,3.5 C13.984377,3.5 14.3164049,3.63671738 14.5898438,3.91015625 C14.8632826,4.18359512 15,4.51562305 15,4.90625 L15,17.09375 C15,17.484377 14.8632826,17.8164049 14.5898438,18.0898438 C14.3164049,18.3632826 13.984377,18.5 13.59375,18.5 L1.40625,18.5 C1.01562305,18.5 0.683595117,18.3632826 0.41015625,18.0898438 C0.136717383,17.8164049 0,17.484377 0,17.09375 L0,4.90625 C0,4.51562305 0.136717383,4.18359512 0.41015625,3.91015625 C0.683595117,3.63671738 1.01562305,3.5 1.40625,3.5 L13.59375,3.5 Z M17.59375,0 C17.984377,0 18.3164049,0.136717383 18.5898438,0.41015625 C18.8632826,0.683595117 19,1.01562305 19,1.40625 L19,14.296875 C19,14.4921885 18.9316413,14.6582024 18.7949219,14.7949219 C18.6582024,14.9316413 18.4921885,15 18.296875,15 C18.1015615,15 17.9355476,14.9316413 17.7988281,14.7949219 C17.6621087,14.6582024 17.59375,14.4921885 17.59375,14.296875 L17.59375,1.40625 L4.703125,1.40625 C4.50781152,1.40625 4.34179756,1.33789131 4.20507812,1.20117188 C4.06835869,1.06445244 4,0.898438477 4,0.703125 C4,0.507811523 4.06835869,0.341797559 4.20507812,0.205078125 C4.34179756,0.0683586914 4.50781152,0 4.703125,0 L17.59375,0 Z" id="switcher---anticon"></path>
            </g>
        </g>
    </g>
</svg>