<?xml version="1.0" encoding="UTF-8"?>
<svg width="23px" height="14px" viewBox="0 0 23 14" version="1.1" xmlns="http://www.w3.org/2000/svg" xmlns:xlink="http://www.w3.org/1999/xlink">
    <!-- Generator: Sketch 51.3 (57544) - http://www.bohemiancoding.com/sketch -->
    <title>text</title>
    <desc>Created with Sketch.</desc>
    <defs></defs>
    <g id="Symbols" stroke="none" stroke-width="1" fill="none" fill-rule="evenodd">
        <g id="Read-/-Full-screen" transform="translate(-1204.000000, -29.000000)" fill="#333333">
            <g id="Icon-/-Folder-/-Extra-/-Active-Copy-2" transform="translate(1201.000000, 21.000000)">
                <path d="M3.68778589,21 L8.46903589,8.71484375 L11.0256765,8.71484375 L15.8069265,21 L13.1838796,21 L11.9055593,17.7211914 L6.82548121,17.7211914 L5.54716089,21 L3.68778589,21 Z M7.45634058,16.0859375 L11.2747,16.0859375 L9.36552027,11.1884766 L7.45634058,16.0859375 Z M22.2631836,20.0205078 C21.4441691,20.8118529 20.567062,21.2075195 19.6318359,21.2075195 C18.834957,21.2075195 18.1875025,20.9640324 17.6894531,20.4770508 C17.1914038,19.9900692 16.9423828,19.3592161 16.9423828,18.5844727 C16.9423828,17.5773062 17.3449667,16.8011909 18.1501465,16.2561035 C18.9553263,15.7110162 20.1077399,15.4384766 21.6074219,15.4384766 L22.2631836,15.4384766 L22.2631836,14.6083984 C22.2631836,13.6621046 21.7236382,13.1889648 20.6445312,13.1889648 C19.6871697,13.1889648 18.7187549,13.460121 17.7392578,14.0024414 L17.7392578,12.309082 C18.8515681,11.888507 19.952794,11.6782227 21.0429688,11.6782227 C23.4280718,11.6782227 24.6206055,12.6272692 24.6206055,14.5253906 L24.6206055,18.5595703 C24.6206055,19.2734411 24.8502581,19.6303711 25.3095703,19.6303711 C25.3925785,19.6303711 25.5004876,19.6193035 25.6333008,19.597168 L25.6914062,20.9750977 C25.1712214,21.1300463 24.7119161,21.2075195 24.3134766,21.2075195 C23.3063101,21.2075195 22.6588556,20.8118529 22.3710938,20.0205078 L22.2631836,20.0205078 Z M22.2631836,18.7006836 L22.2631836,16.8496094 L21.6821289,16.8496094 C20.0939048,16.8496094 19.2998047,17.3476513 19.2998047,18.34375 C19.2998047,18.6813168 19.414631,18.964924 19.6442871,19.1945801 C19.8739432,19.4242362 20.1575504,19.5390625 20.4951172,19.5390625 C21.0706409,19.5390625 21.6599905,19.2596057 22.2631836,18.7006836 Z" id="text"></path>
            </g>
        </g>
    </g>
</svg>