<?xml version="1.0" encoding="UTF-8"?>
<svg width="18px" height="18px" viewBox="0 0 18 18" version="1.1" xmlns="http://www.w3.org/2000/svg" xmlns:xlink="http://www.w3.org/1999/xlink">
    <!-- Generator: Sketch 52.3 (67297) - http://www.bohemiancoding.com/sketch -->
    <title>theme</title>
    <desc>Created with Sketch.</desc>
    <g id="Pages" stroke="none" stroke-width="1" fill="none" fill-rule="evenodd">
        <g id="UI-/-Navigation-/-Account" transform="translate(-1057.000000, -290.000000)" fill="#333333" fill-rule="nonzero">
            <g id="Pop-up" transform="translate(1033.000000, 80.000000)">
                <g id="Link" transform="translate(0.000000, 192.000000)">
                    <g id="Icon" transform="translate(20.000000, 15.000000)">
                        <g id="moon" transform="translate(4.000000, 3.000000)">
                            <path d="M17.5744316,10.2429559 C17.3904061,10.1969495 17.2063807,10.2429559 17.0453584,10.3579718 C16.4472757,10.8640418 15.7571802,11.2780991 14.9980751,11.5541373 C14.2849765,11.8301755 13.5028683,11.9681946 12.6747537,11.9681946 C10.8114959,11.9681946 9.10926036,11.2090895 7.89009168,9.98992086 C6.67092299,8.77075217 5.91181796,7.06851665 5.91181796,5.20525885 C5.91181796,4.42315063 6.04983706,3.6640456 6.27986889,2.97395012 C6.5329039,2.23784828 6.90095482,1.57075598 7.38402166,0.995676408 C7.5910503,0.742641398 7.54504394,0.374590474 7.29200893,0.167561829 C7.13098665,0.0525459157 6.94696118,0.00653955026 6.76293572,0.0525459157 C4.80766519,0.581619119 3.10542967,1.75478144 1.88626098,3.31899786 C0.713098665,4.86021111 -2.84217094e-14,6.76947527 -2.84217094e-14,8.8627649 C-2.84217094e-14,11.3701118 1.01214004,13.6474269 2.6683692,15.3036561 C4.32459835,16.9598852 6.60191344,17.9720253 9.10926036,17.9720253 C11.2255532,17.9720253 13.1808237,17.2359234 14.7450401,16.0167547 C16.3322597,14.7745829 17.4824189,13.0033378 17.9654857,10.9790577 C18.0805016,10.63401 17.8964762,10.3119654 17.5744316,10.2429559 Z M14.0549446,15.0506211 C12.7207601,16.1087675 11.0185245,16.7528566 9.15526673,16.7528566 C6.96996437,16.7528566 4.99169065,15.8557325 3.56549332,14.4295351 C2.13929599,13.0033378 1.24217187,11.0250641 1.24217187,8.83976172 C1.24217187,7.02251028 1.84025462,5.36628113 2.87539784,4.03209653 C3.58849651,3.11196922 4.48562063,2.35286419 5.52076386,1.82379099 C5.40574794,2.076826 5.29073203,2.32986101 5.1987193,2.6058992 C4.89967792,3.43401378 4.76165883,4.30813472 4.76165883,5.22826203 C4.76165883,7.41356439 5.65878295,9.41484129 7.08498028,10.8410386 C8.51117761,12.2672359 10.5124545,13.1643601 12.6977569,13.1643601 C13.6638905,13.1643601 14.5840179,13.0033378 15.4351356,12.6812932 C15.734177,12.5662773 16.0332184,12.4512614 16.3092566,12.3132423 C15.7571802,13.3713887 14.9980751,14.3145192 14.0549446,15.0506211 Z" id="theme"></path>
                        </g>
                    </g>
                </g>
            </g>
        </g>
    </g>
</svg>