<?xml version="1.0" encoding="UTF-8"?>
<svg width="20px" height="21px" viewBox="0 0 20 21" version="1.1" xmlns="http://www.w3.org/2000/svg" xmlns:xlink="http://www.w3.org/1999/xlink">
    <!-- Generator: Sketch 52.3 (67297) - http://www.bohemiancoding.com/sketch -->
    <title>unfullscreen</title>
    <desc>Created with Sketch.</desc>
    <g id="Pages" stroke="none" stroke-width="1" fill="none" fill-rule="evenodd">
        <g id="Note-assistant-/-Guest-/-1" transform="translate(-1338.000000, -26.000000)" fill="#FFFFFF" stroke="#FFFFFF" stroke-width="0.2">
            <g id="Icon-/-Full-screen" transform="translate(1336.000000, 24.000000)">
                <path d="M20.75,16 C20.953126,16 21.1289055,16.074218 21.2773438,16.2226562 C21.425782,16.3710945 21.5,16.546874 21.5,16.75 C21.5,16.953126 21.425782,17.1289055 21.2773438,17.2773438 C21.1289055,17.425782 20.953126,17.5 20.75,17.5 L17,17.5 L17,21.25 C17,21.453126 16.925782,21.6289055 16.7773438,21.7773438 C16.6289055,21.925782 16.453126,22 16.25,22 C16.046874,22 15.8710945,21.925782 15.7226562,21.7773438 C15.574218,21.6289055 15.5,21.453126 15.5,21.25 L15.5,16.75 C15.5,16.546874 15.574218,16.3710945 15.7226562,16.2226562 C15.8710945,16.074218 16.046874,16 16.25,16 L20.75,16 Z M7.75,3 C7.95312602,3 8.12890551,3.07421801 8.27734375,3.22265625 C8.42578199,3.37109449 8.5,3.54687398 8.5,3.75 L8.5,8.25 C8.5,8.45312602 8.42578199,8.62890551 8.27734375,8.77734375 C8.12890551,8.92578199 7.95312602,9 7.75,9 L3.25,9 C3.04687398,9 2.87109449,8.92578199 2.72265625,8.77734375 C2.57421801,8.62890551 2.5,8.45312602 2.5,8.25 C2.5,8.04687398 2.57421801,7.87109449 2.72265625,7.72265625 C2.87109449,7.57421801 3.04687398,7.5 3.25,7.5 L7,7.5 L7,3.75 C7,3.54687398 7.07421801,3.37109449 7.22265625,3.22265625 C7.37109449,3.07421801 7.54687398,3 7.75,3 Z M20.75,7.5 C20.953126,7.5 21.1289055,7.57421801 21.2773438,7.72265625 C21.425782,7.87109449 21.5,8.04687398 21.5,8.25 C21.5,8.45312602 21.425782,8.62890551 21.2773438,8.77734375 C21.1289055,8.92578199 20.953126,9 20.75,9 L16.25,9 C16.046874,9 15.8710945,8.92578199 15.7226562,8.77734375 C15.574218,8.62890551 15.5,8.45312602 15.5,8.25 L15.5,3.75 C15.5,3.54687398 15.574218,3.37109449 15.7226562,3.22265625 C15.8710945,3.07421801 16.046874,3 16.25,3 C16.453126,3 16.6289055,3.07421801 16.7773438,3.22265625 C16.925782,3.37109449 17,3.54687398 17,3.75 L17,7.5 L20.75,7.5 Z M7.75,16 C7.95312602,16 8.12890551,16.074218 8.27734375,16.2226562 C8.42578199,16.3710945 8.5,16.546874 8.5,16.75 L8.5,21.25 C8.5,21.453126 8.42578199,21.6289055 8.27734375,21.7773438 C8.12890551,21.925782 7.95312602,22 7.75,22 C7.54687398,22 7.37109449,21.925782 7.22265625,21.7773438 C7.07421801,21.6289055 7,21.453126 7,21.25 L7,17.5 L3.25,17.5 C3.04687398,17.5 2.87109449,17.425782 2.72265625,17.2773438 C2.57421801,17.1289055 2.5,16.953126 2.5,16.75 C2.5,16.546874 2.57421801,16.3710945 2.72265625,16.2226562 C2.87109449,16.074218 3.04687398,16 3.25,16 L7.75,16 Z" id="unfullscreen"></path>
            </g>
        </g>
    </g>
</svg>