<?xml version="1.0" encoding="UTF-8"?>
<svg width="16px" height="19px" viewBox="0 0 16 19" version="1.1" xmlns="http://www.w3.org/2000/svg" xmlns:xlink="http://www.w3.org/1999/xlink">
    <!-- Generator: Sketch 52.3 (67297) - http://www.bohemiancoding.com/sketch -->
    <title>user-delete</title>
    <desc>Created with Sketch.</desc>
    <g id="Pages" stroke="none" stroke-width="1" fill="none" fill-rule="evenodd">
        <g id="Classes-/-Member-/-UI-/-5" transform="translate(-1067.000000, -305.000000)" fill="#333333">
            <g id="NAv-Copy-11" transform="translate(1043.000000, 288.000000)">
                <g id="Icon" transform="translate(20.000000, 15.000000)">
                    <path d="M16.9130379,13.4494536 C16.1746605,13.4912485 15.4850541,13.7002201 14.8441983,14.0763747 C14.1058208,13.78381 13.3326259,13.6375299 12.5245902,13.6375299 C10.7274073,13.6375299 9.19146599,14.2748933 7.91672003,15.5496393 C6.64197407,16.8243852 6.00461066,18.3672923 6.00461066,20.1784068 L6.00461066,20.2202015 C6.00461066,20.4291762 5.93147059,20.6068021 5.78518827,20.7530844 C5.63890595,20.8993668 5.46128007,20.9725068 5.25230533,20.9725068 C5.04333058,20.9725068 4.86570471,20.8993668 4.71942239,20.7530844 C4.57314006,20.6068021 4.5,20.4291762 4.5,20.2202015 L4.5,20.1784068 C4.5,18.7155835 4.8587346,17.3677166 5.57621457,16.1347656 C6.29369453,14.9018146 7.26889539,13.9266138 8.5018464,13.2091338 C9.7347974,12.4916538 11.0756986,12.1329192 12.5245902,12.1329192 C14.1267299,12.1329192 15.5895312,12.5717596 16.9130379,13.4494536 Z M18.271367,18.1304645 L19.5670039,19.4261014 C19.7202521,19.5654179 19.796875,19.7395609 19.796875,19.9485357 C19.796875,20.1575104 19.7237349,20.3351363 19.5774526,20.4814186 C19.4311703,20.627701 19.2535444,20.700841 19.0445697,20.700841 C18.8355949,20.700841 18.6544862,20.6311838 18.501238,20.4918673 L17.2056011,19.1962304 L15.9099641,20.4918673 C15.756716,20.6311838 15.5756073,20.700841 15.3666325,20.700841 C15.1576578,20.700841 14.9800319,20.627701 14.8337496,20.4814186 C14.6874673,20.3351363 14.6143272,20.1575104 14.6143272,19.9485357 C14.6143272,19.7395609 14.6909501,19.5654179 14.8441983,19.4261014 L16.1398352,18.1304645 L14.8441983,16.8348275 C14.6909501,16.6815794 14.6143272,16.5004706 14.6143272,16.2914959 C14.6143272,16.0825212 14.6874673,15.9048953 14.8337496,15.758613 C14.9800319,15.6123306 15.1576578,15.5391906 15.3666325,15.5391906 C15.5756073,15.5391906 15.756716,15.6088478 15.9099641,15.7481643 L17.2056011,17.0646986 L18.501238,15.7481643 C18.6544862,15.6088478 18.8355949,15.5391906 19.0445697,15.5391906 C19.2535444,15.5391906 19.4311703,15.6123306 19.5774526,15.758613 C19.7237349,15.9048953 19.796875,16.0825212 19.796875,16.2914959 C19.796875,16.5004706 19.7202521,16.6815794 19.5670039,16.8348275 L18.271367,18.1304645 Z M15.8263747,10.7536928 C14.9208174,11.6731817 13.8202336,12.1329192 12.5245902,12.1329192 C11.2289467,12.1329192 10.12488,11.6731817 9.21235698,10.7536928 C8.29983392,9.83420391 7.84357923,8.73013722 7.84357923,7.44145961 C7.84357923,6.15278201 8.29983392,5.04871532 9.21235698,4.12922643 C10.12488,3.20973755 11.2289467,2.75 12.5245902,2.75 C13.8202336,2.75 14.9243003,3.20973755 15.8368233,4.12922643 C16.7493464,5.04871532 17.2056011,6.15278201 17.2056011,7.44145961 C17.2056011,8.73013722 16.7458635,9.83420391 15.8263747,10.7536928 Z M14.7606088,9.70882428 C15.387533,9.08190004 15.7009904,8.32611938 15.7009904,7.44145961 C15.7009904,6.55679985 15.3910159,5.80450205 14.7710575,5.18454363 C14.151099,4.56458521 13.4022841,4.25461066 12.5245902,4.25461066 C11.6468962,4.25461066 10.8980813,4.56458521 10.2781229,5.18454363 C9.65816445,5.80450205 9.34818989,6.55679985 9.34818989,7.44145961 C9.34818989,8.32611938 9.65816445,9.07841718 10.2781229,9.6983756 C10.8980813,10.318334 11.6468962,10.6283086 12.5245902,10.6283086 C13.4022841,10.6283086 14.1476162,10.3218169 14.7606088,9.70882428 Z" id="user-delete"></path>
                </g>
            </g>
        </g>
    </g>
</svg>