<?xml version="1.0" encoding="UTF-8"?>
<svg width="18px" height="19px" viewBox="0 0 18 19" version="1.1" xmlns="http://www.w3.org/2000/svg" xmlns:xlink="http://www.w3.org/1999/xlink">
    <!-- Generator: Sketch 51.3 (57544) - http://www.bohemiancoding.com/sketch -->
    <title>account</title>
    <desc>Created with Sketch.</desc>
    <defs></defs>
    <g id="Symbols" stroke="none" stroke-width="1" fill="none" fill-rule="evenodd">
        <g id="Icon-/-Settings-/-Account" transform="translate(-3.000000, -3.000000)" fill="#333333">
            <path d="M20.7304688,20.4101562 C20.7695314,20.5924488 20.7337245,20.7649731 20.6230469,20.9277344 C20.5123692,21.0904956 20.359376,21.1914061 20.1640625,21.2304688 C20.1249998,21.2434896 20.0794273,21.25 20.0273438,21.25 C19.871093,21.25 19.7278652,21.194662 19.5976562,21.0839844 C19.4674473,20.9733067 19.3828127,20.8333342 19.34375,20.6640625 C19.2395828,20.1041639 18.966148,19.6419289 18.5234375,19.2773438 C18.080727,18.9127586 17.5696644,18.7304688 16.9902344,18.7304688 C16.4108044,18.7304688 15.8997418,18.9127586 15.4570312,19.2773438 C15.0143207,19.6419289 14.7408859,20.1041639 14.6367188,20.6640625 C14.5976561,20.859376 14.5000008,21.0123692 14.34375,21.1230469 C14.1874992,21.2337245 14.0117197,21.2695314 13.8164062,21.2304688 C13.6210928,21.1914061 13.4680995,21.0904956 13.3574219,20.9277344 C13.2467442,20.7649731 13.2109373,20.5924488 13.25,20.4101562 C13.380209,19.7591113 13.6503886,19.1862004 14.0605469,18.6914062 C14.4707052,18.1966121 14.9752574,17.8320324 15.5742188,17.5976562 C15.2096336,17.3632801 14.9231781,17.0540384 14.7148438,16.6699219 C14.5065094,16.2858054 14.4023438,15.8789084 14.4023438,15.4492188 C14.4023438,14.7330693 14.6562475,14.1243515 15.1640625,13.6230469 C15.6718775,13.1217423 16.2805954,12.8710938 16.9902344,12.8710938 C17.6998733,12.8710938 18.305336,13.1217423 18.8066406,13.6230469 C19.3079452,14.1243515 19.5585938,14.7330693 19.5585938,15.4492188 C19.5585938,15.8919293 19.4576833,16.3020814 19.2558594,16.6796875 C19.0540354,17.0572936 18.7708352,17.3632801 18.40625,17.5976562 C19.0052113,17.8320324 19.5097636,18.1966121 19.9199219,18.6914062 C20.3300802,19.1862004 20.6002598,19.7591113 20.7304688,20.4101562 Z M16.1601562,14.6289062 C15.938801,14.8502615 15.828125,15.1236963 15.828125,15.4492188 C15.828125,15.7747412 15.9420562,16.0514312 16.1699219,16.2792969 C16.3977876,16.5071626 16.6712224,16.6210938 16.9902344,16.6210938 C17.3092464,16.6210938 17.5859363,16.5071626 17.8203125,16.2792969 C18.0546887,16.0514312 18.171875,15.7747412 18.171875,15.4492188 C18.171875,15.1236963 18.0546887,14.8470063 17.8203125,14.6191406 C17.5859363,14.3912749 17.3092464,14.2773438 16.9902344,14.2773438 C16.6712224,14.2773438 16.3945324,14.3945301 16.1601562,14.6289062 Z M19.34375,3.75 C19.734377,3.75 20.0664049,3.88671738 20.3398438,4.16015625 C20.6132826,4.43359512 20.75,4.76562305 20.75,5.15625 L20.75,11.796875 C20.75,11.9921885 20.6816413,12.1582024 20.5449219,12.2949219 C20.4082024,12.4316413 20.2454437,12.5 20.0566406,12.5 C19.8678376,12.5 19.7018236,12.4316413 19.5585938,12.2949219 C19.4153639,12.1582024 19.34375,11.9921885 19.34375,11.796875 L19.34375,5.15625 L4.65625,5.15625 L4.65625,19.84375 L10.046875,19.84375 C10.2421885,19.84375 10.4082024,19.9121087 10.5449219,20.0488281 C10.6816413,20.1855476 10.75,20.3515615 10.75,20.546875 C10.75,20.7421885 10.6816413,20.9082024 10.5449219,21.0449219 C10.4082024,21.1816413 10.2421885,21.25 10.046875,21.25 L4.65625,21.25 C4.26562305,21.25 3.93359512,21.1132826 3.66015625,20.8398438 C3.38671738,20.5664049 3.25,20.234377 3.25,19.84375 L3.25,5.15625 C3.25,4.76562305 3.38671738,4.43359512 3.66015625,4.16015625 C3.93359512,3.88671738 4.26562305,3.75 4.65625,3.75 L19.34375,3.75 Z M6.453125,8.90625 C6.27083242,8.90625 6.10807363,8.83789131 5.96484375,8.70117188 C5.82161387,8.56445244 5.75,8.39843848 5.75,8.203125 C5.75,8.00781152 5.82161387,7.84179756 5.96484375,7.70507812 C6.10807363,7.56835869 6.27083242,7.5 6.453125,7.5 L12.546875,7.5 C12.7421885,7.5 12.9082024,7.56835869 13.0449219,7.70507812 C13.1816413,7.84179756 13.25,8.00781152 13.25,8.203125 C13.25,8.39843848 13.1816413,8.56445244 13.0449219,8.70117188 C12.9082024,8.83789131 12.7421885,8.90625 12.546875,8.90625 L6.453125,8.90625 Z M10.046875,11.25 C10.2421885,11.25 10.4082024,11.3183587 10.5449219,11.4550781 C10.6816413,11.5917976 10.75,11.7578115 10.75,11.953125 C10.75,12.1484385 10.6816413,12.3144524 10.5449219,12.4511719 C10.4082024,12.5878913 10.2421885,12.65625 10.046875,12.65625 L6.453125,12.65625 C6.27083242,12.65625 6.10807363,12.5878913 5.96484375,12.4511719 C5.82161387,12.3144524 5.75,12.1484385 5.75,11.953125 C5.75,11.7578115 5.82161387,11.5917976 5.96484375,11.4550781 C6.10807363,11.3183587 6.27083242,11.25 6.453125,11.25 L10.046875,11.25 Z M10.046875,15 C10.2421885,15 10.4082024,15.0683587 10.5449219,15.2050781 C10.6816413,15.3417976 10.75,15.5078115 10.75,15.703125 C10.75,15.8984385 10.6816413,16.0644524 10.5449219,16.2011719 C10.4082024,16.3378913 10.2421885,16.40625 10.046875,16.40625 L6.453125,16.40625 C6.27083242,16.40625 6.10807363,16.3378913 5.96484375,16.2011719 C5.82161387,16.0644524 5.75,15.8984385 5.75,15.703125 C5.75,15.5078115 5.82161387,15.3417976 5.96484375,15.2050781 C6.10807363,15.0683587 6.27083242,15 6.453125,15 L10.046875,15 Z" id="account"></path>
        </g>
    </g>
</svg>