<?xml version="1.0" encoding="UTF-8"?>
<svg width="12px" height="8px" viewBox="0 0 12 8" version="1.1" xmlns="http://www.w3.org/2000/svg" xmlns:xlink="http://www.w3.org/1999/xlink">
    <!-- Generator: Sketch 51.3 (57544) - http://www.bohemiancoding.com/sketch -->
    <title>arrow</title>
    <desc>Created with Sketch.</desc>
    <defs></defs>
    <g id="Symbols" stroke="none" stroke-width="1" fill="none" fill-rule="evenodd">
        <g id="Icon-/-Arrow-/-Down-/-White" transform="translate(-6.000000, -8.000000)" fill="#FFFFFF">
            <path d="M17.486478,8.62008899 C17.486478,8.76327188 17.4387511,8.89690723 17.3432958,9.02099907 L12.4607839,15.0776048 C12.336692,15.2398787 12.1744205,15.3210145 11.9739645,15.3210145 C11.7735085,15.3210145 11.611237,15.2398787 11.4871451,15.0776048 L6.63326962,9.03531728 C6.52826884,8.90167992 6.48531462,8.7489538 6.50440567,8.57713434 C6.52349672,8.40531488 6.59985978,8.26690684 6.73349714,8.16190605 C6.8671345,8.05690527 7.01986062,8.01395105 7.19168008,8.0330421 C7.36349954,8.05213315 7.50190758,8.12849621 7.60690837,8.26213357 L11.9739645,13.6887378 L16.3696571,8.23349714 C16.4746579,8.09985978 16.6130659,8.02349672 16.7848854,8.00440567 C16.9567048,7.98531462 17.109431,8.02826884 17.2430683,8.13326962 C17.4053422,8.25736145 17.486478,8.41963295 17.486478,8.62008899 Z" id="arrow"></path>
        </g>
    </g>
</svg>