<?xml version="1.0" encoding="UTF-8"?>
<svg width="20px" height="15px" viewBox="0 0 20 15" version="1.1" xmlns="http://www.w3.org/2000/svg" xmlns:xlink="http://www.w3.org/1999/xlink">
    <!-- Generator: Sketch 51.3 (57544) - http://www.bohemiancoding.com/sketch -->
    <title>billing</title>
    <desc>Created with Sketch.</desc>
    <defs></defs>
    <g id="Symbols" stroke="none" stroke-width="1" fill="none" fill-rule="evenodd">
        <g id="Icon-/-Billing-methods" transform="translate(-2.000000, -5.000000)" fill="#000000">
            <path d="M20.59375,5.0390625 C20.984377,5.0390625 21.3164049,5.17577988 21.5898438,5.44921875 C21.8632826,5.72265762 22,6.05468555 22,6.4453125 L22,18.5742188 C22,18.9518248 21.8632826,19.2805976 21.5898438,19.5605469 C21.3164049,19.8404962 20.984377,19.9804688 20.59375,19.9804688 L3.40625,19.9804688 C3.01562305,19.9804688 2.68359512,19.8404962 2.41015625,19.5605469 C2.13671738,19.2805976 2,18.9518248 2,18.5742188 L2,6.4453125 C2,6.05468555 2.13671738,5.72265762 2.41015625,5.44921875 C2.68359512,5.17577988 3.01562305,5.0390625 3.40625,5.0390625 L20.59375,5.0390625 Z M20.59375,18.5742188 L20.59375,10.6640625 L3.40625,10.6640625 L3.40625,18.5742188 L20.59375,18.5742188 Z M3.40625,8.7890625 L20.59375,8.7890625 L20.59375,6.4453125 L3.40625,6.4453125 L3.40625,8.7890625 Z M6.62890625,16.25 C6.39453008,16.25 6.19270918,16.1653654 6.0234375,15.9960938 C5.85416582,15.8268221 5.76953125,15.6250012 5.76953125,15.390625 C5.76953125,15.1562488 5.85416582,14.9544279 6.0234375,14.7851562 C6.19270918,14.6158846 6.39453008,14.53125 6.62890625,14.53125 C6.86328242,14.53125 7.06510332,14.6158846 7.234375,14.7851562 C7.40364668,14.9544279 7.48828125,15.1562488 7.48828125,15.390625 C7.48828125,15.6250012 7.40364668,15.8268221 7.234375,15.9960938 C7.06510332,16.1653654 6.86328242,16.25 6.62890625,16.25 Z M9.890625,16.25 C9.64322793,16.25 9.43815186,16.1653654 9.27539062,15.9960938 C9.11262939,15.8268221 9.03125,15.6250012 9.03125,15.390625 C9.03125,15.1562488 9.11262939,14.9544279 9.27539062,14.7851562 C9.43815186,14.6158846 9.64322793,14.53125 9.890625,14.53125 C10.1250012,14.53125 10.3268221,14.6158846 10.4960938,14.7851562 C10.6653654,14.9544279 10.75,15.1562488 10.75,15.390625 C10.75,15.6250012 10.6653654,15.8268221 10.4960938,15.9960938 C10.3268221,16.1653654 10.1250012,16.25 9.890625,16.25 Z" id="billing"></path>
        </g>
    </g>
</svg>