<?xml version="1.0" encoding="UTF-8"?>
<svg width="16px" height="13px" viewBox="0 0 16 13" version="1.1" xmlns="http://www.w3.org/2000/svg" xmlns:xlink="http://www.w3.org/1999/xlink">
    <!-- Generator: Sketch 51.3 (57544) - http://www.bohemiancoding.com/sketch -->
    <title>check</title>
    <desc>Created with Sketch.</desc>
    <defs></defs>
    <g id="Symbols" stroke="none" stroke-width="1" fill="none" fill-rule="evenodd">
        <g id="Icon-/-Check" transform="translate(-4.000000, -6.000000)" fill="#000000">
            <path d="M8.40625,18.125 C8.3671873,18.125 8.33463555,18.1184896 8.30859375,18.1054688 C8.04817578,18.079427 7.85286523,17.9492199 7.72265625,17.7148438 L4.6171875,12.2851562 C4.51302031,12.0898428 4.48697891,11.8880219 4.5390625,11.6796875 C4.59114609,11.4713531 4.7115876,11.3151047 4.90039062,11.2109375 C5.08919365,11.1067703 5.28775938,11.0839841 5.49609375,11.1425781 C5.70442812,11.2011722 5.86718691,11.3216137 5.984375,11.5039062 L8.58203125,16.0546875 L18.171875,6.4453125 C18.3151049,6.28906172 18.4973947,6.2109375 18.71875,6.2109375 C18.9401053,6.2109375 19.1256503,6.28580654 19.2753906,6.43554688 C19.425131,6.58528721 19.5,6.77083223 19.5,6.9921875 C19.5,7.21354277 19.4218758,7.39583262 19.265625,7.5390625 L8.9921875,17.8515625 L8.953125,17.890625 C8.80989512,18.0468758 8.62760527,18.125 8.40625,18.125 Z" id="check"></path>
        </g>
    </g>
</svg>