<?xml version="1.0" encoding="UTF-8"?>
<svg width="18px" height="19px" viewBox="0 0 18 19" version="1.1" xmlns="http://www.w3.org/2000/svg" xmlns:xlink="http://www.w3.org/1999/xlink">
    <!-- Generator: Sketch 51.3 (57544) - http://www.bohemiancoding.com/sketch -->
    <title>edit</title>
    <desc>Created with Sketch.</desc>
    <defs></defs>
    <g id="Symbols" stroke="none" stroke-width="1" fill="none" fill-rule="evenodd">
        <g id="Icon-/-Edit" transform="translate(-3.000000, -3.000000)" fill="#333333">
            <path d="M20.046875,19.84375 C20.2421885,19.84375 20.4082024,19.9121087 20.5449219,20.0488281 C20.6816413,20.1855476 20.75,20.3515615 20.75,20.546875 C20.75,20.7421885 20.6816413,20.9082024 20.5449219,21.0449219 C20.4082024,21.1816413 20.2421885,21.25 20.046875,21.25 L3.953125,21.25 C3.75781152,21.25 3.59179756,21.1816413 3.45507812,21.0449219 C3.31835869,20.9082024 3.25,20.7421885 3.25,20.546875 C3.25,20.3515615 3.31835869,20.1855476 3.45507812,20.0488281 C3.59179756,19.9121087 3.75781152,19.84375 3.953125,19.84375 L20.046875,19.84375 Z M7.78125,17.5390625 C7.52083203,17.6432297 7.29296973,17.5976572 7.09765625,17.4023438 C6.90234277,17.2070303 6.85677031,16.979168 6.9609375,16.71875 L8.9140625,12.1289062 C8.9401043,12.0507809 8.98567676,11.979167 9.05078125,11.9140625 L16.8046875,4.16015625 C17.0781264,3.88671738 17.4101543,3.75 17.8007813,3.75 C18.1914082,3.75 18.5234361,3.88671738 18.796875,4.16015625 L20.3398438,5.703125 C20.6132826,5.97656387 20.75,6.3085918 20.75,6.69921875 C20.75,7.0898457 20.6132826,7.42187363 20.3398438,7.6953125 L12.5859375,15.46875 C12.520833,15.5208336 12.4557295,15.5598957 12.390625,15.5859375 L7.78125,17.5390625 Z M17.8007812,5.15625 L16.5898438,6.3671875 L18.1328125,7.91015625 L19.34375,6.69921875 L17.8007812,5.15625 Z M10.1445312,12.8125 L9.01171875,15.4882812 L11.6875,14.3554688 L17.1367188,8.90625 L15.59375,7.36328125 L10.1445312,12.8125 Z" id="edit"></path>
        </g>
    </g>
</svg>