<?xml version="1.0" encoding="UTF-8"?>
<svg width="13px" height="13px" viewBox="0 0 13 13" version="1.1" xmlns="http://www.w3.org/2000/svg" xmlns:xlink="http://www.w3.org/1999/xlink">
    <!-- Generator: Sketch 51.3 (57544) - http://www.bohemiancoding.com/sketch -->
    <title>error</title>
    <desc>Created with Sketch.</desc>
    <defs></defs>
    <g id="Symbols" stroke="none" stroke-width="1" fill="none" fill-rule="evenodd">
        <g id="Icon-/-Close-/-Black" transform="translate(-6.000000, -6.000000)" fill="#000000">
            <path d="M13.3828125,12.2890625 L18.34375,17.2695312 C18.5000008,17.4127611 18.578125,17.5917958 18.578125,17.8066406 C18.578125,18.0214854 18.503256,18.2037753 18.3535156,18.3535156 C18.2037753,18.503256 18.0214854,18.578125 17.8066406,18.578125 C17.5917958,18.578125 17.4127611,18.5000008 17.2695312,18.34375 L12.2890625,13.3632812 L7.30859375,18.34375 C7.16536387,18.5000008 6.9863292,18.578125 6.77148438,18.578125 C6.55663955,18.578125 6.37434971,18.503256 6.22460938,18.3535156 C6.07486904,18.2037753 6,18.0214854 6,17.8066406 C6,17.5917958 6.07812422,17.4127611 6.234375,17.2695312 L11.1953125,12.2890625 L6.234375,7.30859375 C6.07812422,7.16536387 6,6.9863292 6,6.77148438 C6,6.55663955 6.07486904,6.37434971 6.22460938,6.22460938 C6.37434971,6.07486904 6.55663955,6 6.77148438,6 C6.9863292,6 7.16536387,6.07812422 7.30859375,6.234375 L12.2890625,11.1953125 L17.2695312,6.234375 C17.4127611,6.07812422 17.5917958,6 17.8066406,6 C18.0214854,6 18.2037753,6.07486904 18.3535156,6.22460938 C18.503256,6.37434971 18.578125,6.55663955 18.578125,6.77148438 C18.578125,6.9863292 18.5000008,7.16536387 18.34375,7.30859375 L13.3828125,12.2890625 Z" id="error"></path>
        </g>
    </g>
</svg>