<?xml version="1.0" encoding="UTF-8"?>
<svg width="14px" height="15px" viewBox="0 0 14 15" version="1.1" xmlns="http://www.w3.org/2000/svg" xmlns:xlink="http://www.w3.org/1999/xlink">
    <!-- Generator: Sketch 51.3 (57544) - http://www.bohemiancoding.com/sketch -->
    <title>i-gp</title>
    <desc>Created with Sketch.</desc>
    <defs></defs>
    <g id="Symbols" stroke="none" stroke-width="1" fill="none" fill-rule="evenodd">
        <g id="Icon-/-Settings-/-Google" transform="translate(-5.000000, -5.000000)" fill="#FFFFFF" fill-rule="nonzero">
            <path d="M5.04472346,12.4579529 C4.91019125,8.91586524 8.01274763,5.64254502 11.5583991,5.60007679 C13.3655261,5.44594385 15.1236512,6.14770902 16.4912469,7.29227228 C15.9302506,7.90910099 15.3594538,8.51880217 14.7497527,9.0895989 C13.5457933,8.35813567 12.0962309,7.80070307 10.6891368,8.29576974 C8.41961106,8.94199954 7.04518482,11.6216555 7.88504597,13.8418825 C8.58057455,16.1607071 11.4009994,17.433269 13.611426,16.4591726 C14.7559892,16.0493394 15.510617,14.9932763 15.8417503,13.8585135 C14.529987,13.8323792 13.2179267,13.8487131 11.9061634,13.8124815 C11.9028966,13.0320164 11.8996298,12.2545212 11.9028966,11.4740562 C14.0904557,11.4707894 16.2812816,11.4642558 18.4721076,11.4838565 C18.6066398,13.3961146 18.3245082,15.442608 17.0813474,16.9774038 C15.3790546,19.1682297 12.2340299,19.8111927 9.67554204,18.9517308 C6.96024837,18.0598981 4.98562432,15.3244097 5.04472346,12.4579529 Z" id="i-gp"></path>
        </g>
    </g>
</svg>