<?xml version="1.0" encoding="UTF-8"?>
<svg width="19px" height="16px" viewBox="0 0 19 16" version="1.1" xmlns="http://www.w3.org/2000/svg" xmlns:xlink="http://www.w3.org/1999/xlink">
    <!-- Generator: Sketch 51.3 (57544) - http://www.bohemiancoding.com/sketch -->
    <title>i-tw</title>
    <desc>Created with Sketch.</desc>
    <defs></defs>
    <g id="Pages" stroke="none" stroke-width="1" fill="none" fill-rule="evenodd">
        <g id="Settings-/-Refer-/-5" transform="translate(-496.000000, -672.000000)" fill="#FFFFFF" fill-rule="nonzero">
            <g id="Pop-up" transform="translate(416.000000, 278.000000)">
                <g id="Twitter" transform="translate(60.000000, 375.000000)">
                    <path d="M39,21.0759583 C38.3009583,21.3862917 37.5496667,21.5952917 36.7611667,21.6895 C37.5662917,21.207375 38.1845833,20.4434167 38.475125,19.533 C37.72225,19.9795 36.8878333,20.3040833 35.9995833,20.4790417 C35.2894583,19.7214167 34.2753333,19.248 33.1543333,19.248 C30.637625,19.248 28.7882917,21.5960833 29.3567083,24.033625 C26.118,23.8713333 23.2458333,22.3196667 21.322875,19.9612917 C20.301625,21.71325 20.79325,24.005125 22.5285833,25.1657083 C21.8905,25.145125 21.2888333,24.9701667 20.7639583,24.6780417 C20.7212083,26.4838333 22.0155833,28.17325 23.89025,28.5492917 C23.341625,28.698125 22.74075,28.7329583 22.1295833,28.6157917 C22.6251667,30.1642917 24.0644167,31.2908333 25.77125,31.3225 C24.1325,32.607375 22.0678333,33.1813333 20,32.9375 C21.7250417,34.0434583 23.7746667,34.6886667 25.9755,34.6886667 C33.2129167,34.6886667 37.301875,28.5762083 37.054875,23.0939167 C37.8164583,22.5437083 38.4775,21.8573333 39,21.0759583 Z" id="i-tw"></path>
                </g>
            </g>
        </g>
    </g>
</svg>