<?xml version="1.0" encoding="UTF-8"?>
<svg width="24px" height="15px" viewBox="0 0 24 15" version="1.1" xmlns="http://www.w3.org/2000/svg" xmlns:xlink="http://www.w3.org/1999/xlink">
    <!-- Generator: Sketch 51.3 (57544) - http://www.bohemiancoding.com/sketch -->
    <title>keyboard</title>
    <desc>Created with Sketch.</desc>
    <defs></defs>
    <g id="Symbols" stroke="none" stroke-width="1" fill="none" fill-rule="evenodd">
        <g id="Icon-/-Keyboard" transform="translate(0.000000, -5.000000)" fill="#333333" fill-rule="nonzero">
            <g id="keyboard" transform="translate(0.000000, 5.000000)">
                <path d="M23.4958689,0.495825137 C23.1837814,0.183737705 22.8072131,0.0276721311 22.3662077,0.0276721311 L1.59759563,0.0276721311 C1.15659016,0.0276721311 0.780153005,0.183781421 0.46810929,0.495825137 C0.15610929,0.807868852 0,1.18443716 0,1.62531148 L0,12.8084809 C0,13.2495301 0.15610929,13.6258798 0.46810929,13.9379672 C0.780196721,14.2500546 1.15659016,14.4062514 1.59759563,14.4062514 L22.3662077,14.4062514 C22.8072131,14.4062514 23.1837814,14.2500546 23.4958689,13.9379672 C23.8077814,13.6258798 23.9639781,13.2495301 23.9639781,12.8084809 L23.9639781,1.62531148 C23.9639781,1.18443716 23.8077814,0.807868852 23.4958689,0.495825137 Z M22.3662077,12.8084809 L1.59759563,12.8084809 L1.59759563,1.62531148 L22.3662077,1.62531148 L22.3662077,12.8084809 Z" id="Shape"></path>
                <path d="M3.39484153,11.2107104 L4.59300546,11.2107104 C4.72616393,11.2107104 4.79274317,11.144 4.79274317,11.0110164 L4.79274317,9.81285246 C4.79274317,9.68 4.72629508,9.61315847 4.59300546,9.61315847 L3.39484153,9.61315847 C3.26177049,9.61315847 3.19514754,9.68 3.19514754,9.81285246 L3.19514754,11.0110164 C3.19514754,11.144 3.26177049,11.2107104 3.39484153,11.2107104 Z" id="Shape"></path>
                <path d="M3.39484153,8.01582514 L6.19064481,8.01582514 C6.32375956,8.01582514 6.39042623,7.94893989 6.39042623,7.81595628 L6.39042623,6.61770492 C6.39042623,6.48459016 6.32375956,6.41814208 6.19064481,6.41801093 L3.39484153,6.41801093 C3.26177049,6.41801093 3.19514754,6.48459016 3.19514754,6.61770492 L3.19514754,7.81595628 C3.19514754,7.94893989 3.26177049,8.01582514 3.39484153,8.01582514 Z" id="Shape"></path>
                <path d="M3.39484153,4.82045902 L4.59300546,4.82045902 C4.72616393,4.82045902 4.79274317,4.75379235 4.79274317,4.6206776 L4.79274317,3.42260109 C4.79274317,3.28944262 4.72629508,3.22303825 4.59300546,3.22281967 L3.39484153,3.22281967 C3.26177049,3.22281967 3.19514754,3.28944262 3.19514754,3.42260109 L3.19514754,4.6206776 C3.19514754,4.75379235 3.26177049,4.82045902 3.39484153,4.82045902 Z" id="Shape"></path>
                <path d="M17.3739891,9.6132459 L6.59020765,9.6132459 C6.45704918,9.6132459 6.39042623,9.67995628 6.39042623,9.81311475 L6.39042623,11.0111038 C6.39042623,11.1439563 6.45704918,11.2109727 6.59020765,11.2109727 L17.3735956,11.2109727 C17.5067541,11.2109727 17.5734645,11.1442623 17.5734645,11.0111038 L17.5734645,9.81311475 C17.5735082,9.68 17.5067978,9.6132459 17.3739891,9.6132459 Z" id="Shape"></path>
                <path d="M7.98797814,7.81595628 C7.98797814,7.94893989 8.05455738,8.01582514 8.18754098,8.01582514 L9.38587978,8.01582514 C9.51895082,8.01582514 9.58544262,7.94893989 9.58544262,7.81595628 L9.58544262,6.61770492 C9.58544262,6.48459016 9.51908197,6.41814208 9.38587978,6.41801093 L8.18754098,6.41801093 C8.05455738,6.41801093 7.98797814,6.48459016 7.98797814,6.61770492 L7.98797814,7.81595628 Z" id="Shape"></path>
                <path d="M6.59020765,4.82045902 L7.78828415,4.82045902 C7.92144262,4.82045902 7.98806557,4.75379235 7.98806557,4.6206776 L7.98806557,3.42260109 C7.98806557,3.28944262 7.92144262,3.22303825 7.78828415,3.22281967 L6.59020765,3.22281967 C6.45704918,3.22281967 6.39042623,3.28944262 6.39042623,3.42260109 L6.39042623,4.6206776 C6.39042623,4.75379235 6.4570929,4.82045902 6.59020765,4.82045902 Z" id="Shape"></path>
                <path d="M11.183082,7.81595628 C11.183082,7.94893989 11.2497049,8.01582514 11.382776,8.01582514 L12.5809399,8.01582514 C12.7140984,8.01582514 12.7808087,7.94893989 12.7808087,7.81595628 L12.7808087,6.61770492 C12.7808087,6.48459016 12.7140984,6.41814208 12.5809399,6.41801093 L11.382776,6.41801093 C11.2497049,6.41801093 11.183082,6.48459016 11.183082,6.61770492 L11.183082,7.81595628 Z" id="Shape"></path>
                <path d="M9.78522404,4.82045902 L10.9833005,4.82045902 C11.116459,4.82045902 11.183082,4.75379235 11.183082,4.6206776 L11.183082,3.42260109 C11.183082,3.28944262 11.1165902,3.22303825 10.9833005,3.22281967 L9.78522404,3.22281967 C9.65206557,3.22281967 9.58544262,3.28944262 9.58544262,3.42260109 L9.58544262,4.6206776 C9.58544262,4.75379235 9.65206557,4.82045902 9.78522404,4.82045902 Z" id="Shape"></path>
                <path d="M14.3783169,7.81595628 C14.3783169,7.94893989 14.4449836,8.01582514 14.5778361,8.01582514 L15.7761749,8.01582514 C15.9092896,8.01582514 15.975694,7.94893989 15.975694,7.81595628 L15.975694,6.61770492 C15.975694,6.48459016 15.9092459,6.41814208 15.7761749,6.41801093 L14.5778361,6.41801093 C14.4449836,6.41801093 14.3783169,6.48459016 14.3783169,6.61770492 L14.3783169,7.81595628 Z" id="Shape"></path>
                <path d="M20.5688743,9.6132459 L19.3708852,9.6132459 C19.2377268,9.6132459 19.1710164,9.67995628 19.1710164,9.81311475 L19.1710164,11.0111038 C19.1710164,11.1439563 19.2377268,11.2109727 19.3708852,11.2109727 L20.5688743,11.2109727 C20.7020328,11.2109727 20.7687432,11.1442623 20.7687432,11.0111038 L20.7687432,9.81311475 C20.7687432,9.68 20.7021639,9.6132459 20.5688743,9.6132459 Z" id="Shape"></path>
                <path d="M12.980459,4.82045902 L14.1787541,4.82045902 C14.3119126,4.82045902 14.3783169,4.75379235 14.3783169,4.6206776 L14.3783169,3.42260109 C14.3783169,3.28944262 14.3118689,3.22303825 14.1787541,3.22281967 L12.980459,3.22281967 C12.8473005,3.22281967 12.7808962,3.28944262 12.7808962,3.42260109 L12.7808962,4.6206776 C12.7808525,4.75379235 12.8473005,4.82045902 12.980459,4.82045902 Z" id="Shape"></path>
                <path d="M16.1756503,4.82045902 L17.3736393,4.82045902 C17.5067978,4.82045902 17.5735082,4.75379235 17.5735082,4.6206776 L17.5735082,3.42260109 C17.5735082,3.28944262 17.5067978,3.22303825 17.3736393,3.22281967 L16.1756503,3.22281967 C16.0424918,3.22281967 15.9757814,3.28944262 15.9757814,3.42260109 L15.9757814,4.6206776 C15.9757377,4.75379235 16.0424918,4.82045902 16.1756503,4.82045902 Z" id="Shape"></path>
                <path d="M17.573377,7.81595628 C17.573377,7.94893989 17.6399126,8.01582514 17.773071,8.01582514 L20.5688306,8.01582514 C20.7019891,8.01582514 20.7686995,7.94893989 20.7686995,7.81595628 L20.7686995,3.42260109 C20.7686995,3.28944262 20.7021639,3.22303825 20.5688306,3.22281967 L19.3708415,3.22281967 C19.2376831,3.22281967 19.1709727,3.28944262 19.1709727,3.42260109 L19.1709727,6.41801093 L17.7731148,6.41801093 C17.6399563,6.41801093 17.5734208,6.48459016 17.5734208,6.61770492 L17.5734208,7.81595628 L17.573377,7.81595628 Z" id="Shape"></path>
            </g>
        </g>
    </g>
</svg>