<?xml version="1.0" encoding="UTF-8"?>
<svg width="16px" height="21px" viewBox="0 0 16 21" version="1.1" xmlns="http://www.w3.org/2000/svg" xmlns:xlink="http://www.w3.org/1999/xlink">
    <!-- Generator: Sketch 51.3 (57544) - http://www.bohemiancoding.com/sketch -->
    <title>notification</title>
    <desc>Created with Sketch.</desc>
    <defs></defs>
    <g id="Symbols" stroke="none" stroke-width="1" fill="none" fill-rule="evenodd">
        <g id="Icon-/-Settings-/--Notification" transform="translate(-4.000000, -1.000000)" fill="#333333">
            <path d="M18.796875,17.75 C18.9921885,17.75 19.1582024,17.8183587 19.2949219,17.9550781 C19.4316413,18.0917976 19.5,18.2578115 19.5,18.453125 C19.5,18.6484385 19.4316413,18.8144524 19.2949219,18.9511719 C19.1582024,19.0878913 18.9921885,19.15625 18.796875,19.15625 L13.40625,19.15625 L13.40625,20.09375 C13.40625,20.484377 13.2695326,20.8164049 12.9960938,21.0898438 C12.7226549,21.3632826 12.390627,21.5 12,21.5 C11.609373,21.5 11.2773451,21.3632826 11.0039062,21.0898438 C10.7304674,20.8164049 10.59375,20.484377 10.59375,20.09375 L10.59375,19.15625 L5.203125,19.15625 C5.00781152,19.15625 4.84179756,19.0878913 4.70507812,18.9511719 C4.56835869,18.8144524 4.5,18.6484385 4.5,18.453125 C4.5,18.2578115 4.56835869,18.0917976 4.70507812,17.9550781 C4.84179756,17.8183587 5.00781152,17.75 5.203125,17.75 L5.75,17.75 L5.75,9 C5.75,7.39842949 6.28384883,6.00521426 7.3515625,4.8203125 C8.41927617,3.63541074 9.73436719,2.95833418 11.296875,2.7890625 L11.296875,2.203125 C11.296875,2.00781152 11.3652337,1.84179756 11.5019531,1.70507812 C11.6386726,1.56835869 11.8046865,1.5 12,1.5 C12.1953135,1.5 12.3613274,1.56835869 12.4980469,1.70507812 C12.6347663,1.84179756 12.703125,2.00781152 12.703125,2.203125 L12.703125,2.7890625 C14.2656328,2.95833418 15.5807238,3.63541074 16.6484375,4.8203125 C17.7161512,6.00521426 18.25,7.39842949 18.25,9 L18.25,17.75 L18.796875,17.75 Z M16.84375,17.75 L16.84375,9 C16.84375,7.65884746 16.3717495,6.51628076 15.4277344,5.57226562 C14.4837192,4.62825049 13.3411525,4.15625 12,4.15625 C10.6588475,4.15625 9.51628076,4.62825049 8.57226562,5.57226562 C7.62825049,6.51628076 7.15625,7.65884746 7.15625,9 L7.15625,17.75 L16.84375,17.75 Z" id="notification"></path>
        </g>
    </g>
</svg>