<?xml version="1.0" encoding="UTF-8"?>
<svg width="20px" height="21px" viewBox="0 0 20 21" version="1.1" xmlns="http://www.w3.org/2000/svg" xmlns:xlink="http://www.w3.org/1999/xlink">
    <!-- Generator: Sketch 51.3 (57544) - http://www.bohemiancoding.com/sketch -->
    <title>prev-next</title>
    <desc>Created with Sketch.</desc>
    <defs></defs>
    <g id="Symbols" stroke="none" stroke-width="1" fill="none" fill-rule="evenodd">
        <g id="Icon-/-Arrow-/-Circ;e-/-Light-Right" transform="translate(-2.000000, -2.000000)" fill="#000000">
            <path d="M15.8867188,3.3203125 C17.1237041,3.84114844 18.1848914,4.54752158 19.0703125,5.43945312 C19.9557336,6.33138467 20.6653619,7.39257197 21.1992188,8.62304688 C21.7330756,9.85352178 22,11.1490817 22,12.5097656 C22,13.8704495 21.7330756,15.1660095 21.1992188,16.3964844 C20.6653619,17.6269593 19.9557336,18.6881466 19.0703125,19.5800781 C18.1848914,20.4720097 17.1237041,21.181638 15.8867188,21.7089844 C14.6497334,22.2363308 13.3541734,22.5 12,22.5 C10.6458266,22.5 9.3502666,22.2363308 8.11328125,21.7089844 C6.8762959,21.181638 5.81510859,20.4720097 4.9296875,19.5800781 C4.04426641,18.6881466 3.33463809,17.6269593 2.80078125,16.3964844 C2.26692441,15.1660095 2,13.8704495 2,12.5097656 C2,11.1490817 2.26692441,9.85352178 2.80078125,8.62304688 C3.33463809,7.39257197 4.04426641,6.33138467 4.9296875,5.43945312 C5.81510859,4.54752158 6.8762959,3.83789326 8.11328125,3.31054688 C9.3502666,2.78320049 10.6458266,2.51953125 12,2.51953125 C13.3541734,2.51953125 14.6497334,2.78645566 15.8867188,3.3203125 Z M15.3007812,13.0078125 C15.457032,12.8645826 15.5351562,12.6920583 15.5351562,12.4902344 C15.5351562,12.2884104 15.457032,12.1158861 15.3007812,11.9726562 L10.7109375,7.65625 C10.5677076,7.52604102 10.3984385,7.46419268 10.203125,7.47070312 C10.0078115,7.47721357 9.84505273,7.55208262 9.71484375,7.6953125 C9.58463477,7.83854238 9.52278643,8.00781152 9.52929688,8.203125 C9.53580732,8.39843848 9.61067637,8.56119727 9.75390625,8.69140625 L13.796875,12.5 L9.75390625,16.2890625 C9.61067637,16.4192715 9.53580732,16.5820303 9.52929688,16.7773437 C9.52278643,16.9726572 9.58463477,17.1419264 9.71484375,17.2851562 C9.84505273,17.4283861 10.0078115,17.5032552 10.203125,17.5097656 C10.3984385,17.5162761 10.5677076,17.4479174 10.7109375,17.3046875 L15.3007812,13.0078125 Z" id="prev-next"></path>
        </g>
    </g>
</svg>