<?xml version="1.0" encoding="UTF-8"?>
<svg width="18px" height="19px" viewBox="0 0 18 19" version="1.1" xmlns="http://www.w3.org/2000/svg" xmlns:xlink="http://www.w3.org/1999/xlink">
    <!-- Generator: Sketch 51.3 (57544) - http://www.bohemiancoding.com/sketch -->
    <title>remove</title>
    <desc>Created with Sketch.</desc>
    <defs></defs>
    <g id="Symbols" stroke="none" stroke-width="1" fill="none" fill-rule="evenodd">
        <g id="Icon-/-Delete" transform="translate(-3.000000, -2.000000)" fill="#333333">
            <path d="M5.4612058,19.9750532 C5.46632469,19.9760594 5.47144358,19.9765625 5.4765625,19.9765625 C5.47265817,19.9765625 5.46816851,19.9759772 5.4630935,19.9748064 L5.4612058,19.9750532 Z M5.3203125,19.8984375 C5.2812498,19.8723957 5.24869805,19.8528646 5.22265625,19.8398438 C5.24869805,19.8528646 5.2812498,19.8723957 5.3203125,19.8984375 Z M20.7695312,5.97265625 C20.7695312,6.15494883 20.6979174,6.31445244 20.5546875,6.45117188 C20.4114576,6.58789131 20.2421885,6.65625 20.046875,6.65625 L19.65625,6.65625 L19.65625,18.8242188 C19.65625,19.2018248 19.5195326,19.5240872 19.2460938,19.7910156 C18.9726549,20.057944 18.6471373,20.1914062 18.2695312,20.1914062 L5.92578125,20.1914062 C5.5481752,20.1914062 5.22265762,20.057944 4.94921875,19.7910156 C4.67577988,19.5240872 4.5390625,19.2018248 4.5390625,18.8242188 L4.5390625,6.65625 L3.93359375,6.65625 C3.73828027,6.65625 3.57226631,6.58789131 3.43554688,6.45117188 C3.29882744,6.31445244 3.23046875,6.15169365 3.23046875,5.96289062 C3.23046875,5.7740876 3.29882744,5.61132881 3.43554688,5.47460938 C3.57226631,5.33788994 3.73828027,5.26953125 3.93359375,5.26953125 L7.546875,5.26953125 L7.546875,4.13671875 C7.546875,3.7591127 7.68033721,3.43685029 7.94726562,3.16992188 C8.21419404,2.90299346 8.5429668,2.76953125 8.93359375,2.76953125 L15.0664062,2.76953125 C15.4440123,2.76953125 15.7695299,2.90299346 16.0429688,3.16992188 C16.3164076,3.43685029 16.453125,3.7591127 16.453125,4.13671875 L16.453125,5.26953125 L20.046875,5.26953125 C20.2552094,5.26953125 20.4277337,5.33788994 20.5644531,5.47460938 C20.7011726,5.61132881 20.7695312,5.77734277 20.7695312,5.97265625 Z M8.9140625,4.15625 L8.9140625,5.26953125 L15.0664062,5.26953125 L15.0664062,4.15625 L8.9140625,4.15625 Z M18.2695312,18.8242188 L18.2695312,6.65625 L5.92578125,6.65625 L5.92578125,18.8242188 L18.2695312,18.8242188 Z M12.46875,9.21484375 C12.6119799,9.34505273 12.6835938,9.50781152 12.6835938,9.703125 L12.6835938,16.2265625 C12.6835938,16.421876 12.6152351,16.5878899 12.4785156,16.7246094 C12.3417962,16.8613288 12.1790374,16.9296875 11.9902344,16.9296875 C11.8014313,16.9296875 11.6386726,16.8613288 11.5019531,16.7246094 C11.3652337,16.5878899 11.296875,16.421876 11.296875,16.2265625 L11.296875,9.703125 C11.296875,9.50781152 11.3652337,9.34179756 11.5019531,9.20507812 C11.6386726,9.06835869 11.8014313,9 11.9902344,9 C12.1790374,9 12.338541,9.07161387 12.46875,9.21484375 Z M8.6796875,9.21484375 C8.82291738,9.34505273 8.89453125,9.50781152 8.89453125,9.703125 L8.89453125,16.2265625 C8.89453125,16.421876 8.82617256,16.5878899 8.68945312,16.7246094 C8.55273369,16.8613288 8.38671973,16.9296875 8.19140625,16.9296875 C7.99609277,16.9296875 7.83007881,16.8613288 7.69335938,16.7246094 C7.55663994,16.5878899 7.48828125,16.421876 7.48828125,16.2265625 L7.48828125,9.703125 C7.48828125,9.50781152 7.55663994,9.34179756 7.69335938,9.20507812 C7.83007881,9.06835869 7.99609277,9 8.19140625,9 C8.38671973,9 8.54947852,9.07161387 8.6796875,9.21484375 Z M16.2382812,9.21484375 C16.3815111,9.34505273 16.453125,9.50781152 16.453125,9.703125 L16.453125,16.2265625 C16.453125,16.421876 16.3847663,16.5878899 16.2480469,16.7246094 C16.1113274,16.8613288 15.9453135,16.9296875 15.75,16.9296875 C15.5546865,16.9296875 15.3886726,16.8613288 15.2519531,16.7246094 C15.1152337,16.5878899 15.046875,16.421876 15.046875,16.2265625 L15.046875,9.703125 C15.046875,9.50781152 15.1152337,9.34179756 15.2519531,9.20507812 C15.3886726,9.06835869 15.5546865,9 15.75,9 C15.9453135,9 16.1080723,9.07161387 16.2382812,9.21484375 Z" id="remove"></path>
        </g>
    </g>
</svg>