<?xml version="1.0" encoding="UTF-8"?>
<svg width="20px" height="21px" viewBox="0 0 20 21" version="1.1" xmlns="http://www.w3.org/2000/svg" xmlns:xlink="http://www.w3.org/1999/xlink">
    <!-- Generator: Sketch 51.3 (57544) - http://www.bohemiancoding.com/sketch -->
    <title>send-feedback</title>
    <desc>Created with Sketch.</desc>
    <defs></defs>
    <g id="Symbols" stroke="none" stroke-width="1" fill="none" fill-rule="evenodd">
        <g id="Icon-/-Send-feedback" transform="translate(-2.000000, -2.000000)">
            <g id="Icon-/-Settings-/-Upgrate">
                <rect id="Rectangle-3" fill="#FFFFFF" fill-rule="nonzero" opacity="0" x="0" y="0" width="24" height="24"></rect>
                <path d="M21.609375,2.25 C21.7916676,2.25 21.9088539,2.32161387 21.9609375,2.46484375 C22.0130211,2.60807363 21.9869797,2.80338418 21.8828125,3.05078125 L13.8945313,21.6835938 C13.8294268,21.8658863 13.741537,21.9993485 13.6308594,22.0839844 C13.5201817,22.1686202 13.4062506,22.2109375 13.2890625,22.2109375 C13.1848953,22.2109375 13.0807297,22.1751306 12.9765625,22.1035156 C12.8723953,22.0319007 12.77474,21.9244799 12.6835938,21.78125 L9.51953125,16.6054688 C9.33723867,16.2929672 9.06705908,15.9576841 8.70898438,15.5996094 C8.35090967,15.2415347 8.01562656,14.9648447 7.703125,14.7695313 L2.4296875,11.4882812 C2.13020684,11.2929678 1.99023428,11.074871 2.00976562,10.8339844 C2.02929697,10.5930978 2.20182129,10.4010424 2.52734375,10.2578125 L21.1796875,2.34765625 C21.2578129,2.32161445 21.3326819,2.29882822 21.4042969,2.27929688 C21.4759118,2.25976553 21.5442705,2.25 21.609375,2.25 Z M8.3671875,13.65625 C8.49739648,13.7343754 8.63085869,13.8287755 8.76757812,13.9394531 C8.90429756,14.0501308 9.04427012,14.1705723 9.1875,14.3007812 L18.4257812,4.90625 L4.08984375,11 L8.3671875,13.65625 Z M13.1914062,20.1210938 L19.3242188,5.765625 L10.0664062,15.1796875 C10.1835943,15.3098965 10.2910151,15.4401035 10.3886719,15.5703125 C10.4863286,15.7005215 10.567708,15.8307285 10.6328125,15.9609375 L13.1914062,20.1210938 Z" id="paper-plane---simple-line-icons" fill="#333333" fill-rule="evenodd"></path>
            </g>
        </g>
    </g>
</svg>