<?xml version="1.0" encoding="UTF-8"?>
<svg width="18px" height="19px" viewBox="0 0 18 19" version="1.1" xmlns="http://www.w3.org/2000/svg" xmlns:xlink="http://www.w3.org/1999/xlink">
    <!-- Generator: Sketch 51.3 (57544) - http://www.bohemiancoding.com/sketch -->
    <title>star</title>
    <desc>Created with Sketch.</desc>
    <defs></defs>
    <g id="Symbols" stroke="none" stroke-width="1" fill="none" fill-rule="evenodd">
        <g id="Icon-/-Favorite-Copy" transform="translate(-3.000000, -2.000000)" fill="#000000">
            <path d="M11.7460938,4.33203125 L9.6953125,8.66796875 C9.6562498,8.77213594 9.58463594,8.8307291 9.48046875,8.84375 L4.890625,9.546875 C4.77343691,9.5598959 4.6953127,9.62174424 4.65625,9.73242188 C4.6171873,9.84309951 4.64322871,9.93749961 4.734375,10.015625 L8.07421875,13.453125 C8.13932324,13.5182295 8.16536465,13.5963537 8.15234375,13.6875 L7.3515625,18.5117188 C7.3385416,18.602865 7.36132783,18.6809893 7.41992187,18.7460938 C7.47851592,18.8111982 7.55338496,18.84375 7.64453125,18.84375 C7.69661484,18.84375 7.7421873,18.8307293 7.78125,18.8046875 L11.8632812,16.5585938 C11.9023439,16.532552 11.9479164,16.5195312 12,16.5195312 C12.0520836,16.5195312 12.0976561,16.532552 12.1367188,16.5585938 L12.2539062,4.33203125 C12.2018227,4.21484316 12.1171881,4.15625 12,4.15625 C11.8828119,4.15625 11.7981773,4.21484316 11.7460938,4.33203125 Z M12,2.75 C12.3125016,2.75 12.6054674,2.83463457 12.8789062,3.00390625 C13.165366,3.17317793 13.3802076,3.41406094 13.5234375,3.7265625 L15.3203125,7.53515625 L19.3242188,8.140625 C19.6367203,8.19270859 19.9134103,8.31966045 20.1542969,8.52148438 C20.3951835,8.7233083 20.5677078,8.97721201 20.671875,9.28320312 C20.7760422,9.58919424 20.7923181,9.89518076 20.7207031,10.2011719 C20.6490882,10.507163 20.5026053,10.7773426 20.28125,11.0117188 L17.3320312,14.0195312 L18.0351562,18.2773438 C18.1132816,18.7981797 17.9830746,19.2571595 17.6445312,19.6542969 C17.3059879,20.0514343 16.8763047,20.25 16.3554688,20.25 C16.069009,20.25 15.7955742,20.1783861 15.5351562,20.0351562 L12,18.0820312 L8.46484375,20.0351562 C8.20442578,20.1783861 7.93099102,20.25 7.64453125,20.25 C7.12369531,20.25 6.69401211,20.0514343 6.35546875,19.6542969 C6.01692539,19.2571595 5.88671836,18.7981797 5.96484375,18.2773438 L6.66796875,14.0195312 L3.71875,11.0117188 C3.49739473,10.7773426 3.35091182,10.507163 3.27929688,10.2011719 C3.20768193,9.89518076 3.22395781,9.58919424 3.328125,9.28320312 C3.43229219,8.97721201 3.6048165,8.7233083 3.84570312,8.52148438 C4.08658975,8.31966045 4.36327969,8.19270859 4.67578125,8.140625 L8.6796875,7.53515625 L10.4765625,3.7265625 C10.6197924,3.41406094 10.834634,3.17317793 11.1210938,3.00390625 C11.3945326,2.83463457 11.6874984,2.75 12,2.75 Z" id="star"></path>
        </g>
    </g>
</svg>