<?xml version="1.0" encoding="UTF-8"?>
<svg width="20px" height="20px" viewBox="0 0 20 20" version="1.1" xmlns="http://www.w3.org/2000/svg" xmlns:xlink="http://www.w3.org/1999/xlink">
    <!-- Generator: Sketch 51.3 (57544) - http://www.bohemiancoding.com/sketch -->
    <title>swap</title>
    <desc>Created with Sketch.</desc>
    <defs></defs>
    <g id="Symbols" stroke="none" stroke-width="1" fill="none" fill-rule="evenodd">
        <g id="Icon-/-Switch" transform="translate(-2.000000, -2.000000)" fill="#000000" fill-rule="nonzero">
            <g id="swap" transform="translate(2.000000, 2.000000)">
                <path d="M10,20 C15.5228475,20 20,15.5228475 20,10 C20,4.4771525 15.5228475,0 10,0 C4.4771525,0 0,4.4771525 0,10 C0,15.5228475 4.4771525,20 10,20 Z M5.0739803,8.66746832 C5.062867,8.66746832 5.05731043,8.66469003 5.05731043,8.65913338 C5.05731043,8.65357673 5.05453214,8.65079844 5.04897549,8.65079844 L4.97396106,8.65079844 L4.95729119,8.63412857 L4.90728157,8.63412857 L4.8906117,8.6174587 L4.87394182,8.6174587 L4.85727195,8.60078882 L4.8239322,8.60078882 L4.8239322,8.58411895 L4.80726233,8.58411895 L4.79059246,8.56744908 L4.77392258,8.56744908 L4.77392258,8.5507792 L4.75725271,8.5507792 L4.72391296,8.51743946 L4.70724309,8.51743946 C4.69612979,8.49521285 4.68501665,8.47854314 4.67390334,8.46742984 C4.66279004,8.46742984 4.65723347,8.46465155 4.65723347,8.4590949 L4.65723347,8.45075996 L4.6405636,8.43409009 L4.6405636,8.41742022 L4.62389372,8.41742022 L4.62389372,8.40075034 L4.60722385,8.38408047 L4.60722385,8.37574553 C4.60722385,8.37018888 4.60444557,8.3674106 4.59888891,8.3674106 L4.59055398,8.3674106 L4.59055398,8.35074072 L4.5738841,8.33407085 L4.5738841,8.30906604 C4.5738841,8.30350939 4.57110582,8.3007311 4.56554917,8.3007311 L4.55721423,8.3007311 L4.55721423,8.28406123 C4.55721423,8.27294793 4.55443595,8.26739136 4.54887929,8.26739136 C4.54332264,8.26739136 4.54054436,8.26461307 4.54054436,8.25905642 L4.54054436,8.20071186 L4.52387448,8.18404199 L4.52387448,7.95066377 L4.54054436,7.93399389 L4.54054436,7.88398427 C4.55165766,7.87287097 4.55721423,7.86453611 4.55721423,7.85897946 L4.55721423,7.83397465 L4.5738841,7.81730478 L4.5738841,7.80063491 L4.59055398,7.78396503 L4.59055398,7.7756301 C4.59055398,7.77007344 4.59333226,7.76451688 4.59888891,7.75896022 L4.60722385,7.75062529 L4.60722385,7.74229035 C4.60722385,7.7367337 4.61000213,7.73395541 4.61555879,7.73395541 C4.62111544,7.73395541 4.62389372,7.73117713 4.62389372,7.72562048 L4.62389372,7.71728554 L4.6405636,7.70061567 C4.6405636,7.68950236 4.64612017,7.68394579 4.65723347,7.68394579 L4.65723347,7.66727592 L4.67390334,7.66727592 L7.65781066,4.68336861 C7.7689437,4.56112226 7.90785792,4.5 8.07455749,4.5 C8.24125706,4.5 8.38017128,4.56112226 8.49130432,4.68336861 C8.61355067,4.80561495 8.67467293,4.94730746 8.67467293,5.10845037 C8.67467293,5.26959329 8.61355067,5.41128579 8.49130432,5.53353214 L6.55759902,7.46723744 L15.64268,7.46723744 C15.8093795,7.46723744 15.951072,7.52558141 16.0677617,7.64227111 C16.1844514,7.75896081 16.2427954,7.90065331 16.2427954,8.06735288 C16.2427954,8.23405244 16.1844514,8.37574495 16.0677617,8.49243465 C15.951072,8.60912434 15.8093795,8.66746832 15.64268,8.66746832 L5.0739803,8.66746832 Z M15.6760197,11.9014237 C15.687133,11.9014237 15.6926896,11.904202 15.6926896,11.9097587 C15.6926896,11.9153153 15.6954679,11.9180936 15.7010245,11.9180936 L15.7760389,11.9180936 L15.7927088,11.9347635 L15.8427184,11.9347635 L15.8427184,11.9514333 L15.8760582,11.9514333 L15.8927281,11.9681032 L15.9260678,11.9681032 L15.9260678,11.9847731 L15.9427377,11.9847731 L15.9594075,12.001443 L15.9760774,12.001443 L15.9760774,12.0181128 L15.9927473,12.0181128 L16.026087,12.0514526 L16.0427569,12.0514526 C16.0538702,12.0736792 16.0649834,12.0903489 16.0760967,12.1014622 C16.08721,12.1014622 16.0927665,12.1042405 16.0927665,12.1097971 L16.0927665,12.1181321 L16.1094364,12.134802 L16.1094364,12.1514718 L16.1261063,12.1514718 L16.1261063,12.1681417 L16.1344412,12.1681417 C16.1399979,12.1681417 16.1427761,12.17092 16.1427761,12.1764766 L16.1427761,12.1931465 C16.1427761,12.1987032 16.1455544,12.2014814 16.1511111,12.2014814 C16.1566677,12.2014814 16.159446,12.2042597 16.159446,12.2098164 L16.159446,12.2181513 L16.1761159,12.2348212 L16.1761159,12.259826 C16.1761159,12.2653827 16.1788942,12.2681609 16.1844508,12.2681609 L16.1927858,12.2681609 L16.1927858,12.3015007 L16.2011207,12.3098356 C16.2066774,12.3153923 16.2094556,12.3209488 16.2094556,12.3265055 L16.2094556,12.3681802 L16.2261255,12.3848501 L16.2261255,12.6182283 L16.2094556,12.6348982 L16.2094556,12.6849078 L16.1927858,12.7015776 L16.1927858,12.7349174 L16.1761159,12.7515873 L16.1761159,12.7682571 L16.159446,12.784927 L16.159446,12.7932619 C16.159446,12.7988186 16.1566677,12.8043752 16.1511111,12.8099318 L16.1427761,12.8182668 L16.1427761,12.8266017 C16.1427761,12.8321583 16.1399979,12.8349366 16.1344412,12.8349366 C16.1288846,12.8349366 16.1261063,12.8377149 16.1261063,12.8432716 L16.1261063,12.8516065 L16.1094364,12.8682764 C16.1094364,12.8793897 16.1066581,12.8849463 16.1011015,12.8849463 L16.0927665,12.8849463 L16.0927665,12.9016161 L16.0760967,12.9016161 L16.0677617,12.9099511 C16.0622051,12.9155077 16.0594268,12.9238426 16.0594268,12.9349559 L13.1088592,15.8855234 C12.9866129,16.0077698 12.8421421,16.068892 12.6754425,16.068892 C12.5087429,16.068892 12.3698287,16.0077698 12.2586957,15.8855234 C12.1364493,15.7743904 12.0753271,15.6354762 12.0753271,15.4687766 C12.0753271,15.302077 12.1364493,15.1576063 12.2586957,15.0353599 L14.192401,13.1016546 L5.10732005,13.1016546 C4.95173379,13.1016546 4.81281957,13.0433106 4.69057322,12.9266209 C4.56832687,12.8099312 4.50720461,12.6682387 4.50720461,12.5015392 C4.50720461,12.3348396 4.56832687,12.1931471 4.69057322,12.0764574 C4.81281957,11.9597677 4.95173379,11.9014237 5.10732005,11.9014237 L15.6760197,11.9014237 Z" id="Oval-4"></path>
            </g>
        </g>
    </g>
</svg>